<svg width="555" height="561" viewBox="0 0 555 561" xmlns="http://www.w3.org/2000/svg" xmlns:xlink="http://www.w3.org/1999/xlink">
    <defs>
        <path id="cyc5vlntfa" d="M0 0h2.904v487.947H0z"/>
        <path d="M267.635 149.166c6.427 3.713 11.703 12.787 11.682 20.249l-.476 167.971c-.02 7.391-5.33 10.348-11.758 6.634l-255.4-147.565C5.255 192.741-.021 183.668 0 176.277L.476 8.306C.497.844 5.807-2.113 12.235 1.6l255.4 147.565z" id="zogav5ueyc"/>
        <path d="M59.322 5.814c13.642 7.752 13.713 20.301.16 28.053-13.552 7.753-35.562 7.753-49.204 0-13.641-7.752-13.713-20.3-.16-28.053 13.552-7.752 35.562-7.752 49.204 0z" id="axsrehy08e"/>
        <path id="55nuhaih5g" d="M0 0h39.419v26.059H0z"/>
        <path d="M59.322 5.814c13.642 7.752 13.713 20.301.16 28.053-13.552 7.753-35.562 7.753-49.204 0-13.641-7.752-13.713-20.3-.16-28.053 13.552-7.752 35.562-7.752 49.204 0z" id="8rjsqma4fi"/>
        <path id="36ia8pjuyk" d="M0 0h39.419v26.059H0z"/>
        <path d="M26.557 0C20.328.698 14.385 2.443 9.57 5.247c-12.819 7.452-12.752 19.521.152 26.977 12.904 7.456 33.724 7.456 46.544 0 4.814-2.8 7.808-6.25 8.99-9.86L26.557 0z" id="tbbuoa5qjm"/>
        <path id="parh96jgeo" d="M0 0h39.419v26.059H0z"/>
        <filter x="-20.4%" y="-57%" width="140.7%" height="214%" filterUnits="objectBoundingBox" id="sgw3wdlbnq">
            <feGaussianBlur stdDeviation="13.79" in="SourceGraphic"/>
        </filter>
        <filter x="-27.8%" y="-77.6%" width="155.6%" height="255.3%" filterUnits="objectBoundingBox" id="vp2nde6bkr">
            <feGaussianBlur stdDeviation="13.79" in="SourceGraphic"/>
        </filter>
    </defs>
    <g fill="none" fill-rule="evenodd">
        <g fill="#8AFFA5">
            <path d="m314.408 550.104-.707-60.993-.406-60.994-.338-121.987.334-121.987.407-60.993.71-60.994.71 60.994.407 60.993.334 121.987-.338 121.987-.406 60.994z"/>
            <path d="m325.865 544.334-3.599-58.055-3.302-58.068-6.133-116.162-5.464-116.193-2.495-58.11-2.191-58.125 3.603 58.054 3.302 58.069 6.127 116.162 5.46 116.195 2.495 58.11z"/>
            <path d="m337.322 538.564-6.49-55.112-6.197-55.143-11.925-110.333-11.265-110.404-5.397-55.227-5.096-55.257 6.494 55.11 6.196 55.142 11.921 110.335 11.26 110.404 5.396 55.228z"/>
            <path d="m348.779 532.794-9.379-52.167-9.088-52.214-17.718-104.506-17.065-104.612-8.3-52.348-8.006-52.395 9.384 52.165 9.088 52.216 17.712 104.506 17.061 104.614 8.3 52.346z"/>
            <path d="m360.235 527.023-12.264-49.217-11.978-49.285-23.508-98.675-22.868-98.827-11.206-49.466-10.916-49.534 12.269 49.215 11.98 49.285 23.502 98.676 22.862 98.828 11.206 49.466z"/>
            <path d="m371.692 521.253-15.144-46.267-14.868-46.353-29.296-92.845-28.671-93.037-14.114-46.59-13.833-46.678 15.15 46.265 14.868 46.354 29.29 92.846 28.667 93.04 14.114 46.59z"/>
            <path d="m383.149 515.483-18.02-43.314-17.754-43.42-35.082-87.012-34.478-87.254-17.024-43.712-16.752-43.821 18.024 43.31 17.754 43.422 35.076 87.014 34.474 87.254 17.026 43.713z"/>
            <path d="m394.606 509.713-20.893-40.36-20.636-40.487-40.863-81.179-40.288-81.468-19.939-40.837-19.677-40.968 20.896 40.358 20.636 40.487 40.861 81.18 40.282 81.471 19.939 40.837z"/>
            <path d="m406.062 503.943-23.759-37.405-23.514-37.554-46.645-75.346-46.099-75.683-22.856-37.961-22.607-38.115 23.762 37.402 23.515 37.555 46.641 75.35 46.095 75.684 22.855 37.962z"/>
            <path d="M417.52 498.172 390.9 463.72 364.51 429.1l-52.422-69.516-51.913-69.897-25.775-35.083-25.546-35.259 26.622 34.448 26.392 34.623 52.419 69.518 51.91 69.899 25.775 35.083z"/>
            <path d="m428.976 492.402-29.472-31.5-29.265-31.693-58.198-63.682-57.732-64.11-28.696-32.207-28.487-32.4 29.476 31.499 29.264 31.69 58.195 63.686 57.727 64.114 28.7 32.207z"/>
            <path d="m440.433 486.632-32.323-28.554-32.137-28.765-63.97-57.854-63.55-58.32-31.623-29.325-31.433-29.538 32.326 28.552 32.135 28.763 63.969 57.858 63.546 58.322 31.624 29.327z"/>
            <path d="m451.89 480.862-35.172-25.614-35.003-25.839-69.745-52.027-69.369-52.528-34.551-26.444-34.38-26.67 35.173 25.612 35.005 25.837 69.74 52.031 69.366 52.533 34.551 26.443z"/>
            <path d="m463.346 475.091-38.018-22.68-37.871-22.914-75.517-46.206-75.188-46.733-37.479-23.555-37.333-23.796 38.02 22.674 37.871 22.917 75.515 46.207 75.187 46.74 37.48 23.555z"/>
            <path d="m474.803 469.321-40.863-19.75-40.742-19.997-81.286-40.385-81.01-40.936-40.407-20.666-40.282-20.915 40.865 19.747 40.741 19.997 81.285 40.388 81.007 40.94 40.408 20.666z"/>
            <path d="m486.26 463.55-43.712-16.827-43.608-17.083-87.06-34.566-86.83-35.136-43.334-17.772-43.232-18.03 43.713 16.826 43.61 17.081 87.056 34.57 86.829 35.142 43.335 17.77z"/>
            <path d="m497.716 457.78-46.56-13.91-46.48-14.171-92.832-28.75-92.65-29.334-46.26-14.874-46.178-15.138 46.563 13.906 46.478 14.17 92.83 28.757 92.65 29.337 46.26 14.874z"/>
            <path d="m509.173 452.01-49.413-10.998-49.352-11.262-98.606-22.938-98.47-23.528-49.182-11.974-49.123-12.242 49.415 10.994 49.352 11.26 98.604 22.944 98.467 23.534 49.186 11.973z"/>
            <path d="m520.63 446.24-52.27-8.089-52.226-8.355-104.382-17.128-104.284-17.72-52.107-9.074-52.061-9.34 52.27 8.085 52.226 8.355 104.382 17.133L416.46 427.83l52.106 9.073z"/>
            <path d="m532.087 440.47-55.13-5.183-55.103-5.452-110.16-11.317-110.099-11.913-55.026-6.168L91.571 394l55.13 5.18 55.102 5.45 110.16 11.322 110.097 11.917 55.028 6.17z"/>
            <path d="m543.543 434.7-57.994-2.282-57.98-2.546-115.94-5.51-115.91-6.102-57.946-3.264-57.932-3.53 57.995 2.275 57.98 2.546 115.94 5.516 115.91 6.106 57.946 3.264z"/>
            <path d="m555 428.93-60.86.62-60.861.355-121.722.297-121.721-.293-60.861-.356-60.861-.623 60.86-.624 60.862-.356 121.721-.293 121.722.297 60.86.356z"/>
        </g>
        <g transform="translate(308.908 59.457)">
            <mask id="3jue0dkt6b" fill="#fff">
                <use xlink:href="#cyc5vlntfa"/>
            </mask>
            <path fill="#8AFFA5" mask="url(#3jue0dkt6b)" d="m1.45 487.947-.706-60.993-.406-60.994L0 243.973l.334-121.987.406-60.993.71-60.994.712 60.994.408 60.993.334 121.987-.34 121.987-.406 60.994z"/>
        </g>
        <path fill="#8AFFA5" d="m321.816 541.634-3.601-58.054-3.3-58.068-6.133-116.162-5.466-116.194-2.493-58.11-2.191-58.125 3.602 58.055 3.302 58.068 6.128 116.162 5.46 116.196 2.495 58.109z"/>
        <path fill="#8AFFA5" d="m333.272 535.864-6.49-55.111-6.196-55.143-11.925-110.334-11.265-110.403-5.397-55.226-5.097-55.26 6.495 55.11 6.196 55.143 11.92 110.336 11.26 110.403 5.397 55.228z"/>
        <path fill="#8AFFA5" d="m344.73 530.094-9.38-52.167-9.087-52.213-17.719-104.507-17.064-104.612-8.3-52.348-8.005-52.394 9.382 52.164 9.088 52.216 17.713 104.506 17.06 104.615 8.301 52.345z"/>
        <path fill="#8AFFA5" d="m356.186 524.324-12.265-49.218-11.977-49.284-23.508-98.676-22.868-98.827-11.207-49.465-10.915-49.535 12.268 49.216 11.98 49.284 23.502 98.676 22.862 98.829 11.206 49.465z"/>
        <path fill="#8AFFA5" d="m367.643 518.554-15.145-46.267-14.868-46.354-29.295-92.842-28.672-93.04-14.113-46.59-13.833-46.677 15.15 46.265 14.868 46.353 29.29 92.847 28.667 93.039 14.114 46.59z"/>
        <path fill="#8AFFA5" d="m379.1 512.783-18.021-43.314-17.754-43.42-35.081-87.012-34.479-87.254-17.023-43.711-16.753-43.822 18.025 43.31 17.754 43.423 35.077 87.013 34.473 87.254 17.025 43.714z"/>
        <path fill="#8AFFA5" d="m390.556 507.013-20.893-40.36-20.634-40.486-40.865-81.18-40.288-81.468-19.938-40.837-19.678-40.967 20.897 40.357 20.636 40.487 40.86 81.181 40.283 81.47 19.938 40.838z"/>
        <path fill="#8AFFA5" d="m402.013 501.243-23.76-37.405-23.513-37.554-46.645-75.346-46.1-75.683-22.853-37.961-22.61-38.115 23.762 37.403 23.516 37.554 46.64 75.35 46.096 75.685 22.854 37.961z"/>
        <path fill="#8AFFA5" d="m413.47 495.473-26.618-34.452L360.46 426.4l-52.423-69.516-51.912-69.897-25.776-35.083-25.545-35.258 26.621 34.448 26.392 34.623 52.419 69.517 51.91 69.899 25.776 35.083z"/>
        <path fill="#8AFFA5" d="m424.926 489.702-29.472-31.5-29.264-31.692-58.199-63.683-57.731-64.11-28.697-32.207-28.487-32.4 29.477 31.5 29.264 31.691 58.195 63.685 57.727 64.113 28.699 32.207z"/>
        <path fill="#8AFFA5" d="m436.383 483.932-32.323-28.554-32.136-28.764-63.97-57.854-63.551-58.32-31.624-29.326-31.432-29.537 32.327 28.552 32.135 28.763 63.97 57.857 63.545 58.322 31.624 29.327z"/>
        <path fill="#8AFFA5" d="m447.84 478.162-35.172-25.613-35.002-25.84-69.745-52.026-69.37-52.529-34.55-26.443-34.381-26.67 35.174 25.611 35.004 25.838 69.74 52.03 69.366 52.533 34.552 26.443z"/>
        <path fill="#8AFFA5" d="m459.297 472.392-38.019-22.68-37.87-22.916-75.515-46.204-75.19-46.733-37.481-23.556-37.331-23.795 38.02 22.674 37.873 22.916 75.513 46.208 75.186 46.739 37.48 23.555z"/>
        <path fill="#8AFFA5" d="M470.753 466.622 429.89 446.87l-40.741-19.997-81.286-40.385-81.012-40.936-40.406-20.665-40.282-20.916 40.865 19.747 40.742 19.997 81.284 40.389 81.008 40.94 40.407 20.665z"/>
        <path fill="#8AFFA5" d="m482.21 460.851-43.712-16.827-43.61-17.084-87.058-34.565L221 357.238l-43.335-17.772-43.23-18.027 43.71 16.823 43.61 17.082 87.059 34.572 86.829 35.14 43.334 17.77z"/>
        <path fill="#8AFFA5" d="m493.667 455.081-46.56-13.91-46.48-14.172-92.833-28.75-92.65-29.334-46.26-14.874-46.177-15.138 46.56 13.907 46.48 14.17 92.83 28.756 92.65 29.337 46.26 14.874z"/>
        <path fill="#8AFFA5" d="m505.124 449.311-49.413-10.999-49.353-11.262-98.606-22.938-98.469-23.528L160.1 368.61l-49.122-12.242 49.415 10.995 49.352 11.26 98.604 22.944 98.467 23.534L456 437.073z"/>
        <path fill="#8AFFA5" d="m516.58 443.54-52.27-8.088-52.226-8.355-104.382-17.129-104.284-17.72-52.106-9.073-52.062-9.34 52.27 8.085 52.226 8.355 104.382 17.132 104.282 17.725 52.107 9.072z"/>
        <path fill="#8AFFA5" d="m528.037 437.77-55.13-5.183-55.102-5.451-110.16-11.318-110.1-11.913-55.025-6.167-54.999-6.439 55.13 5.18 55.103 5.45 110.16 11.322L418.01 425.17l55.028 6.169z"/>
        <path fill="#8AFFA5" d="m539.494 432-57.995-2.282-57.98-2.545-115.94-5.51-115.91-6.105-57.946-3.261-57.93-3.531 57.993 2.276 57.981 2.545 115.94 5.516 115.91 6.107 57.945 3.263z"/>
        <path fill="#8AFFA5" d="m550.95 426.23-60.86.62-60.86.356-121.722.297-121.722-.293-60.86-.356-60.861-.624 60.86-.624 60.861-.356 121.722-.293 121.721.297 60.86.356z"/>
        <g>
            <g fill-rule="nonzero">
                <path d="M411.88 276.24v11.298c-.23 11.96-12.739 19.182-24.375 22.729-13.135 2.696-22.878 4.158-37.671.278-6.52-2.063-17.268-5.997-21.537-12.477-6.152-7.731-3.403-13.349-4.016-22.035 0 3.672 1.316 7.346 4.016 10.74.208.21.347.349.485.555 5.368 6.27 13.184 9.536 21.121 11.921 12.178 2.711 21.849 3.574 37.602-.277 11.354-3.388 24.376-10.924 24.376-22.732z" fill="#007A73"/>
                <path d="M398.963 258.184c17.155 9.912 17.243 26.007.201 35.918-17.044 9.912-44.807 9.912-61.962 0-17.154-9.911-17.245-26.005-.201-35.917 17.042-9.911 44.807-9.912 61.962 0zm-56.313 32.75c14.148 8.175 36.976 8.174 51.032 0 14.056-8.174 13.982-21.407-.167-29.582-14.148-8.174-36.976-8.174-51.032 0-14.055 8.175-13.981 21.408.167 29.582z" fill="#00C99F"/>
                <path d="M393.515 261.352c14.149 8.175 14.223 21.408.167 29.582-14.056 8.174-36.884 8.175-51.032 0-14.148-8.174-14.222-21.407-.167-29.581 14.056-8.175 36.884-8.175 51.032 0z" fill="#E4FF44"/>
                <path d="m385.343 267.695-3.337 1.94c2.688 2.559 2.485 5.697-.814 7.615l-4.728-2.731c1.398-.813.856-2.506-1.214-3.702-2.058-1.19-5.006-1.513-6.404-.7-1.41.82-.842 2.528 1.215 3.717 4.701 2.716 5.27 6.825 1.246 9.165-3.312 1.926-8.724 2.054-13.146.504l-3.325 1.933-4.727-2.73 3.325-1.935c-2.701-2.565-2.511-5.71.8-7.636l4.728 2.73c-1.384.806-.817 2.514 1.24 3.703 2.071 1.196 4.994 1.504 6.378.7 1.41-.82.856-2.506-1.215-3.703-4.714-2.723-5.27-6.84-1.246-9.179 3.3-1.919 8.724-2.04 13.16-.482l3.337-1.94 4.727 2.73z" fill="#00C99F"/>
            </g>
            <path d="m455.71 365.78-.494 168.013c0 3.655-1.381 6.221-3.454 7.408l-13.917 8.097c2.073-1.186 3.455-3.752 3.455-7.408l.494-168.012c0-7.408-5.33-16.494-11.745-20.246L174.719 206.07c-3.258-1.876-6.219-2.074-8.39-.791l13.916-8.098c2.172-1.282 5.133-1.09 8.291.791l255.43 147.564c6.414 3.752 11.744 12.838 11.744 20.246z" fill="#39F46A" fill-rule="nonzero"/>
            <g transform="translate(162.436 204.482)">
                <mask id="bcdovr19cd" fill="#fff">
                    <use xlink:href="#zogav5ueyc"/>
                </mask>
                <use fill="#BEF621" fill-rule="nonzero" xlink:href="#zogav5ueyc"/>
                <path fill="#E4FF44" fill-rule="nonzero" mask="url(#bcdovr19cd)" d="M37.738 57.06v1.93L.736 38.224v-1.93z"/>
                <path d="M38.46 54.524c1.971 1.139 3.564 3.9 3.557 6.167-.006 2.267-1.61 3.18-3.58 2.042-.884-.51-1.69-1.347-2.312-2.317-.766-1.197-1.25-2.599-1.246-3.85.003-1.252.494-2.09 1.264-2.399.625-.25 1.434-.154 2.317.357z" fill="#39F46A" fill-rule="nonzero" mask="url(#bcdovr19cd)"/>
                <path fill="#E4FF44" fill-rule="nonzero" mask="url(#bcdovr19cd)" d="M37.738 93.812v1.93L.736 74.978v-1.93z"/>
                <path d="M38.46 91.276c1.971 1.14 3.564 3.9 3.557 6.167-.006 2.267-1.61 3.181-3.58 2.042-.884-.51-1.69-1.346-2.312-2.317-.766-1.196-1.25-2.598-1.246-3.85.003-1.251.494-2.089 1.264-2.398.625-.251 1.434-.154 2.317.356z" fill="#39F46A" fill-rule="nonzero" mask="url(#bcdovr19cd)"/>
                <path fill="#E4FF44" fill-rule="nonzero" mask="url(#bcdovr19cd)" d="M37.738 130.565v1.93L.736 111.73v-1.931z"/>
                <path d="M38.46 128.029c1.971 1.139 3.564 3.9 3.557 6.167-.006 2.267-1.61 3.18-3.58 2.042-.884-.51-1.69-1.347-2.312-2.317-.766-1.197-1.25-2.598-1.246-3.85.003-1.252.494-2.09 1.264-2.398.625-.252 1.434-.155 2.317.356z" fill="#39F46A" fill-rule="nonzero" mask="url(#bcdovr19cd)"/>
            </g>
            <path fill="#FFF" fill-rule="nonzero" d="m245.755 335.808-.082 37.295L353 435.11l.081-37.29z"/>
            <path fill="#00C99F" fill-rule="nonzero" d="m253.494 349.261-.039 19.355 91.8 53.042.044-19.35z"/>
            <g>
                <path d="m250.518 419.424 5.357 9.28c5.48 9.933-1.542 21.895-9.576 30.418-9.69 8.547-17.132 14.444-31.325 18.389-6.421 1.45-17.262 3.4-23.899.136-8.803-3.384-9.171-9.323-13.802-16.161 1.74 3.015 4.582 5.4 8.447 6.884.272.073.454.12.668.223 7.455 2.56 15.53 1.476 23.288-.392 11.454-3.644 19.939-7.599 31.267-18.356 7.874-8.256 15.174-20.723 9.575-30.42z" fill="#007A73" fill-rule="nonzero"/>
                <path d="M231.17 410.823c19.025-.13 26.73 13.046 17.2 29.402-9.533 16.357-32.715 29.742-51.74 29.872-19.024.13-26.73-13.044-17.199-29.402 9.531-16.355 32.715-29.742 51.74-29.872zm-31.493 54.045c15.69-.107 34.752-11.112 42.613-24.602 7.86-13.49 1.524-24.322-14.166-24.215-15.69.108-34.752 11.113-42.613 24.603-7.86 13.49-1.524 24.322 14.166 24.214z" fill="#00C99F" fill-rule="nonzero"/>
                <g transform="rotate(-30 909.236 -104.055)">
                    <mask id="4ehz31o0lf" fill="#fff">
                        <use xlink:href="#axsrehy08e"/>
                    </mask>
                    <use fill="#E4FF44" fill-rule="nonzero" xlink:href="#axsrehy08e"/>
                    <g mask="url(#4ehz31o0lf)">
                        <g opacity=".292">
                            <path d="M53.395 4.963c-10.353 0-18.777 5.569-18.777 12.413 0 6.845 8.424 12.413 18.777 12.413 10.353 0 18.775-5.568 18.775-12.413 0-6.844-8.422-12.413-18.775-12.413m0 25.443c-10.868 0-19.71-5.845-19.71-13.03 0-7.184 8.842-13.03 19.71-13.03 10.867 0 19.708 5.846 19.708 13.03 0 7.185-8.84 13.03-19.708 13.03" fill="#95FAC2"/>
                            <path d="M48.87 13.16c-10.354 0-18.778 5.568-18.778 12.412 0 6.845 8.424 12.413 18.777 12.413 10.353 0 18.776-5.568 18.776-12.413 0-6.844-8.423-12.413-18.776-12.413m0 25.443c-10.868 0-19.71-5.845-19.71-13.03 0-7.184 8.842-13.03 19.71-13.03s19.71 5.846 19.71 13.03c0 7.185-8.842 13.03-19.71 13.03" fill="#95FAC2"/>
                            <path d="M37.611 17.48c-10.353 0-18.776 5.568-18.776 12.413 0 6.844 8.423 12.412 18.776 12.412s18.777-5.568 18.777-12.412c0-6.845-8.424-12.413-18.777-12.413m0 25.442c-10.867 0-19.71-5.845-19.71-13.03 0-7.184 8.843-13.029 19.71-13.029 10.868 0 19.71 5.845 19.71 13.03 0 7.184-8.842 13.029-19.71 13.029" fill="#95FAC2"/>
                            <path d="M24.44 15.948c-10.353 0-18.776 5.568-18.776 12.413 0 6.844 8.423 12.412 18.776 12.412 10.354 0 18.776-5.568 18.776-12.412 0-6.845-8.422-12.413-18.776-12.413m0 25.442c-10.868 0-19.71-5.845-19.71-13.03 0-7.184 8.842-13.03 19.71-13.03s19.709 5.846 19.709 13.03c0 7.185-8.841 13.03-19.71 13.03" fill="#95FAC2"/>
                            <path d="M16.114 9.402c-10.354 0-18.777 5.569-18.777 12.413 0 6.845 8.423 12.413 18.777 12.413 10.353 0 18.775-5.568 18.775-12.413 0-6.844-8.422-12.413-18.775-12.413m0 25.442c-10.869 0-19.71-5.845-19.71-13.029 0-7.185 8.841-13.03 19.71-13.03 10.867 0 19.709 5.845 19.709 13.03 0 7.184-8.842 13.029-19.71 13.029" fill="#95FAC2"/>
                            <path d="M16.114.525C5.76.525-2.663 6.093-2.663 12.938c0 6.844 8.423 12.412 18.777 12.412 10.353 0 18.775-5.568 18.775-12.412C34.89 6.093 26.467.525 16.114.525m0 25.442c-10.869 0-19.71-5.845-19.71-13.03 0-7.184 8.841-13.03 19.71-13.03 10.867 0 19.709 5.846 19.709 13.03 0 7.185-8.842 13.03-19.71 13.03" fill="#95FAC2"/>
                            <path d="M24.44-6.021C14.087-6.021 5.664-.452 5.664 6.392c0 6.845 8.423 12.413 18.776 12.413 10.354 0 18.776-5.568 18.776-12.413 0-6.844-8.422-12.413-18.776-12.413m0 25.442c-10.868 0-19.71-5.844-19.71-13.029s8.842-13.03 19.71-13.03S44.149-.793 44.149 6.392s-8.841 13.03-19.71 13.03" fill="#95FAC2"/>
                            <g transform="translate(17.902 -8.17)">
                                <mask id="fj31hvh6yh" fill="#fff">
                                    <use xlink:href="#55nuhaih5g"/>
                                </mask>
                                <path d="M19.71.617C9.355.617.932 6.185.932 13.029c0 6.845 8.423 12.413 18.776 12.413 10.354 0 18.777-5.568 18.777-12.413C38.486 6.185 30.063.617 19.71.617m0 25.442C8.842 26.059 0 20.214 0 13.029 0 5.845 8.842 0 19.71 0c10.867 0 19.709 5.845 19.709 13.03 0 7.184-8.842 13.029-19.71 13.029" fill="#95FAC2" mask="url(#fj31hvh6yh)"/>
                            </g>
                            <path d="M48.87-3.233c-10.354 0-18.778 5.569-18.778 12.413 0 6.845 8.424 12.413 18.777 12.413 10.353 0 18.776-5.568 18.776-12.413 0-6.844-8.423-12.413-18.776-12.413m0 25.443c-10.868 0-19.71-5.845-19.71-13.03S38.001-3.85 48.87-3.85 68.58 1.995 68.58 9.18s-8.842 13.03-19.71 13.03" fill="#95FAC2"/>
                            <path d="M53.395 4.963c-10.353 0-18.777 5.569-18.777 12.413 0 6.845 8.424 12.413 18.777 12.413 10.353 0 18.775-5.568 18.775-12.413 0-6.844-8.422-12.413-18.775-12.413m0 25.443c-10.868 0-19.71-5.845-19.71-13.03 0-7.184 8.842-13.03 19.71-13.03 10.867 0 19.708 5.846 19.708 13.03 0 7.185-8.84 13.03-19.708 13.03" fill="#95FAC2"/>
                        </g>
                        <g fill-opacity=".7" fill="#00C99F">
                            <path d="M48.615 9.288c-7.698 0-13.962 4.069-13.962 9.07 0 5.003 6.264 9.071 13.962 9.071 7.699 0 13.962-4.068 13.962-9.07 0-5.002-6.263-9.071-13.962-9.071m0 18.592c-8.081 0-14.655-4.271-14.655-9.521 0-5.25 6.574-9.522 14.655-9.522 8.08 0 14.655 4.271 14.655 9.522 0 5.25-6.574 9.521-14.655 9.521"/>
                            <path d="M45.25 15.277c-7.699 0-13.963 4.07-13.963 9.071 0 5.002 6.264 9.07 13.963 9.07 7.698 0 13.962-4.068 13.962-9.07 0-5.001-6.264-9.07-13.962-9.07m0 18.592c-8.081 0-14.656-4.272-14.656-9.522s6.575-9.522 14.656-9.522 14.655 4.272 14.655 9.522-6.574 9.522-14.655 9.522"/>
                            <path d="M36.878 18.434c-7.698 0-13.962 4.07-13.962 9.071 0 5.002 6.264 9.07 13.962 9.07 7.7 0 13.963-4.068 13.963-9.07 0-5.001-6.264-9.07-13.963-9.07m0 18.592c-8.08 0-14.655-4.272-14.655-9.522s6.574-9.521 14.655-9.521 14.656 4.27 14.656 9.521c0 5.25-6.575 9.522-14.656 9.522"/>
                            <path d="M27.084 17.315c-7.698 0-13.961 4.07-13.961 9.07 0 5.003 6.263 9.071 13.961 9.071 7.7 0 13.962-4.068 13.962-9.07 0-5.002-6.263-9.071-13.962-9.071m0 18.592c-8.08 0-14.655-4.271-14.655-9.521 0-5.25 6.575-9.522 14.655-9.522 8.081 0 14.656 4.272 14.656 9.522s-6.575 9.521-14.656 9.521"/>
                            <path d="M20.893 12.532c-7.698 0-13.962 4.069-13.962 9.07 0 5.002 6.264 9.07 13.962 9.07 7.699 0 13.962-4.068 13.962-9.07 0-5.001-6.263-9.07-13.962-9.07m0 18.592c-8.081 0-14.655-4.272-14.655-9.522s6.574-9.521 14.655-9.521c8.08 0 14.655 4.27 14.655 9.521 0 5.25-6.574 9.522-14.655 9.522"/>
                            <path d="M20.893 6.044c-7.698 0-13.962 4.07-13.962 9.071 0 5.002 6.264 9.07 13.962 9.07 7.699 0 13.962-4.068 13.962-9.07 0-5.002-6.263-9.07-13.962-9.07m0 18.591c-8.081 0-14.655-4.27-14.655-9.52 0-5.251 6.574-9.523 14.655-9.523 8.08 0 14.655 4.272 14.655 9.522s-6.574 9.521-14.655 9.521"/>
                            <path d="M27.084 1.26c-7.698 0-13.961 4.07-13.961 9.072 0 5.002 6.263 9.07 13.961 9.07 7.7 0 13.962-4.068 13.962-9.07 0-5.002-6.263-9.071-13.962-9.071m0 18.592c-8.08 0-14.655-4.271-14.655-9.521 0-5.25 6.575-9.522 14.655-9.522 8.081 0 14.656 4.271 14.656 9.522 0 5.25-6.575 9.521-14.656 9.521"/>
                            <path d="M36.878.141c-7.698 0-13.962 4.07-13.962 9.071 0 5.002 6.264 9.07 13.962 9.07 7.7 0 13.963-4.068 13.963-9.07 0-5.001-6.264-9.07-13.963-9.07m0 18.591c-8.08 0-14.655-4.27-14.655-9.521 0-5.25 6.574-9.522 14.655-9.522s14.656 4.272 14.656 9.522-6.575 9.521-14.656 9.521"/>
                            <path d="M45.25 3.299c-7.699 0-13.963 4.068-13.963 9.07 0 5.002 6.264 9.07 13.963 9.07 7.698 0 13.962-4.068 13.962-9.07 0-5.002-6.264-9.07-13.962-9.07m0 18.592c-8.081 0-14.656-4.272-14.656-9.522s6.575-9.521 14.656-9.521 14.655 4.27 14.655 9.521c0 5.25-6.574 9.522-14.655 9.522"/>
                            <path d="M48.615 9.288c-7.698 0-13.962 4.069-13.962 9.07 0 5.003 6.264 9.071 13.962 9.071 7.699 0 13.962-4.068 13.962-9.07 0-5.002-6.263-9.071-13.962-9.071m0 18.592c-8.081 0-14.655-4.271-14.655-9.521 0-5.25 6.574-9.522 14.655-9.522 8.08 0 14.655 4.271 14.655 9.522 0 5.25-6.574 9.521-14.655 9.521"/>
                        </g>
                    </g>
                </g>
            </g>
            <g>
                <path d="M263.43 526.22v10.715c-.221 11.342-12.283 18.19-23.502 21.555-12.665 2.557-22.059 3.943-36.322.263-6.286-1.956-16.65-5.687-20.765-11.832-5.933-7.332-3.282-12.66-3.873-20.897 0 3.482 1.268 6.967 3.873 10.186.2.199.333.33.467.526 5.176 5.945 12.711 9.043 20.364 11.305 11.742 2.571 21.067 3.389 36.256-.263 10.947-3.213 23.503-10.36 23.503-21.558z" fill="#007A73" fill-rule="nonzero"/>
                <path d="M251.17 543.16c-16.434 9.4-43.203 9.4-59.744 0-16.54-9.4-16.627-24.662-.194-34.062 16.432-9.399 43.203-9.4 59.744 0 16.54 9.399 16.625 24.662.194 34.061zm-54.49-3.005c13.64 7.753 35.651 7.752 49.204 0 13.552-7.752 13.48-20.3-.161-28.053-13.642-7.752-35.652-7.752-49.205 0-13.552 7.752-13.48 20.301.161 28.053z" fill="#00C99F" fill-rule="nonzero"/>
                <g transform="translate(186.4 506.288)">
                    <mask id="eif7vsl4zj" fill="#fff">
                        <use xlink:href="#8rjsqma4fi"/>
                    </mask>
                    <use fill="#E4FF44" fill-rule="nonzero" xlink:href="#8rjsqma4fi"/>
                    <g mask="url(#eif7vsl4zj)">
                        <g opacity=".292">
                            <path d="M53.395 4.963c-10.353 0-18.777 5.569-18.777 12.413 0 6.845 8.424 12.413 18.777 12.413 10.353 0 18.775-5.568 18.775-12.413 0-6.844-8.422-12.413-18.775-12.413m0 25.443c-10.868 0-19.71-5.845-19.71-13.03 0-7.184 8.842-13.03 19.71-13.03 10.867 0 19.708 5.846 19.708 13.03 0 7.185-8.84 13.03-19.708 13.03" fill="#95FAC2"/>
                            <path d="M48.87 13.16c-10.354 0-18.778 5.568-18.778 12.412 0 6.845 8.424 12.413 18.777 12.413 10.353 0 18.776-5.568 18.776-12.413 0-6.844-8.423-12.413-18.776-12.413m0 25.443c-10.868 0-19.71-5.845-19.71-13.03 0-7.184 8.842-13.03 19.71-13.03s19.71 5.846 19.71 13.03c0 7.185-8.842 13.03-19.71 13.03" fill="#95FAC2"/>
                            <path d="M37.611 17.48c-10.353 0-18.776 5.568-18.776 12.413 0 6.844 8.423 12.412 18.776 12.412s18.777-5.568 18.777-12.412c0-6.845-8.424-12.413-18.777-12.413m0 25.442c-10.867 0-19.71-5.845-19.71-13.03 0-7.184 8.843-13.029 19.71-13.029 10.868 0 19.71 5.845 19.71 13.03 0 7.184-8.842 13.029-19.71 13.029" fill="#95FAC2"/>
                            <path d="M24.44 15.948c-10.353 0-18.776 5.568-18.776 12.413 0 6.844 8.423 12.412 18.776 12.412 10.354 0 18.776-5.568 18.776-12.412 0-6.845-8.422-12.413-18.776-12.413m0 25.442c-10.868 0-19.71-5.845-19.71-13.03 0-7.184 8.842-13.03 19.71-13.03s19.709 5.846 19.709 13.03c0 7.185-8.841 13.03-19.71 13.03" fill="#95FAC2"/>
                            <path d="M16.114 9.402c-10.354 0-18.777 5.569-18.777 12.413 0 6.845 8.423 12.413 18.777 12.413 10.353 0 18.775-5.568 18.775-12.413 0-6.844-8.422-12.413-18.775-12.413m0 25.442c-10.869 0-19.71-5.845-19.71-13.029 0-7.185 8.841-13.03 19.71-13.03 10.867 0 19.709 5.845 19.709 13.03 0 7.184-8.842 13.029-19.71 13.029" fill="#95FAC2"/>
                            <path d="M16.114.525C5.76.525-2.663 6.093-2.663 12.938c0 6.844 8.423 12.412 18.777 12.412 10.353 0 18.775-5.568 18.775-12.412C34.89 6.093 26.467.525 16.114.525m0 25.442c-10.869 0-19.71-5.845-19.71-13.03 0-7.184 8.841-13.03 19.71-13.03 10.867 0 19.709 5.846 19.709 13.03 0 7.185-8.842 13.03-19.71 13.03" fill="#95FAC2"/>
                            <path d="M24.44-6.021C14.087-6.021 5.664-.452 5.664 6.392c0 6.845 8.423 12.413 18.776 12.413 10.354 0 18.776-5.568 18.776-12.413 0-6.844-8.422-12.413-18.776-12.413m0 25.442c-10.868 0-19.71-5.844-19.71-13.029s8.842-13.03 19.71-13.03S44.149-.793 44.149 6.392s-8.841 13.03-19.71 13.03" fill="#95FAC2"/>
                            <g transform="translate(17.902 -8.17)">
                                <mask id="mgkm3l0oyl" fill="#fff">
                                    <use xlink:href="#36ia8pjuyk"/>
                                </mask>
                                <path d="M19.71.617C9.355.617.932 6.185.932 13.029c0 6.845 8.423 12.413 18.776 12.413 10.354 0 18.777-5.568 18.777-12.413C38.486 6.185 30.063.617 19.71.617m0 25.442C8.842 26.059 0 20.214 0 13.029 0 5.845 8.842 0 19.71 0c10.867 0 19.709 5.845 19.709 13.03 0 7.184-8.842 13.029-19.71 13.029" fill="#95FAC2" mask="url(#mgkm3l0oyl)"/>
                            </g>
                            <path d="M48.87-3.233c-10.354 0-18.778 5.569-18.778 12.413 0 6.845 8.424 12.413 18.777 12.413 10.353 0 18.776-5.568 18.776-12.413 0-6.844-8.423-12.413-18.776-12.413m0 25.443c-10.868 0-19.71-5.845-19.71-13.03S38.001-3.85 48.87-3.85 68.58 1.995 68.58 9.18s-8.842 13.03-19.71 13.03" fill="#95FAC2"/>
                            <path d="M53.395 4.963c-10.353 0-18.777 5.569-18.777 12.413 0 6.845 8.424 12.413 18.777 12.413 10.353 0 18.775-5.568 18.775-12.413 0-6.844-8.422-12.413-18.775-12.413m0 25.443c-10.868 0-19.71-5.845-19.71-13.03 0-7.184 8.842-13.03 19.71-13.03 10.867 0 19.708 5.846 19.708 13.03 0 7.185-8.84 13.03-19.708 13.03" fill="#95FAC2"/>
                        </g>
                        <g fill-opacity=".5" fill="#00C99F">
                            <path d="M48.615 9.288c-7.698 0-13.962 4.069-13.962 9.07 0 5.003 6.264 9.071 13.962 9.071 7.699 0 13.962-4.068 13.962-9.07 0-5.002-6.263-9.071-13.962-9.071m0 18.592c-8.081 0-14.655-4.271-14.655-9.521 0-5.25 6.574-9.522 14.655-9.522 8.08 0 14.655 4.271 14.655 9.522 0 5.25-6.574 9.521-14.655 9.521"/>
                            <path d="M45.25 15.277c-7.699 0-13.963 4.07-13.963 9.071 0 5.002 6.264 9.07 13.963 9.07 7.698 0 13.962-4.068 13.962-9.07 0-5.001-6.264-9.07-13.962-9.07m0 18.592c-8.081 0-14.656-4.272-14.656-9.522s6.575-9.522 14.656-9.522 14.655 4.272 14.655 9.522-6.574 9.522-14.655 9.522"/>
                            <path d="M36.878 18.434c-7.698 0-13.962 4.07-13.962 9.071 0 5.002 6.264 9.07 13.962 9.07 7.7 0 13.963-4.068 13.963-9.07 0-5.001-6.264-9.07-13.963-9.07m0 18.592c-8.08 0-14.655-4.272-14.655-9.522s6.574-9.521 14.655-9.521 14.656 4.27 14.656 9.521c0 5.25-6.575 9.522-14.656 9.522"/>
                            <path d="M27.084 17.315c-7.698 0-13.961 4.07-13.961 9.07 0 5.003 6.263 9.071 13.961 9.071 7.7 0 13.962-4.068 13.962-9.07 0-5.002-6.263-9.071-13.962-9.071m0 18.592c-8.08 0-14.655-4.271-14.655-9.521 0-5.25 6.575-9.522 14.655-9.522 8.081 0 14.656 4.272 14.656 9.522s-6.575 9.521-14.656 9.521"/>
                            <path d="M20.893 12.532c-7.698 0-13.962 4.069-13.962 9.07 0 5.002 6.264 9.07 13.962 9.07 7.699 0 13.962-4.068 13.962-9.07 0-5.001-6.263-9.07-13.962-9.07m0 18.592c-8.081 0-14.655-4.272-14.655-9.522s6.574-9.521 14.655-9.521c8.08 0 14.655 4.27 14.655 9.521 0 5.25-6.574 9.522-14.655 9.522"/>
                            <path d="M20.893 6.044c-7.698 0-13.962 4.07-13.962 9.071 0 5.002 6.264 9.07 13.962 9.07 7.699 0 13.962-4.068 13.962-9.07 0-5.002-6.263-9.07-13.962-9.07m0 18.591c-8.081 0-14.655-4.27-14.655-9.52 0-5.251 6.574-9.523 14.655-9.523 8.08 0 14.655 4.272 14.655 9.522s-6.574 9.521-14.655 9.521"/>
                            <path d="M27.084 1.26c-7.698 0-13.961 4.07-13.961 9.072 0 5.002 6.263 9.07 13.961 9.07 7.7 0 13.962-4.068 13.962-9.07 0-5.002-6.263-9.071-13.962-9.071m0 18.592c-8.08 0-14.655-4.271-14.655-9.521 0-5.25 6.575-9.522 14.655-9.522 8.081 0 14.656 4.271 14.656 9.522 0 5.25-6.575 9.521-14.656 9.521"/>
                            <path d="M36.878.141c-7.698 0-13.962 4.07-13.962 9.071 0 5.002 6.264 9.07 13.962 9.07 7.7 0 13.963-4.068 13.963-9.07 0-5.001-6.264-9.07-13.963-9.07m0 18.591c-8.08 0-14.655-4.27-14.655-9.521 0-5.25 6.574-9.522 14.655-9.522s14.656 4.272 14.656 9.522-6.575 9.521-14.656 9.521"/>
                            <path d="M45.25 3.299c-7.699 0-13.963 4.068-13.963 9.07 0 5.002 6.264 9.07 13.963 9.07 7.698 0 13.962-4.068 13.962-9.07 0-5.002-6.264-9.07-13.962-9.07m0 18.592c-8.081 0-14.656-4.272-14.656-9.522s6.575-9.521 14.656-9.521 14.655 4.27 14.655 9.521c0 5.25-6.574 9.522-14.655 9.522"/>
                            <path d="M48.615 9.288c-7.698 0-13.962 4.069-13.962 9.07 0 5.003 6.264 9.071 13.962 9.071 7.699 0 13.962-4.068 13.962-9.07 0-5.002-6.263-9.071-13.962-9.071m0 18.592c-8.081 0-14.655-4.271-14.655-9.521 0-5.25 6.574-9.522 14.655-9.522 8.08 0 14.655 4.271 14.655 9.522 0 5.25-6.574 9.521-14.655 9.521"/>
                        </g>
                    </g>
                </g>
            </g>
            <g transform="translate(255.538 365.786)">
                <mask id="pogyiqi2pn" fill="#fff">
                    <use xlink:href="#tbbuoa5qjm"/>
                </mask>
                <use fill="#E4FF44" fill-rule="nonzero" xlink:href="#tbbuoa5qjm"/>
                <g mask="url(#pogyiqi2pn)">
                    <g opacity=".292">
                        <path d="M12.843 31.203c10.353 0 18.777-5.568 18.777-12.413 0-6.845-8.424-12.413-18.777-12.413-10.353 0-18.775 5.568-18.775 12.413 0 6.845 8.422 12.413 18.775 12.413m0-25.442c10.869 0 19.71 5.844 19.71 13.03 0 7.184-8.841 13.029-19.71 13.029-10.867 0-19.708-5.845-19.708-13.03S1.976 5.76 12.843 5.76" fill="#95FAC2"/>
                        <path d="M17.369 23.007c10.353 0 18.777-5.568 18.777-12.413 0-6.844-8.424-12.413-18.777-12.413-10.353 0-18.776 5.569-18.776 12.413 0 6.845 8.423 12.413 18.776 12.413m0-25.442c10.868 0 19.71 5.844 19.71 13.029 0 7.184-8.842 13.03-19.71 13.03S-2.34 17.778-2.34 10.594c0-7.185 8.841-13.03 19.709-13.03" fill="#95FAC2"/>
                        <path d="M28.627 18.687c10.354 0 18.777-5.569 18.777-12.413 0-6.845-8.423-12.413-18.777-12.413C18.274-6.139 9.85-.57 9.85 6.274c0 6.844 8.424 12.413 18.777 12.413m0-25.442c10.868 0 19.71 5.844 19.71 13.029s-8.842 13.03-19.71 13.03S8.918 13.459 8.918 6.274s8.841-13.03 19.71-13.03" fill="#95FAC2"/>
                        <path d="M41.799 20.219c10.352 0 18.776-5.569 18.776-12.413 0-6.845-8.424-12.413-18.776-12.413-10.354 0-18.777 5.568-18.777 12.413 0 6.844 8.423 12.413 18.777 12.413m0-25.443c10.867 0 19.709 5.845 19.709 13.03 0 7.184-8.842 13.03-19.71 13.03-10.867 0-19.709-5.846-19.709-13.03 0-7.185 8.842-13.03 19.71-13.03" fill="#95FAC2"/>
                        <path d="M50.125 26.764c10.353 0 18.776-5.568 18.776-12.412 0-6.845-8.423-12.413-18.776-12.413S31.349 7.507 31.349 14.352c0 6.844 8.423 12.412 18.776 12.412m0-25.442c10.868 0 19.709 5.845 19.709 13.03 0 7.184-8.841 13.03-19.71 13.03-10.867 0-19.708-5.846-19.708-13.03 0-7.185 8.841-13.03 19.709-13.03" fill="#95FAC2"/>
                        <path d="M50.125 35.642c10.353 0 18.776-5.569 18.776-12.413s-8.423-12.413-18.776-12.413-18.776 5.569-18.776 12.413 8.423 12.413 18.776 12.413m0-25.442c10.868 0 19.709 5.844 19.709 13.029s-8.841 13.03-19.71 13.03c-10.867 0-19.708-5.845-19.708-13.03s8.841-13.03 19.709-13.03" fill="#95FAC2"/>
                        <path d="M41.799 42.188c10.352 0 18.776-5.57 18.776-12.414 0-6.844-8.424-12.412-18.776-12.412-10.354 0-18.777 5.568-18.777 12.412 0 6.845 8.423 12.414 18.777 12.414m0-25.443c10.867 0 19.709 5.845 19.709 13.03 0 7.184-8.842 13.03-19.71 13.03-10.867 0-19.709-5.846-19.709-13.03 0-7.185 8.842-13.03 19.71-13.03" fill="#95FAC2"/>
                        <g transform="rotate(180 24.168 22.168)">
                            <mask id="2stedtx7np" fill="#fff">
                                <use xlink:href="#parh96jgeo"/>
                            </mask>
                            <path d="M19.71.617C9.355.617.932 6.185.932 13.029c0 6.845 8.423 12.413 18.776 12.413 10.354 0 18.777-5.568 18.777-12.413C38.486 6.185 30.063.617 19.71.617m0 25.442C8.842 26.059 0 20.214 0 13.029 0 5.845 8.842 0 19.71 0c10.867 0 19.709 5.845 19.709 13.03 0 7.184-8.842 13.029-19.71 13.029" fill="#95FAC2" mask="url(#2stedtx7np)"/>
                        </g>
                        <path d="M17.369 39.4c10.353 0 18.777-5.57 18.777-12.413 0-6.845-8.424-12.413-18.777-12.413-10.353 0-18.776 5.568-18.776 12.413 0 6.844 8.423 12.412 18.776 12.412m0-25.442c10.868 0 19.71 5.845 19.71 13.03 0 7.184-8.842 13.029-19.71 13.029S-2.34 34.171-2.34 26.986c0-7.184 8.841-13.03 19.709-13.03" fill="#95FAC2"/>
                        <path d="M12.843 31.203c10.353 0 18.777-5.568 18.777-12.413 0-6.845-8.424-12.413-18.777-12.413-10.353 0-18.775 5.568-18.775 12.413 0 6.845 8.422 12.413 18.775 12.413m0-25.442c10.869 0 19.71 5.844 19.71 13.03 0 7.184-8.841 13.029-19.71 13.029-10.867 0-19.708-5.845-19.708-13.03S1.976 5.76 12.843 5.76" fill="#95FAC2"/>
                    </g>
                    <g fill="#00C99F" fill-opacity=".7">
                        <path d="M17.623 26.879c7.699 0 13.962-4.07 13.962-9.071 0-5.002-6.263-9.07-13.962-9.07-7.698 0-13.961 4.068-13.961 9.07 0 5.002 6.263 9.07 13.961 9.07m0-18.592c8.081 0 14.656 4.272 14.656 9.522s-6.575 9.522-14.656 9.522c-8.08 0-14.655-4.272-14.655-9.522s6.575-9.522 14.655-9.522"/>
                        <path d="M20.989 20.89c7.698 0 13.962-4.07 13.962-9.072 0-5.001-6.264-9.07-13.962-9.07-7.699 0-13.962 4.069-13.962 9.07 0 5.002 6.263 9.071 13.962 9.071m0-18.592c8.08 0 14.655 4.271 14.655 9.521 0 5.25-6.574 9.522-14.655 9.522-8.082 0-14.656-4.271-14.656-9.522 0-5.25 6.574-9.521 14.656-9.521"/>
                        <path d="M29.36 17.732c7.699 0 13.962-4.07 13.962-9.07 0-5.003-6.263-9.071-13.962-9.071S15.398 3.659 15.398 8.66c0 5.002 6.263 9.071 13.962 9.071m0-18.592c8.081 0 14.655 4.271 14.655 9.521 0 5.25-6.574 9.522-14.655 9.522S14.704 13.912 14.704 8.66c0-5.25 6.575-9.521 14.656-9.521"/>
                        <path d="M39.154 18.852c7.698 0 13.962-4.07 13.962-9.071 0-5.002-6.264-9.07-13.962-9.07-7.7 0-13.962 4.068-13.962 9.07 0 5.001 6.263 9.07 13.962 9.07m0-18.592c8.08 0 14.655 4.272 14.655 9.522s-6.574 9.522-14.655 9.522c-8.08 0-14.656-4.272-14.656-9.522S31.073.259 39.154.259"/>
                        <path d="M45.345 23.635c7.699 0 13.962-4.07 13.962-9.071 0-5.002-6.263-9.07-13.962-9.07-7.698 0-13.961 4.068-13.961 9.07 0 5.002 6.263 9.071 13.961 9.071m0-18.592c8.081 0 14.656 4.271 14.656 9.521 0 5.25-6.575 9.522-14.656 9.522-8.08 0-14.655-4.271-14.655-9.522 0-5.25 6.575-9.521 14.655-9.521"/>
                        <path d="M45.345 30.122c7.699 0 13.962-4.069 13.962-9.07 0-5.002-6.263-9.071-13.962-9.071-7.698 0-13.961 4.069-13.961 9.07 0 5.002 6.263 9.071 13.961 9.071m0-18.592c8.081 0 14.656 4.271 14.656 9.521 0 5.25-6.575 9.522-14.656 9.522-8.08 0-14.655-4.271-14.655-9.522 0-5.25 6.575-9.52 14.655-9.52"/>
                        <path d="M39.154 34.906c7.698 0 13.962-4.07 13.962-9.072 0-5.001-6.264-9.07-13.962-9.07-7.7 0-13.962 4.069-13.962 9.07 0 5.002 6.263 9.072 13.962 9.072m0-18.593c8.08 0 14.655 4.272 14.655 9.521 0 5.251-6.574 9.523-14.655 9.523-8.08 0-14.656-4.272-14.656-9.523 0-5.25 6.575-9.52 14.656-9.52"/>
                        <path d="M29.36 36.025c7.699 0 13.962-4.07 13.962-9.07 0-5.002-6.263-9.071-13.962-9.071s-13.962 4.069-13.962 9.07c0 5.002 6.263 9.071 13.962 9.071m0-18.592c8.081 0 14.655 4.271 14.655 9.522 0 5.25-6.574 9.521-14.655 9.521s-14.656-4.271-14.656-9.521c0-5.25 6.575-9.522 14.656-9.522"/>
                        <path d="M20.989 32.868c7.698 0 13.962-4.069 13.962-9.07 0-5.002-6.264-9.071-13.962-9.071-7.699 0-13.962 4.069-13.962 9.07 0 5.002 6.263 9.071 13.962 9.071m0-18.592c8.08 0 14.655 4.271 14.655 9.521 0 5.25-6.574 9.522-14.655 9.522-8.082 0-14.656-4.271-14.656-9.522 0-5.25 6.574-9.521 14.656-9.521"/>
                        <path d="M17.623 26.879c7.699 0 13.962-4.07 13.962-9.071 0-5.002-6.263-9.07-13.962-9.07-7.698 0-13.961 4.068-13.961 9.07 0 5.002 6.263 9.07 13.961 9.07m0-18.592c8.081 0 14.656 4.272 14.656 9.522s-6.575 9.522-14.656 9.522c-8.08 0-14.655-4.272-14.655-9.522s6.575-9.522 14.655-9.522"/>
                    </g>
                </g>
            </g>
            <path d="M326.57 391.486c-2.275 4.232-5.595 6.908-9.79 9.432-12.966 8.192-39.854 9.613-56.463 0-5.088-2.996-6.7-5.244-8.147-6.7-2.463-3.1-3.663-6.45-3.663-9.796l-.063 10.299c0 7.185 5.542 12.809 11.81 16.499 18.417 10.386 46.69 8.392 60.758-2.911 9.468-8.465 6.964-13.78 7.39-15.765l-1.832-1.058z" fill="#007A73" fill-rule="nonzero"/>
            <path d="M320.794 388.15c-1.183 3.61-4.176 7.06-8.99 9.86-12.82 7.456-33.64 7.456-46.544 0-12.904-7.456-12.971-19.525-.152-26.978 4.815-2.803 10.758-4.548 16.987-5.246l-5.66-3.268c-5.964 1.08-11.617 2.883-16.327 5.625-15.545 9.04-15.462 23.717.184 32.757 15.645 9.039 40.967 9.039 56.512 0 4.71-2.739 7.806-6.02 9.648-9.482l-5.658-3.268z" fill="#00C99F" fill-rule="nonzero"/>
        </g>
        <g fill="#D0FBF1">
            <path d="M84.987 0c20.528 0 38.62 10.411 49.263 26.232a59.619 59.619 0 0 1 10.82-.985c28.686 0 52.614 20.33 58.108 47.339H0c3.77-18.53 16.216-33.917 32.923-41.751C42.985 12.462 62.528 0 84.987 0z" filter="url(#sgw3wdlbnq)" transform="translate(297.58 160.527)"/>
        </g>
        <g opacity=".8" fill="#D0FBF1">
            <path d="M62.298 0c15.048 0 28.31 7.644 36.111 19.259a43.66 43.66 0 0 1 7.932-.723c21.028 0 38.567 14.925 42.595 34.755H0C2.763 39.686 11.887 28.39 24.134 22.638 31.509 9.15 45.834 0 62.298 0z" filter="url(#vp2nde6bkr)" transform="translate(42 42)"/>
        </g>
    </g>
</svg>
