<svg width="531" height="532" viewBox="0 0 531 532" xmlns="http://www.w3.org/2000/svg" xmlns:xlink="http://www.w3.org/1999/xlink">
    <defs>
        <path id="hwm0h69moa" d="M0 0h3.14v529.073H0z"/>
    </defs>
    <g fill="none" fill-rule="evenodd">
        <g fill="#8AFFA5">
            <path d="m270.774 532-.765-66.134-.44-66.134-.364-132.269.36-132.268.44-66.134.769-66.135.769 66.135.44 66.134.36 132.268-.365 132.269-.44 66.134z"/>
            <path d="m283.166 525.743-3.893-62.947-3.571-62.962-6.634-125.953-5.91-125.987-2.699-63.007-2.37-63.024 3.897 62.947 3.572 62.963 6.627 125.952 5.905 125.99 2.7 63.006z"/>
            <path d="m295.557 519.487-7.02-59.756-6.702-59.791-12.898-119.632-12.184-119.71-5.837-59.882-5.513-59.914 7.025 59.754 6.701 59.79 12.894 119.635 12.178 119.71 5.837 59.882z"/>
            <path d="m307.95 513.23-10.145-56.563-9.83-56.614-19.163-113.315-18.458-113.43-8.978-56.759-8.66-56.81 10.151 56.56 9.83 56.617 19.157 113.315 18.453 113.431 8.978 56.758z"/>
            <path d="m320.34 506.974-13.264-53.366-12.956-53.438-25.426-106.993-24.734-107.156-12.121-53.635-11.806-53.709 13.27 53.364 12.956 53.438 25.42 106.992 24.728 107.159 12.121 53.635z"/>
            <path d="m332.733 500.717-16.38-50.166-16.082-50.26-31.686-100.67-31.011-100.88-15.266-50.515-14.962-50.613 16.387 50.165 16.08 50.26 31.68 100.672 31.008 100.881 15.265 50.516z"/>
            <path d="m345.124 494.46-19.491-46.964-19.203-47.08-37.944-94.345-37.292-94.608-18.413-47.396-18.12-47.515 19.496 46.96 19.203 47.083 37.938 94.347 37.288 94.608L327 446.948z"/>
            <path d="m357.516 488.204-22.598-43.76-22.32-43.9-44.198-88.021-43.575-88.335-21.566-44.28-21.284-44.42 22.602 43.76 22.32 43.9 44.196 88.022 43.57 88.337 21.565 44.28z"/>
            <path d="M369.908 481.948 344.21 441.39l-25.433-40.72-50.452-81.696-49.86-82.062-24.722-41.16-24.452-41.328 25.7 40.555 25.435 40.72 50.447 81.7 49.857 82.064 24.72 41.16z"/>
            <path d="m382.3 475.691-28.79-37.355-28.546-37.54-56.701-75.374-56.149-75.788-27.879-38.04-27.63-38.23 28.794 37.351 28.546 37.541 56.696 75.377 56.147 75.79 27.879 38.04z"/>
            <path d="m394.691 469.435-31.877-34.156-31.653-34.363-62.948-69.05-62.443-69.513-31.038-34.922-30.812-35.13 31.882 34.153 31.652 34.36 62.944 69.055 62.439 69.517 31.04 34.922z"/>
            <path d="m407.083 463.178-34.96-30.96-34.76-31.19-69.191-62.73-68.737-63.235-34.202-31.797-34-32.027 34.966 30.958 34.757 31.187 69.189 62.734 68.732 63.238 34.205 31.799z"/>
            <path d="m419.475 456.921-38.042-27.771-37.86-28.018-75.436-56.412-75.03-56.955-37.371-28.672-37.187-28.918 38.044 27.77 37.862 28.015 75.432 56.416 75.026 56.96 37.371 28.672z"/>
            <path d="m431.866 450.665-41.12-24.592-40.962-24.845-81.68-50.1-81.324-50.672-40.537-25.541-40.38-25.801 41.123 24.585 40.962 24.848 81.677 50.102 81.322 50.678 40.54 25.541z"/>
            <path d="m444.258 444.408-44.198-21.415-44.066-21.682-87.92-43.789-87.62-44.386-43.706-22.407-43.57-22.679 44.2 21.412 44.067 21.682 87.918 43.793 87.618 44.39 43.706 22.407z"/>
            <path d="m456.65 438.152-47.28-18.246-47.166-18.523-94.165-37.48-93.917-38.097-46.869-19.27-46.76-19.549 47.28 18.244 47.169 18.52 94.16 37.484 93.916 38.104 46.87 19.268z"/>
            <path d="m469.041 431.895-50.36-15.082-50.273-15.366L268 370.273l-100.21-31.806-50.036-16.128-49.946-16.413 50.362 15.078 50.271 15.364 100.406 31.18 100.21 31.81 50.036 16.128z"/>
            <path d="m481.433 425.639-53.445-11.926-53.38-12.211-106.653-24.871L161.45 351.12l-53.197-12.984-53.132-13.274 53.448 11.922 53.38 12.21L268.6 373.87l106.503 25.517 53.199 12.981z"/>
            <path d="m493.825 419.382-56.535-8.77-56.489-9.06-112.9-18.572-112.795-19.214-56.359-9.837-56.31-10.128 56.535 8.767 56.489 9.059 112.9 18.576 112.793 19.218 56.359 9.838z"/>
            <path d="m506.217 413.126-59.63-5.62-59.599-5.911-119.15-12.272-119.084-12.917-59.517-6.687-59.486-6.982 59.629 5.617 59.6 5.91 119.15 12.276 119.081 12.922 59.519 6.689z"/>
            <path d="m518.608 406.87-62.727-2.475-62.712-2.76-125.402-5.975-125.37-6.616-62.674-3.54-62.659-3.828 62.727 2.468 62.713 2.76 125.401 5.981 125.37 6.621 62.674 3.539z"/>
            <path d="m531 400.613-65.828.671-65.827.387-131.655.322-131.655-.318-65.828-.386-65.827-.676 65.827-.677 65.828-.386 131.655-.318 131.655.323 65.827.386z"/>
        </g>
        <g transform="translate(264.825)">
            <mask id="v4je1nio9b" fill="#fff">
                <use xlink:href="#hwm0h69moa"/>
            </mask>
            <path fill="#8AFFA5" mask="url(#v4je1nio9b)" d="m1.57 529.073-.765-66.134-.44-66.135L0 264.536l.361-132.268.44-66.134.768-66.135.769 66.135.442 66.134.36 132.268-.367 132.268-.44 66.135z"/>
        </g>
        <path fill="#8AFFA5" d="m278.786 522.816-3.895-62.947-3.57-62.963-6.633-125.952-5.912-125.987-2.697-63.007-2.37-63.024 3.897 62.947 3.572 62.963 6.627 125.952 5.906 125.989 2.699 63.007z"/>
        <path fill="#8AFFA5" d="m291.177 516.56-7.02-59.757-6.701-59.79-12.898-119.633-12.185-119.709-5.837-59.88-5.513-59.917 7.025 59.755 6.701 59.79 12.894 119.635 12.178 119.71 5.838 59.881z"/>
        <path fill="#8AFFA5" d="m303.57 510.303-10.145-56.563-9.83-56.614-19.164-113.315-18.457-113.43-8.978-56.759-8.657-56.81 10.148 56.56 9.83 56.617 19.157 113.314 18.453 113.432 8.978 56.758z"/>
        <path fill="#8AFFA5" d="m315.96 504.047-13.264-53.366-12.956-53.439-25.426-106.992-24.734-107.156-12.121-53.635-11.807-53.71 13.27 53.365 12.957 53.438 25.42 106.992 24.728 107.159 12.121 53.634z"/>
        <path fill="#8AFFA5" d="m328.353 497.79-16.38-50.166-16.082-50.26-31.686-100.668-31.011-100.881-15.266-50.516-14.962-50.613 16.387 50.165 16.08 50.26 31.68 100.672 31.008 100.88 15.265 50.517z"/>
        <path fill="#8AFFA5" d="m340.744 491.534-19.491-46.965-19.203-47.08-37.944-94.345-37.292-94.608L208.4 161.14l-18.12-47.515 19.496 46.96 19.203 47.083 37.94 94.347 37.286 94.608 18.414 47.398z"/>
        <path fill="#8AFFA5" d="m353.136 485.277-22.598-43.76-22.318-43.9-44.2-88.022-43.575-88.334-21.566-44.28-21.284-44.42 22.602 43.76 22.32 43.899 44.196 88.023 43.57 88.337 21.565 44.28z"/>
        <path fill="#8AFFA5" d="m365.528 479.02-25.699-40.557-25.432-40.719-50.452-81.697-49.861-82.061-24.72-41.16-24.453-41.328 25.7 40.555 25.435 40.72 50.447 81.7 49.857 82.064 24.72 41.16z"/>
        <path fill="#8AFFA5" d="m377.92 472.764-28.79-37.356-28.546-37.538-56.701-75.375-56.149-75.788-27.879-38.04-27.63-38.23 28.794 37.35 28.545 37.542 56.697 75.376 56.147 75.79 27.879 38.041z"/>
        <path fill="#8AFFA5" d="m390.311 466.507-31.877-34.156-31.653-34.362-62.948-69.05-62.442-69.513-31.04-34.922-30.81-35.13 31.881 34.153 31.652 34.363 62.944 69.052 62.439 69.517 31.04 34.922z"/>
        <path fill="#8AFFA5" d="m402.703 460.25-34.96-30.96-34.76-31.189-69.19-62.73-68.738-63.235-34.204-31.797-33.997-32.027 34.965 30.958 34.757 31.187 69.19 62.734 68.731 63.238 34.205 31.799z"/>
        <path fill="#8AFFA5" d="m415.095 453.994-38.042-27.772-37.86-28.017-75.436-56.412-75.03-56.955-37.371-28.672-37.186-28.918 38.044 27.77 37.861 28.015 75.432 56.416 75.026 56.96 37.371 28.672z"/>
        <path fill="#8AFFA5" d="m427.486 447.738-41.12-24.592-40.962-24.847-81.677-50.099L182.4 297.53l-40.54-25.541-40.377-25.801 41.123 24.585 40.964 24.847 81.675 50.103 81.322 50.678 40.54 25.541z"/>
        <path fill="#8AFFA5" d="m439.878 441.481-44.198-21.415-44.066-21.682-87.92-43.79-87.623-44.385-43.703-22.407-43.57-22.679 44.2 21.412 44.067 21.682 87.918 43.793L352.6 396.4l43.706 22.407z"/>
        <path fill="#8AFFA5" d="m452.27 435.225-47.28-18.246-47.168-18.523-94.163-37.48-93.917-38.097-46.87-19.27-46.76-19.547 47.28 18.242 47.168 18.52 94.163 37.486 93.915 38.102 46.871 19.268z"/>
        <path fill="#8AFFA5" d="m464.662 428.968-50.36-15.083-50.274-15.366-100.408-31.174-100.21-31.805-50.036-16.128-49.946-16.414 50.36 15.079 50.273 15.364 100.406 31.18 100.211 31.81 50.035 16.128z"/>
        <path fill="#8AFFA5" d="m477.053 422.712-53.445-11.926-53.38-12.212-106.653-24.87-106.505-25.511-53.197-12.984-53.131-13.274 53.447 11.922 53.38 12.209 106.651 24.877 106.503 25.518 53.199 12.981z"/>
        <path fill="#8AFFA5" d="m489.445 416.455-56.535-8.77-56.489-9.06-112.9-18.572-112.795-19.214L94.367 351l-56.31-10.127 56.535 8.766 56.489 9.06 112.9 18.576 112.793 19.218 56.359 9.838z"/>
        <path fill="#8AFFA5" d="m501.837 410.199-59.63-5.62-59.599-5.912-119.15-12.27-119.084-12.918-59.516-6.687-59.487-6.982L85 365.427l59.6 5.91 119.15 12.276 119.081 12.921 59.519 6.69z"/>
        <path fill="#8AFFA5" d="m514.228 403.942-62.727-2.474-62.712-2.76-125.402-5.975-125.37-6.619-62.673-3.536-62.658-3.83 62.726 2.469 62.712 2.76 125.401 5.98 125.37 6.622 62.674 3.538z"/>
        <path fill="#8AFFA5" d="m526.62 397.685-65.827.672-65.828.386-131.655.322-131.655-.317-65.827-.386L0 397.685l65.828-.676 65.827-.386 131.655-.318 131.655.322 65.828.387z"/>
        <g>
            <path fill="#BEF621" d="m363.615 327.081-45.013 20.473v50.681l45.013 20.347 45.013-20.347v-50.807z"/>
            <path fill="#39F46A" d="m318.6 398.359 45.013 20.468v-50.926L318.6 347.55z"/>
            <path fill="#007A73" d="M363.615 367.9v50.926l45.013-20.468v-50.804z"/>
            <path fill="#BEF621" d="m273.148 275.852-45.013 20.472v101.911l45.013 20.347 45.013-20.347V296.198zM182.681 224.622l-45.013 20.472v153.141l45.013 20.347 45.013-20.347V244.968z"/>
            <path fill="#39F46A" d="m228.133 398.359 45.013 20.468V316.671l-45.013-20.35zM137.667 398.359l45.013 20.468V265.442l-45.013-20.35z"/>
            <path fill="#007A73" d="M273.148 316.67v102.156l45.013-20.468V296.324zM182.681 265.44v153.386l45.013-20.468V245.095z"/>
        </g>
        <g fill="#00C99F">
            <path d="m366.756 277.714-.002.327c0-10.91-8.845-19.754-19.755-19.754 10.801 0 19.577-8.667 19.752-19.426l.003-.327c0 10.91 8.844 19.753 19.754 19.753-10.801 0-19.577 8.668-19.752 19.427M346.013 244.28l-.002.18c0-6-4.864-10.864-10.865-10.864 5.941 0 10.768-4.767 10.864-10.685l.001-.18c0 6 4.865 10.865 10.865 10.865-5.94 0-10.767 4.767-10.863 10.685M375.645 216.626l-.002.18c0-6-4.864-10.864-10.865-10.864 5.94 0 10.768-4.768 10.864-10.685l.001-.18c0 6 4.865 10.865 10.865 10.865-5.94 0-10.767 4.767-10.863 10.684"/>
        </g>
    </g>
</svg>
