<svg version="1.1" xmlns="http://www.w3.org/2000/svg" viewBox="0 0 694.2427356040992 262.4696098170058" width="1388.4854712081983" height="524.9392196340116">
  <!-- svg-source:excalidraw -->
  
  <defs>
    <style>
      @font-face {
        font-family: "Virgil";
        src: url("https://excalidraw.com/Virgil.woff2");
      }
      @font-face {
        font-family: "Cascadia";
        src: url("https://excalidraw.com/Cascadia.woff2");
      }
    </style>
  </defs>
  <g transform="translate(388.82984434032005 25.528827947316586) rotate(0 14.5 108)" stroke="none"><path fill="#000000" d="M 1.50,-0.42 Q 1.50,-0.42 2.05,1.58 2.60,3.60 3.40,6.79 4.20,9.97 4.54,12.84 4.89,15.71 5.31,18.90 5.73,22.09 6.19,25.75 6.65,29.41 7.71,38.16 8.77,46.91 9.22,53.25 9.67,59.58 10.42,64.51 11.18,69.43 13.21,76.94 15.25,84.44 17.54,91.07 19.83,97.70 21.10,101.10 22.36,104.49 22.92,106.89 23.48,109.28 23.84,110.56 24.20,111.84 24.40,113.32 24.59,114.80 24.58,117.46 24.56,120.11 24.54,122.38 24.51,124.64 24.49,128.48 24.46,132.32 24.45,135.39 24.43,138.46 24.41,141.20 24.39,143.93 24.94,146.09 25.48,148.24 25.73,150.46 25.98,152.69 26.09,155.66 26.19,158.63 26.29,160.45 26.40,162.28 26.40,164.50 26.39,166.72 26.50,168.23 26.60,169.75 26.68,171.25 26.75,172.75 27.32,174.95 27.89,177.15 28.00,178.55 28.11,179.95 28.29,182.45 28.48,184.95 28.53,187.56 28.58,190.16 28.86,192.61 29.13,195.05 29.28,197.04 29.43,199.02 29.54,200.73 29.65,202.44 29.86,204.17 30.08,205.91 30.12,207.37 30.16,208.84 30.21,210.03 30.27,211.23 28.73,213.75 27.19,216.28 26.86,216.07 26.53,215.85 26.29,215.55 26.05,215.24 25.92,214.87 25.79,214.50 25.78,214.11 25.77,213.72 25.89,213.35 26.01,212.98 26.24,212.66 26.47,212.35 26.79,212.12 27.11,211.90 27.48,211.79 27.86,211.67 28.25,211.69 28.64,211.70 29.00,211.84 29.37,211.98 29.67,212.22 29.97,212.47 30.18,212.80 30.39,213.13 30.48,213.51 30.57,213.89 30.53,214.28 30.50,214.67 30.34,215.03 30.19,215.39 29.92,215.67 29.66,215.96 29.32,216.15 28.98,216.34 28.59,216.41 28.21,216.48 27.82,216.43 27.43,216.37 27.09,216.19 26.74,216.02 26.46,215.74 26.19,215.46 26.02,215.11 25.85,214.76 25.80,214.37 25.75,213.98 25.83,213.60 25.90,213.22 26.10,212.88 26.29,212.54 26.59,212.28 26.88,212.02 27.24,211.87 27.60,211.72 27.99,211.69 28.38,211.66 28.76,211.76 29.13,211.86 29.13,211.86 29.13,211.86 27.38,212.66 25.62,213.45 25.67,212.35 25.72,211.24 25.77,210.04 25.82,208.85 25.85,207.41 25.88,205.97 26.02,204.27 26.16,202.57 26.14,200.92 26.13,199.27 25.99,197.38 25.84,195.50 25.43,192.92 25.02,190.34 24.81,187.88 24.59,185.42 24.16,182.77 23.73,180.12 23.71,177.88 23.68,175.64 23.45,174.21 23.23,172.78 23.30,171.27 23.37,169.77 23.45,168.25 23.54,166.74 23.50,164.54 23.46,162.35 23.48,160.54 23.50,158.73 23.39,155.86 23.28,153.00 23.04,150.95 22.81,148.90 22.20,146.43 21.59,143.95 21.57,141.21 21.56,138.46 21.53,135.40 21.50,132.33 21.46,128.50 21.43,124.67 21.36,122.42 21.30,120.16 21.21,117.60 21.11,115.04 21.11,113.72 21.12,112.39 21.01,111.14 20.91,109.88 20.40,107.65 19.88,105.41 18.61,101.99 17.33,98.57 15.01,91.85 12.68,85.14 10.61,77.49 8.54,69.84 7.77,64.81 6.99,59.77 6.53,53.50 6.08,47.24 5.01,38.50 3.94,29.76 3.46,26.11 2.97,22.46 2.52,19.26 2.07,16.06 1.72,13.38 1.37,10.70 0.53,7.57 -0.30,4.44 -0.90,2.43 -1.50,0.42 -1.53,0.24 -1.56,0.05 -1.54,-0.13 -1.53,-0.31 -1.47,-0.49 -1.41,-0.67 -1.31,-0.83 -1.20,-0.99 -1.07,-1.12 -0.93,-1.25 -0.77,-1.34 -0.60,-1.44 -0.42,-1.49 -0.24,-1.54 -0.05,-1.55 0.13,-1.55 0.31,-1.52 0.50,-1.48 0.67,-1.40 0.84,-1.31 0.98,-1.19 1.13,-1.07 1.24,-0.92 1.35,-0.77 1.43,-0.60 1.50,-0.42 1.50,-0.42 L 1.50,-0.42 Z"></path></g><g transform="translate(437.82984434032005 64.52882794731659) rotate(0 100 12.5)"><text x="0" y="18" font-family="Virgil, Segoe UI Emoji" font-size="20px" fill="#000000" text-anchor="start" style="white-space: pre;" direction="ltr">Probationary Buffer</text></g><g stroke-linecap="round" transform="translate(467.96851625203135 103.00124978854205) rotate(0 9.5 10)"><path d="M0.2 10.77 C0.2 10.77, 0.2 10.77, 0.2 10.77 M0.2 10.77 C0.2 10.77, 0.2 10.77, 0.2 10.77 M4.01 13.48 C6.7 8.5, 10.12 7.61, 12.77 0.72 M3.72 13.97 C6.63 9.81, 10.03 5.39, 13.34 2.73 M7.37 17.07 C7.5 13.38, 12.13 9.52, 14.22 4.94 M6.12 15.93 C9.73 12.86, 12.01 8.67, 15.71 6.06 M7.78 20.4 C10.88 15.49, 15.64 10.76, 18.75 10.05 M8.78 19.37 C12.38 14.79, 16.28 11.23, 17.93 9.24" stroke="#868e96" stroke-width="0.5" fill="none"></path><path d="M9.26 1.36 C11.73 1.81, 13.93 6.27, 19.71 9.95 M9.52 -0.58 C12.93 3.38, 14.33 5.9, 19.51 11.69 M18.26 11.72 C17.73 12.77, 15.09 16.88, 9.67 20.2 M19.07 11.29 C15.79 13.4, 13.01 17.31, 9.68 20.06 M10.17 19.33 C7.24 15.67, 3.64 12.84, 0.82 11.1 M9.47 20.2 C5.96 16.18, 2.85 13.24, -0.66 10.9 M-0.37 11.77 C4.53 8.22, 5.94 4.74, 11.4 0.33 M0.62 11.58 C2.63 7.84, 4.7 5.71, 10.01 -0.65" stroke="#000000" stroke-width="1" fill="none"></path></g><g stroke-linecap="round" transform="translate(540.32984434032 153.52882794731659) rotate(0 9.5 10)"><path d="M0.2 10.77 C0.2 10.77, 0.2 10.77, 0.2 10.77 M0.2 10.77 C0.2 10.77, 0.2 10.77, 0.2 10.77 M4.09 12.05 C5.96 10.1, 12.1 4.36, 13.88 2.14 M3.24 13.85 C7.08 9.95, 9.79 5.06, 12.68 2.3 M6.29 15.1 C9.66 10.83, 12.66 9.46, 14.21 4.32 M5.85 15.77 C10.18 11.45, 13.67 7.27, 16.08 5.66 M8.87 18.5 C12.14 16.93, 14.76 11.04, 17.19 9.96 M8.61 20.01 C10.99 16.59, 13.14 14.27, 17.16 8.21" stroke="#15aabf" stroke-width="0.5" fill="none"></path><path d="M9.79 0.59 C13.13 4.06, 15.1 7.53, 20.1 11.98 M10.16 -0.36 C12.54 2.42, 15.04 5.79, 19.17 10.58 M17.89 10.01 C17.86 12.95, 13.41 14.94, 10.35 19.16 M18.83 11.63 C15.93 13.68, 13.82 15.27, 9.56 20.36 M9.89 20.14 C7.49 16.85, 3.32 13.57, 0.48 9.76 M9.39 20.34 C5.7 17.37, 3.17 14, -0.13 11.43 M1.29 10.35 C1.51 8.61, 6.69 6.04, 8.75 0.11 M-0.27 11.19 C4.15 7.24, 7.53 2.66, 10.57 0.34" stroke="#000000" stroke-width="1" fill="none"></path></g><g stroke-linecap="round" transform="translate(641.32984434032 152.52882794731659) rotate(0 9.5 10)"><path d="M0.2 10.77 C0.2 10.77, 0.2 10.77, 0.2 10.77 M0.2 10.77 C0.2 10.77, 0.2 10.77, 0.2 10.77 M2.03 14.63 C7.34 9.85, 10.29 6.28, 14.01 2.71 M3.55 14.14 C6.42 9, 10.32 4.95, 13.55 1.48 M6.22 14.73 C8.91 13.76, 11.15 7.89, 16.8 4.19 M6.42 15.72 C9.63 11.96, 13.61 8.6, 15.68 4.81 M8.94 20.51 C11.22 15.03, 13.56 14.17, 16.6 7.73 M8.93 18.83 C11.53 15.91, 12.83 13.11, 17.45 8.23 M10.25 20.22 C10.25 20.22, 10.25 20.22, 10.25 20.22 M10.25 20.22 C10.25 20.22, 10.25 20.22, 10.25 20.22 M11.63 16.12 C10.53 15.17, 6.86 14.22, 3.53 8.07 M12.46 17.02 C9.02 13.99, 5.06 10.69, 1.86 8.45 M15.58 14.41 C13.09 10.95, 10.74 9.89, 6.24 5.14 M15.24 14.53 C12.78 12.02, 11.31 10.93, 5.48 5.19 M19.3 11.59 C14.42 9.51, 11.43 4.88, 9 0.74 M18.92 11.09 C16.23 8.64, 13.77 6.86, 7.56 1.78" stroke="#fd7e14" stroke-width="0.5" fill="none"></path><path d="M10.42 0.62 C11.44 2.91, 14.71 5.37, 18.17 12.25 M10.27 -0.16 C14.17 4.94, 17.29 8.31, 18.77 11.17 M20.25 10.54 C15.41 12.78, 13.84 15.53, 9.67 18.89 M18.47 11.26 C16.51 12.77, 13.93 16.05, 10.42 20.59 M11.22 20.06 C6.97 16.71, 2.99 12.02, 0.81 12.11 M9.38 20.64 C7.73 18.04, 4.34 15.43, -0.17 11.02 M-1.23 11.67 C4.49 8.45, 5.4 3.74, 11.17 -1.11 M0.28 11.31 C2.06 8.52, 4.9 6.6, 9.82 -0.45" stroke="#000000" stroke-width="1" fill="none"></path></g><g stroke-linecap="round" transform="translate(481.32984434032005 183.52882794731659) rotate(0 9.5 10)"><path d="M0.2 10.77 C0.2 10.77, 0.2 10.77, 0.2 10.77 M0.2 10.77 C0.2 10.77, 0.2 10.77, 0.2 10.77 M4.25 13.4 C6.2 11, 8.39 9.19, 14.26 2.12 M2.68 13.37 C6.34 9.43, 10.77 4.53, 13.31 2.11 M5.85 17.22 C7.18 12.49, 11.92 9.89, 16.29 4.69 M6.25 15.76 C9.29 13.47, 11.31 9.84, 15.45 5.59 M8.46 18.18 C10.14 17.96, 11.72 13.25, 17.28 8.86 M9.1 18.79 C11.49 14.76, 15.34 10.68, 18.26 9.15 M10.25 20.22 C10.25 20.22, 10.25 20.22, 10.25 20.22 M10.25 20.22 C10.25 20.22, 10.25 20.22, 10.25 20.22 M12.87 17.22 C8.76 15.73, 8.5 12.25, 2.9 7.37 M12.59 17.07 C8.56 13.63, 4.98 11.09, 1.94 8.56 M15.77 13.26 C13.3 12.12, 11.35 9.6, 3.54 4.94 M14.9 13.83 C12.15 11.66, 9.24 8.48, 4.83 5.09 M17.67 12.41 C15.3 8.32, 15.11 6.06, 6.89 1.02 M19.06 11.18 C16.34 9.06, 12.58 6.05, 7.98 1.47" stroke="#4c6ef5" stroke-width="0.5" fill="none"></path><path d="M9.65 0.73 C14.21 4.7, 15.36 8.72, 20.34 11.31 M10.59 0.55 C12.45 2.35, 14.3 5.67, 19.01 10.38 M18.2 10.13 C17.44 12.13, 14.75 13.86, 9.44 19.65 M18.83 10.38 C14.9 14.98, 12.16 18.8, 10.48 19.95 M10.71 20.07 C7.3 15.97, 4.53 15.54, -0.26 9.79 M10.46 20.51 C6.45 17.37, 2.9 13.81, 0.25 11.58 M1.21 12.11 C1.4 8.25, 6.38 4.21, 8.72 -0.55 M-0.12 10.9 C3.79 7.71, 6.29 3.34, 10.31 0.64" stroke="#000000" stroke-width="1" fill="none"></path></g><g stroke-linecap="round" transform="translate(538.32984434032 193.52882794731659) rotate(0 9.5 10)"><path d="M11.38 1.74 L20.6 10.8 L11.77 20.51 L-0.07 11.79" stroke="none" stroke-width="0" fill="#fab005" fill-rule="evenodd"></path><path d="M10.53 -0.31 C14.76 5.49, 17.46 7.89, 18.54 11.34 M10.7 -0.26 C12.17 2.9, 15.54 6.24, 18.81 10.38 M17.94 11.52 C16.34 12.15, 13.49 16.41, 10.83 21.18 M19.58 11.03 C15.95 14.42, 12.47 17.17, 10.38 20.53 M8.76 21.28 C8.19 18.55, 4.22 15.85, -0.35 11.05 M9.44 20.3 C7.1 17.42, 2.61 13.94, 0.53 10.5 M0.57 11.63 C1.94 8.42, 5.47 6.94, 9.63 -0.91 M-0.16 11.47 C2.88 7.69, 6.09 3.49, 10.02 -0.3" stroke="#000000" stroke-width="1" fill="none"></path></g><g transform="translate(94.82984434032005 44.528827947316586) rotate(0 87.5 12.5)"><text x="0" y="18" font-family="Virgil, Segoe UI Emoji" font-size="20px" fill="#000000" text-anchor="start" style="white-space: pre;" direction="ltr">Protected Buffer</text></g><g stroke-linecap="round" transform="translate(335.32984434032005 129.52882794731659) rotate(0 9.5 10)"><path d="M10.54 -0.85 L19.04 10.25 L11.89 20.57 L0.76 9.14" stroke="none" stroke-width="0" fill="#fab005" fill-rule="evenodd"></path><path d="M11.08 -0.27 C12.88 1.86, 13.9 5.04, 20.23 10.38 M10.53 -0.6 C12.06 2.88, 13.43 4.1, 18.74 11.18 M18.83 11.98 C16.58 13.71, 12.17 17.6, 11.1 21.01 M19.45 10.44 C16.63 13.47, 13.8 16.39, 10.55 20.51 M9.95 20.53 C6.04 18.74, 4.01 15.09, 0.78 9.79 M10 20.37 C7.75 18.51, 5.8 16.64, 0.02 11.41 M-0.05 10.25 C3.78 8.26, 5.6 3.99, 10.06 -0.98 M0.64 10.36 C2.48 8.48, 5.4 4.92, 9.59 -0.27" stroke="#000000" stroke-width="1" fill="none"></path></g><g stroke-linecap="round" transform="translate(266.32984434032005 132.52882794731659) rotate(0 9.5 10)"><path d="M10.04 -0.75 L20.89 11.57 L10.76 18.14 L0.07 11.39" stroke="none" stroke-width="0" fill="#fd7e14" fill-rule="evenodd"></path><path d="M10.9 -0.37 C13.44 4.59, 17.94 7.49, 17.83 11.64 M10.05 0.56 C12.98 3.66, 16.68 8.65, 19.27 11.3 M19.58 10.69 C15.66 14.15, 14.99 17.18, 9.72 20.81 M19.07 11.02 C16.64 13.53, 15.27 15.78, 9.94 20.56 M9.02 21.32 C6.63 17.39, 4.27 12.97, -1.07 12.11 M10.03 20.43 C6.6 17.28, 2.64 13.83, 0.3 11.67 M0.44 11.98 C1.11 9.03, 4.64 5.04, 9.98 -1.37 M-0.6 11.73 C1.96 8.55, 4.95 4.82, 10.2 -0.31" stroke="#000000" stroke-width="1" fill="none"></path></g><g stroke-linecap="round" transform="translate(216.32984434032005 126.52882794731659) rotate(0 9.5 10)"><path d="M11.61 -1.69 L17.43 10.29 L10.04 21.75 L0.95 9.38" stroke="none" stroke-width="0" fill="#e64980" fill-rule="evenodd"></path><path d="M8.78 -0.53 C13.22 3.99, 16.22 6.6, 18.81 12.1 M10.29 0.61 C13.65 3.7, 16.65 7.25, 19.51 10.38 M19.88 12.1 C17.22 13.64, 14.52 16.9, 9.95 20.5 M19.13 11.37 C16.47 12.53, 15.52 15.52, 10 20.35 M11.08 20.04 C7.72 17.91, 5.19 13.61, -0.05 10.32 M10.23 20.03 C6.2 16.95, 2.73 13.8, 0.58 10.42 M0.93 10.18 C1.54 9.09, 3.63 6.31, 9.44 1.41 M0.03 11.14 C2.77 7.66, 7.12 3.79, 9.35 -0.32" stroke="#000000" stroke-width="1" fill="none"></path></g><g stroke-linecap="round" transform="translate(145.32984434032005 106.52882794731659) rotate(0 9.5 10)"><path d="M8.59 1.51 L19.72 9.38 L10.59 19.37 L-1.78 9.45" stroke="none" stroke-width="0" fill="#fa5252" fill-rule="evenodd"></path><path d="M10.3 0.82 C10.88 1.38, 15.37 5.98, 19 11.78 M10.57 0.02 C13.24 3.63, 16.25 6.15, 18.97 10.64 M19.43 11.05 C15.25 13.88, 11.96 16.51, 11.09 18.9 M19.4 10.65 C16.89 13.06, 14.88 14.87, 9.76 20.6 M10.05 20.26 C5.81 17.28, 4.46 13.85, -1.17 10.43 M9.76 20.01 C6.86 16.82, 1.92 13.56, -0.59 10.4 M1.01 11.68 C1.31 7.69, 4.38 7.1, 9.58 -1.34 M-0.53 11.46 C2.42 8.57, 4.76 5.64, 10.46 -0.53" stroke="#000000" stroke-width="1" fill="none"></path></g><g stroke-linecap="round" transform="translate(294.32984434032005 189.52882794731659) rotate(0 9.5 10)"><path d="M0.2 10.77 C0.2 10.77, 0.2 10.77, 0.2 10.77 M0.2 10.77 C0.2 10.77, 0.2 10.77, 0.2 10.77 M2.26 13.06 C7.3 7.5, 11.46 3.2, 14.29 2.26 M2.71 12.78 C5.72 9.75, 8.6 7.04, 12.31 2.19 M7.57 17.15 C9.34 11.93, 14.08 8.59, 16.5 4.13 M5.95 15.47 C9.92 11.35, 13.91 7.58, 15.89 5.55 M7.37 18.52 C9.29 15.82, 12.39 15.96, 16.95 9.78 M8.64 19.71 C12.2 15.45, 14.16 12.39, 17.54 8.93" stroke="#7950f2" stroke-width="0.5" fill="none"></path><path d="M9.22 -0.52 C13.87 3.73, 17.11 8.19, 20.35 11.41 M10.14 -0.46 C13.11 4.27, 15.91 6.81, 18.7 11.57 M19.03 12.11 C17.59 11.88, 15.97 13.74, 8.87 18.87 M19.29 10.63 C16.19 13.39, 14.65 15.44, 9.43 19.7 M10.83 19.9 C7.21 16.42, 3.51 14.61, -0.96 10.05 M10.2 19.79 C5.62 16.02, 2.46 13.17, -0.65 11.52 M-0.69 11.81 C2.99 6.32, 7.14 2.17, 8.68 -0.59 M0.58 10.69 C2.33 8.58, 4.8 5.37, 10.28 0.15" stroke="#000000" stroke-width="1" fill="none"></path></g><g stroke-linecap="round"><g transform="translate(308.8021099579777 201.7232810708482) rotate(0 70.39947952537801 9.604419577727072)"><path d="M0.46 -0.51 C15.3 2.92, 66.69 21, 89.81 20.94 C112.92 20.87, 130.74 2.86, 139.12 -0.93 M-0.76 -1.82 C13.93 1.69, 65.56 22.06, 89.28 21.91 C113 21.77, 133.03 1.04, 141.56 -2.7" stroke="#000000" stroke-width="1" fill="none"></path></g><g transform="translate(308.8021099579777 201.7232810708482) rotate(0 70.39947952537801 9.604419577727072)"><path d="M123.87 21.23 C128.98 10.18, 138.65 3.64, 141.92 -0.94 M125.25 20.18 C130.12 10.73, 138.08 2.18, 140.85 -1.75" stroke="#000000" stroke-width="1" fill="none"></path></g><g transform="translate(308.8021099579777 201.7232810708482) rotate(0 70.39947952537801 9.604419577727072)"><path d="M113.28 5.12 C122.28 -0.14, 135.78 -0.84, 141.92 -0.94 M114.67 4.07 C123.72 0.71, 135.71 -1.69, 140.85 -1.75" stroke="#000000" stroke-width="1" fill="none"></path></g></g><g stroke-linecap="round"><g transform="translate(535.2742193520676 197.27890605910045) rotate(0 -78.51142450046729 -23.866279558705344)"><path d="M-0.34 -0.54 C-6.72 -8.57, -11.89 -41.26, -38.1 -47.75 C-64.32 -54.24, -137.64 -40.95, -157.62 -39.48 M1.69 1.79 C-4.35 -6.13, -9.24 -39.9, -35.97 -46.6 C-62.7 -53.3, -138.33 -39.89, -158.71 -38.41" stroke="#000000" stroke-width="1" fill="none"></path></g><g transform="translate(535.2742193520676 197.27890605910045) rotate(0 -78.51142450046729 -23.866279558705344)"><path d="M-132.86 -53.82 C-141.59 -48.81, -149.58 -45.11, -158.56 -36.78 M-132.22 -51.92 C-141.29 -46.85, -150.53 -42.02, -159.36 -38.02" stroke="#000000" stroke-width="1" fill="none"></path></g><g transform="translate(535.2742193520676 197.27890605910045) rotate(0 -78.51142450046729 -23.866279558705344)"><path d="M-130.39 -33.45 C-139.97 -34.87, -148.74 -37.59, -158.56 -36.78 M-129.75 -31.55 C-139.78 -33.44, -149.87 -35.55, -159.36 -38.02" stroke="#000000" stroke-width="1" fill="none"></path></g></g><g transform="translate(31.74976566464852 249.24742231113203) rotate(0 326.2464849697253 -4.430507820576565)" stroke="none"><path fill="#000000" d="M -0.34,-2.09 Q -0.34,-2.09 1.03,-2.35 2.41,-2.62 3.60,-2.97 4.78,-3.32 6.43,-3.50 8.07,-3.68 12.27,-3.62 16.46,-3.56 19.37,-3.49 22.27,-3.41 24.20,-3.40 26.14,-3.39 27.42,-3.47 28.70,-3.56 30.18,-3.60 31.65,-3.65 33.20,-3.68 34.76,-3.70 36.57,-3.67 38.39,-3.65 39.86,-3.68 41.33,-3.72 42.41,-3.78 43.50,-3.85 44.89,-3.88 46.28,-3.90 47.56,-3.94 48.85,-3.97 50.09,-4.01 51.33,-4.04 52.78,-4.04 54.23,-4.04 56.47,-3.89 58.71,-3.75 60.21,-3.97 61.71,-4.18 63.17,-4.33 64.64,-4.47 66.44,-4.49 68.24,-4.50 69.93,-4.51 71.61,-4.53 73.26,-4.54 74.90,-4.54 77.22,-4.44 79.54,-4.33 80.76,-4.40 81.97,-4.48 83.74,-4.61 85.51,-4.75 86.71,-4.53 87.90,-4.32 89.38,-3.98 90.87,-3.65 93.27,-3.15 95.68,-2.65 97.38,-2.47 99.08,-2.30 100.26,-2.30 101.44,-2.29 102.93,-2.38 104.42,-2.46 106.80,-1.82 109.19,-1.18 110.93,-0.96 112.67,-0.73 114.10,-0.68 115.53,-0.63 116.83,-0.64 118.12,-0.66 120.03,-0.75 121.93,-0.84 123.73,-0.91 125.52,-0.98 128.80,-0.82 132.08,-0.65 134.41,-0.53 136.73,-0.40 138.64,-0.36 140.56,-0.32 142.02,-0.14 143.47,0.03 144.83,0.09 146.19,0.14 148.84,0.28 151.49,0.43 153.79,0.53 156.09,0.63 159.62,0.70 163.14,0.77 165.87,1.05 168.59,1.33 170.84,1.46 173.09,1.59 175.21,1.65 177.32,1.72 179.83,1.75 182.35,1.79 184.35,1.78 186.35,1.77 188.59,1.79 190.82,1.81 193.16,1.82 195.50,1.84 198.72,1.39 201.94,0.94 204.49,0.52 207.03,0.10 208.36,-0.19 209.68,-0.49 212.17,-0.95 214.66,-1.42 216.27,-1.78 217.88,-2.14 219.75,-2.49 221.62,-2.85 223.44,-3.04 225.25,-3.24 226.82,-3.55 228.40,-3.86 230.12,-4.02 231.85,-4.19 233.03,-4.32 234.21,-4.45 235.48,-4.60 236.76,-4.76 239.10,-5.11 241.44,-5.46 243.36,-5.43 245.28,-5.40 247.62,-5.52 249.96,-5.64 251.86,-5.92 253.75,-6.19 255.59,-6.35 257.43,-6.51 260.75,-6.59 264.06,-6.66 265.96,-6.65 267.85,-6.65 269.35,-6.71 270.85,-6.76 272.20,-7.25 273.55,-7.74 275.36,-7.81 277.16,-7.88 279.00,-7.85 280.84,-7.81 282.31,-7.84 283.78,-7.87 285.10,-7.91 286.43,-7.95 288.61,-7.82 290.79,-7.69 293.34,-7.59 295.89,-7.49 297.44,-7.54 298.98,-7.58 301.03,-7.52 303.08,-7.45 304.64,-7.50 306.21,-7.55 309.71,-7.23 313.21,-6.92 315.66,-6.52 318.10,-6.13 319.99,-5.99 321.88,-5.86 324.13,-5.52 326.39,-5.18 327.99,-5.13 329.59,-5.07 330.73,-5.12 331.86,-5.16 333.11,-5.28 334.36,-5.40 335.54,-5.20 336.72,-5.00 338.06,-4.93 339.40,-4.86 341.86,-4.69 344.31,-4.52 346.99,-4.40 349.67,-4.29 351.97,-4.21 354.26,-4.13 357.32,-4.07 360.38,-4.01 364.00,-3.97 367.62,-3.93 370.77,-3.91 373.93,-3.88 376.37,-4.08 378.80,-4.29 380.58,-4.45 382.36,-4.61 383.58,-4.76 384.80,-4.91 387.07,-5.42 389.34,-5.93 391.50,-6.10 393.66,-6.27 397.35,-6.78 401.05,-7.28 402.87,-7.54 404.69,-7.81 406.40,-8.13 408.10,-8.46 409.36,-8.54 410.62,-8.62 412.07,-8.66 413.52,-8.69 414.95,-8.81 416.39,-8.93 418.34,-8.99 420.28,-9.06 424.05,-8.89 427.81,-8.73 431.96,-8.60 436.11,-8.47 441.35,-8.37 446.58,-8.28 451.36,-8.21 456.13,-8.14 462.09,-8.08 468.06,-8.03 471.98,-7.99 475.91,-7.96 478.74,-7.93 481.56,-7.90 483.46,-7.93 485.35,-7.96 486.62,-8.07 487.89,-8.17 489.59,-8.21 491.29,-8.25 493.40,-8.18 495.51,-8.12 497.65,-7.85 499.80,-7.58 501.33,-7.55 502.86,-7.52 505.57,-7.42 508.28,-7.32 511.35,-7.03 514.43,-6.73 517.76,-6.60 521.08,-6.46 525.94,-6.63 530.79,-6.79 534.28,-6.85 537.76,-6.92 541.48,-7.40 545.20,-7.88 548.01,-8.08 550.82,-8.29 557.57,-8.60 564.33,-8.92 568.36,-9.05 572.39,-9.19 574.80,-9.24 577.21,-9.30 579.16,-9.36 581.12,-9.42 584.27,-9.42 587.42,-9.42 589.92,-9.41 592.41,-9.41 594.40,-9.43 596.38,-9.46 597.92,-9.55 599.46,-9.65 601.04,-9.72 602.62,-9.79 603.99,-9.86 605.36,-9.94 607.33,-9.90 609.30,-9.87 612.06,-9.56 614.82,-9.26 617.94,-9.35 621.07,-9.43 623.55,-9.68 626.02,-9.93 628.95,-10.25 631.87,-10.58 634.43,-11.16 637.00,-11.74 639.53,-12.23 642.07,-12.71 644.36,-12.92 646.66,-13.13 649.28,-13.35 651.90,-13.56 652.14,-13.53 652.38,-13.50 652.60,-13.40 652.82,-13.30 653.00,-13.13 653.18,-12.96 653.29,-12.74 653.40,-12.52 653.44,-12.28 653.47,-12.04 653.43,-11.80 653.39,-11.56 653.28,-11.35 653.16,-11.13 652.98,-10.96 652.80,-10.80 652.58,-10.70 652.36,-10.60 652.11,-10.57 651.87,-10.55 651.63,-10.60 651.40,-10.66 651.19,-10.79 650.98,-10.91 650.82,-11.10 650.67,-11.29 650.58,-11.52 650.49,-11.74 650.48,-11.99 650.47,-12.23 650.54,-12.47 650.60,-12.70 650.74,-12.90 650.88,-13.10 651.08,-13.25 651.27,-13.39 651.50,-13.47 651.74,-13.55 651.98,-13.54 652.22,-13.54 652.45,-13.46 652.68,-13.38 652.88,-13.23 653.07,-13.08 653.21,-12.88 653.34,-12.68 653.40,-12.44 653.47,-12.20 653.45,-11.96 653.44,-11.72 653.34,-11.49 653.25,-11.27 653.09,-11.08 652.93,-10.90 652.72,-10.77 652.51,-10.65 652.27,-10.60 652.03,-10.55 652.03,-10.55 652.03,-10.55 649.47,-10.48 646.91,-10.41 644.76,-10.20 642.60,-9.99 640.12,-9.49 637.64,-8.99 634.93,-8.34 632.22,-7.69 629.29,-7.31 626.36,-6.93 623.78,-6.60 621.20,-6.27 617.87,-6.09 614.54,-5.91 611.92,-6.07 609.30,-6.24 607.33,-6.20 605.36,-6.16 603.99,-6.24 602.62,-6.31 601.04,-6.38 599.46,-6.45 597.93,-6.54 596.39,-6.63 594.40,-6.66 592.42,-6.68 589.92,-6.67 587.43,-6.65 584.29,-6.63 581.15,-6.61 579.21,-6.62 577.27,-6.63 574.88,-6.57 572.48,-6.51 568.47,-6.37 564.46,-6.23 557.74,-5.90 551.03,-5.58 548.29,-5.36 545.56,-5.14 541.70,-4.63 537.83,-4.12 534.37,-4.02 530.90,-3.92 525.95,-3.71 520.99,-3.51 517.58,-3.58 514.17,-3.66 511.20,-3.86 508.23,-4.07 505.44,-4.05 502.65,-4.04 501.04,-4.21 499.44,-4.38 497.47,-4.57 495.51,-4.76 493.40,-4.70 491.29,-4.63 489.59,-4.67 487.89,-4.70 486.62,-4.81 485.35,-4.91 483.46,-4.95 481.56,-4.98 478.74,-4.95 475.91,-4.92 471.98,-4.88 468.06,-4.85 462.09,-4.79 456.13,-4.74 451.36,-4.67 446.58,-4.60 441.35,-4.50 436.11,-4.41 431.96,-4.28 427.81,-4.15 424.05,-3.99 420.28,-3.82 418.34,-3.88 416.40,-3.95 414.97,-4.06 413.54,-4.17 412.12,-4.18 410.69,-4.20 409.54,-4.24 408.38,-4.28 406.77,-4.31 405.16,-4.34 403.37,-4.11 401.58,-3.88 397.85,-3.22 394.12,-2.57 391.90,-2.19 389.67,-1.80 388.49,-1.78 387.30,-1.76 386.12,-1.58 384.94,-1.40 383.74,-1.46 382.53,-1.53 380.80,-1.49 379.06,-1.46 376.50,-1.20 373.93,-0.95 370.77,-0.92 367.62,-0.89 364.00,-0.86 360.38,-0.82 357.32,-0.77 354.25,-0.72 351.95,-0.65 349.64,-0.59 346.94,-0.51 344.24,-0.43 341.67,-0.35 339.11,-0.26 336.68,-0.66 334.25,-1.06 332.97,-1.24 331.69,-1.43 330.51,-1.58 329.34,-1.73 327.66,-1.92 325.99,-2.12 323.81,-2.36 321.64,-2.60 319.65,-2.75 317.65,-2.89 315.31,-3.16 312.98,-3.42 309.59,-3.57 306.21,-3.72 304.64,-3.77 303.08,-3.81 301.03,-3.75 298.98,-3.69 297.44,-3.73 295.89,-3.78 293.34,-3.68 290.80,-3.58 288.62,-3.44 286.44,-3.31 285.12,-3.34 283.81,-3.38 282.34,-3.39 280.88,-3.40 279.08,-3.33 277.28,-3.26 275.89,-3.33 274.49,-3.40 272.68,-3.14 270.87,-2.88 269.37,-2.93 267.87,-2.98 265.99,-2.95 264.10,-2.92 260.92,-2.82 257.74,-2.72 256.07,-2.59 254.40,-2.47 252.39,-2.06 250.37,-1.66 247.88,-1.29 245.39,-0.91 243.56,-0.79 241.73,-0.68 240.36,-0.60 239.00,-0.51 237.95,-0.27 236.91,-0.03 235.66,-0.13 234.41,-0.22 233.28,-0.24 232.15,-0.26 230.62,-0.17 229.08,-0.08 227.34,0.20 225.60,0.49 223.98,0.62 222.35,0.75 220.50,1.14 218.64,1.54 216.93,1.87 215.22,2.20 212.67,2.42 210.12,2.64 208.80,2.70 207.48,2.76 204.90,3.20 202.31,3.64 198.91,4.12 195.50,4.59 193.16,4.60 190.82,4.62 188.58,4.63 186.34,4.64 184.33,4.62 182.33,4.59 179.80,4.59 177.26,4.59 175.11,4.57 172.96,4.55 170.64,4.48 168.32,4.41 165.73,4.22 163.13,4.04 159.60,4.09 156.07,4.14 153.75,4.20 151.43,4.27 148.67,4.33 145.90,4.40 144.32,4.25 142.74,4.10 141.64,3.82 140.55,3.54 138.64,3.58 136.73,3.62 134.41,3.75 132.08,3.87 128.80,4.04 125.51,4.20 123.71,4.12 121.90,4.05 119.95,3.91 118.00,3.77 116.65,3.69 115.29,3.61 113.76,3.49 112.23,3.36 110.26,3.19 108.29,3.02 106.30,2.72 104.32,2.43 102.76,2.26 101.19,2.09 99.95,1.96 98.71,1.84 96.88,1.69 95.06,1.55 92.46,1.30 89.85,1.06 87.67,0.49 85.48,-0.07 83.73,-0.21 81.98,-0.34 80.76,-0.41 79.54,-0.48 77.23,-0.37 74.92,-0.26 73.29,-0.25 71.66,-0.24 70.00,-0.22 68.35,-0.20 66.65,-0.13 64.95,-0.06 63.63,-0.01 62.30,0.04 60.51,0.28 58.72,0.53 56.47,0.67 54.23,0.82 52.78,0.82 51.33,0.82 50.09,0.78 48.85,0.75 47.56,0.72 46.28,0.68 44.89,0.66 43.50,0.63 42.41,0.56 41.33,0.50 39.86,0.46 38.39,0.42 36.57,0.45 34.76,0.48 33.21,0.46 31.66,0.43 30.19,0.39 28.72,0.35 27.44,0.27 26.16,0.20 24.23,0.23 22.31,0.27 19.41,0.39 16.52,0.51 12.51,0.69 8.51,0.88 7.21,0.97 5.91,1.07 4.52,1.38 3.14,1.70 1.74,1.89 0.34,2.09 0.09,2.10 -0.16,2.11 -0.41,2.06 -0.66,2.01 -0.89,1.90 -1.12,1.79 -1.32,1.63 -1.52,1.47 -1.67,1.27 -1.83,1.06 -1.93,0.83 -2.03,0.59 -2.07,0.34 -2.11,0.09 -2.09,-0.16 -2.07,-0.41 -1.99,-0.65 -1.91,-0.90 -1.78,-1.11 -1.64,-1.33 -1.46,-1.51 -1.28,-1.68 -1.05,-1.81 -0.83,-1.94 -0.59,-2.01 -0.34,-2.09 -0.34,-2.09 L -0.34,-2.09 Z"></path></g><g transform="translate(10 10) rotate(0 318.9965630815093 5.638828135279198)" stroke="none"><path fill="#000000" d="M 0.23,-1.63 Q 0.23,-1.63 1.86,-1.45 3.49,-1.28 4.97,-1.00 6.44,-0.72 11.09,-0.06 15.74,0.60 20.74,1.14 25.74,1.68 30.88,2.16 36.01,2.64 41.63,2.86 47.26,3.07 51.27,3.18 55.29,3.28 59.66,4.03 64.02,4.79 71.61,6.03 79.20,7.28 85.39,7.81 91.58,8.34 96.98,8.56 102.38,8.79 108.38,8.89 114.37,8.99 123.64,9.03 132.90,9.08 138.46,9.10 144.03,9.12 152.64,9.12 161.26,9.13 169.07,8.91 176.88,8.68 182.76,8.58 188.65,8.49 194.16,8.45 199.67,8.41 203.37,8.16 207.06,7.91 213.23,7.11 219.41,6.32 224.11,5.52 228.81,4.72 232.69,4.14 236.56,3.57 238.44,3.27 240.32,2.98 242.77,2.62 245.22,2.26 248.61,2.31 251.99,2.36 255.27,2.40 258.56,2.45 262.09,2.71 265.62,2.98 271.92,3.10 278.22,3.23 284.15,3.29 290.09,3.35 293.72,3.15 297.36,2.95 299.39,2.85 301.43,2.74 303.47,2.69 305.51,2.64 307.76,2.64 310.02,2.64 313.34,2.88 316.67,3.12 321.27,3.22 325.87,3.33 331.76,3.37 337.66,3.42 340.86,3.44 344.07,3.46 346.82,3.48 349.57,3.49 351.52,3.68 353.47,3.86 355.89,4.21 358.31,4.56 360.30,4.92 362.29,5.28 365.22,5.92 368.14,6.56 370.03,6.79 371.92,7.02 373.32,7.28 374.72,7.53 376.40,7.87 378.07,8.21 379.74,8.57 381.41,8.93 382.51,9.00 383.60,9.06 384.94,9.08 386.27,9.09 391.39,8.95 396.52,8.81 400.11,8.58 403.70,8.35 406.36,8.05 409.03,7.75 412.22,7.18 415.42,6.62 417.95,6.16 420.49,5.70 423.04,5.50 425.58,5.31 428.89,4.78 432.21,4.25 437.57,3.34 442.93,2.42 445.70,2.03 448.46,1.64 449.86,1.36 451.26,1.08 452.84,0.93 454.41,0.78 456.36,0.97 458.30,1.16 461.53,1.31 464.77,1.45 468.99,1.76 473.20,2.08 481.26,2.92 489.32,3.76 495.71,4.13 502.10,4.49 505.28,4.66 508.47,4.82 510.06,4.79 511.65,4.77 513.62,4.61 515.58,4.44 517.13,4.64 518.68,4.84 520.76,5.03 522.84,5.22 527.68,5.34 532.52,5.46 536.39,5.30 540.27,5.14 544.04,5.09 547.82,5.04 552.21,5.03 556.59,5.02 560.40,5.50 564.20,5.97 567.40,6.41 570.61,6.85 573.31,7.03 576.01,7.22 578.16,7.54 580.31,7.86 582.99,7.99 585.66,8.12 587.97,8.18 590.28,8.24 594.03,8.27 597.79,8.30 599.85,8.29 601.92,8.29 608.58,8.30 615.24,8.31 621.06,8.09 626.88,7.86 629.83,7.77 632.78,7.67 634.90,7.50 637.01,7.34 637.26,7.37 637.51,7.41 637.73,7.52 637.96,7.63 638.13,7.80 638.31,7.98 638.42,8.20 638.53,8.43 638.57,8.68 638.60,8.92 638.55,9.17 638.51,9.41 638.38,9.63 638.26,9.85 638.07,10.02 637.89,10.18 637.66,10.28 637.43,10.38 637.18,10.40 636.93,10.42 636.69,10.36 636.45,10.30 636.24,10.17 636.03,10.03 635.87,9.84 635.71,9.64 635.63,9.41 635.54,9.17 635.53,8.92 635.53,8.67 635.60,8.44 635.67,8.20 635.82,7.99 635.96,7.79 636.17,7.64 636.37,7.50 636.61,7.43 636.85,7.35 637.10,7.36 637.35,7.36 637.58,7.45 637.82,7.54 638.01,7.69 638.20,7.85 638.34,8.06 638.47,8.27 638.53,8.51 638.60,8.76 638.58,9.00 638.55,9.25 638.46,9.48 638.36,9.71 638.19,9.90 638.02,10.09 637.81,10.21 637.59,10.33 637.34,10.38 637.10,10.43 637.10,10.43 637.10,10.43 634.98,10.38 632.87,10.33 629.93,10.43 626.98,10.53 621.11,10.76 615.24,11.00 608.57,11.00 601.90,11.00 599.84,10.98 597.77,10.96 593.99,10.94 590.22,10.92 587.88,10.87 585.54,10.81 582.73,10.68 579.92,10.55 577.88,10.26 575.84,9.96 573.04,9.79 570.24,9.62 567.05,9.21 563.86,8.81 560.24,8.39 556.62,7.97 552.26,8.04 547.90,8.10 544.17,8.24 540.44,8.37 536.46,8.64 532.49,8.91 527.58,8.94 522.67,8.97 520.32,8.96 517.98,8.95 516.76,8.67 515.53,8.40 513.53,8.16 511.52,7.93 509.93,7.78 508.34,7.63 505.14,7.50 501.94,7.37 495.48,7.05 489.02,6.73 481.01,5.95 473.01,5.18 468.85,4.96 464.69,4.73 461.30,4.71 457.91,4.68 456.24,4.47 454.57,4.26 453.11,4.25 451.64,4.24 450.25,4.29 448.85,4.35 446.13,4.75 443.40,5.15 438.03,6.10 432.66,7.04 429.25,7.62 425.83,8.20 423.45,8.42 421.06,8.65 418.54,9.18 416.01,9.71 412.75,10.38 409.48,11.06 406.75,11.50 404.02,11.93 400.37,12.35 396.72,12.77 392.48,13.11 388.24,13.44 387.15,13.34 386.06,13.24 384.55,13.12 383.04,12.99 381.81,12.72 380.58,12.46 378.95,12.03 377.32,11.61 375.58,11.19 373.85,10.77 372.69,10.34 371.52,9.91 369.54,9.61 367.56,9.31 364.65,8.71 361.75,8.11 359.84,7.72 357.93,7.34 355.52,7.02 353.11,6.71 351.33,6.43 349.56,6.15 346.80,6.14 344.05,6.14 340.85,6.13 337.64,6.12 331.72,6.08 325.81,6.05 321.14,5.96 316.48,5.87 313.26,5.66 310.04,5.45 307.80,5.48 305.56,5.52 303.56,5.54 301.56,5.57 299.54,5.65 297.52,5.73 293.79,5.96 290.07,6.19 284.12,6.17 278.18,6.14 271.80,6.07 265.42,6.00 261.99,5.81 258.56,5.62 255.29,5.68 252.01,5.74 248.68,5.83 245.34,5.92 243.01,5.85 240.68,5.79 238.82,5.98 236.95,6.17 233.10,6.74 229.25,7.31 224.50,8.12 219.75,8.93 213.49,9.73 207.23,10.54 203.46,10.79 199.69,11.04 194.19,11.08 188.69,11.12 182.82,11.22 176.96,11.32 169.10,11.55 161.25,11.78 152.64,11.77 144.02,11.77 138.45,11.75 132.89,11.74 123.61,11.70 114.33,11.66 108.30,11.57 102.27,11.48 96.81,11.26 91.35,11.05 85.05,10.52 78.76,10.00 71.15,8.77 63.55,7.55 59.39,6.85 55.23,6.14 51.20,6.09 47.16,6.03 41.45,5.87 35.75,5.72 30.59,5.32 25.43,4.92 20.36,4.49 15.30,4.05 10.43,3.51 5.56,2.97 4.28,2.58 2.99,2.20 1.37,1.92 -0.23,1.63 -0.42,1.58 -0.61,1.53 -0.79,1.43 -0.96,1.34 -1.11,1.20 -1.26,1.07 -1.37,0.90 -1.48,0.73 -1.54,0.54 -1.61,0.36 -1.63,0.16 -1.65,-0.03 -1.62,-0.23 -1.59,-0.42 -1.52,-0.61 -1.44,-0.79 -1.33,-0.96 -1.21,-1.12 -1.06,-1.25 -0.91,-1.38 -0.73,-1.46 -0.55,-1.55 -0.35,-1.60 -0.16,-1.64 0.03,-1.64 0.23,-1.63 0.23,-1.63 L 0.23,-1.63 Z"></path></g><g transform="translate(560.9940635044252 199.38687534068208) rotate(0 33 10)"><text x="0" y="14" font-family="Virgil, Segoe UI Emoji" font-size="16px" fill="#000000" text-anchor="start" style="white-space: pre;" direction="ltr">hot item</text></g><g transform="translate(316.107813058014 184.74804720540305) rotate(0 35.5 10)"><text x="0" y="14" font-family="Virgil, Segoe UI Emoji" font-size="16px" fill="#000000" text-anchor="start" style="white-space: pre;" direction="ltr">cold item</text></g></svg>