<svg version="1.1" xmlns="http://www.w3.org/2000/svg" viewBox="0 0 605.8707346045771 269.57582706126294" width="1211.7414692091543" height="539.1516541225259">
  <!-- svg-source:excalidraw -->
  
  <defs>
    <style>
      @font-face {
        font-family: "Virgil";
        src: url("https://excalidraw.com/Virgil.woff2");
      }
      @font-face {
        font-family: "Cascadia";
        src: url("https://excalidraw.com/Cascadia.woff2");
      }
    </style>
  </defs>
  <g stroke-linecap="round" transform="translate(42.59300511839251 169.46040142720238) rotate(0 24.009235969472684 25.421543967676968)"><path d="M0.78 -1.76 C10.43 -1.36, 22.21 -1.58, 49.05 1.18 M-0.17 0.24 C15.54 0.68, 32.21 -0.39, 47.81 -0.71 M49.6 1.15 C47.03 16.36, 47.33 35.72, 48.04 51.77 M48.28 0.07 C47.22 14.09, 49.07 29.26, 48.74 50.33 M49.97 51.86 C32.52 50.77, 13.52 52.77, -0.56 49.67 M47.95 51.13 C31.41 50.96, 14.2 50.79, -0.58 50.48 M0.15 49.65 C-1.55 31.17, 0.78 13.53, -1.92 -1.93 M0.57 50.81 C1.4 35.38, 0.83 18.59, 0.88 0.91" stroke="#c92a2a" stroke-width="4" fill="none"></path></g><g stroke-linecap="round" transform="translate(90.61147705732992 169.46040142720238) rotate(0 24.009235969472684 25.421543967676968)"><path d="M-1.76 -1.02 C13.6 -0.87, 28.03 0.85, 49.2 0.52 M0.24 -0.12 C12.18 0.98, 22.68 -0.13, 47.3 0.34 M49.17 -1.48 C47.12 19, 49.49 40.39, 48.95 50.47 M48.09 -0.98 C48.18 17.93, 49.04 34.84, 47.5 51.29 M49.04 51.92 C36.37 49.96, 26.89 50.75, -1.17 51.81 M48.31 50.95 C28.83 50.43, 9.8 50.23, -0.36 51.33 M-1.2 49.64 C-2.02 33.25, -1.92 11.49, -1.93 0.15 M-0.03 51.79 C0.21 40.46, -0.94 30.19, 0.91 0.58" stroke="#c92a2a" stroke-width="4" fill="none"></path></g><g stroke-linecap="round" transform="translate(138.6946797795291 168.50032873288944) rotate(0 24.009235969472684 25.421543967676968)"><path d="M-1.02 -1.04 C16.9 -0.84, 36.21 1.6, 48.54 -1.18 M-0.12 0.6 C14.58 -0.58, 27.15 -0.83, 48.36 0.97 M46.54 -0.63 C47.24 14.37, 48.45 26.19, 47.64 51.55 M47.04 -0.21 C49.02 19.6, 48.88 37.39, 48.47 50.24 M49.09 50.69 C31.45 52.94, 17.03 49.91, 0.96 52.69 M48.12 50.5 C28.64 50.47, 9.45 50.62, 0.49 51.52 M-1.2 48.91 C1.09 32.9, -1.96 16.7, 0.15 -1.76 M0.95 51.01 C0.09 35.11, 0.59 22.25, 0.58 0.34" stroke="#c92a2a" stroke-width="4" fill="none"></path></g><g stroke-linecap="round" transform="translate(186.713151718483 167.5402560385765) rotate(0 24.009235969472684 25.421543967676968)"><path d="M-1.04 -0.68 C15.01 1.28, 33.72 0.76, 46.84 -0.3 M0.6 0.9 C13.14 -0.15, 26.49 0.4, 48.99 -0.52 M47.38 -1.18 C50.05 19.3, 49.24 38.18, 48.73 52.3 M47.81 0.87 C48.71 17.31, 47.54 33.62, 47.41 51.01 M47.86 49.49 C30.79 50.54, 8.68 52.06, 1.85 52.75 M47.68 50.46 C33.43 50.31, 19.51 51.38, 0.68 51.01 M-1.94 51.97 C-1.53 33.28, -1.62 19.7, -1.76 -0.2 M0.16 51.23 C-0.98 33.56, 0.92 15.11, 0.34 -0.93" stroke="#c92a2a" stroke-width="4" fill="none"></path></g><g stroke-linecap="round" transform="translate(235.2023929901552 167.5402560385765) rotate(0 24.009235969472684 25.421543967676968)"><path d="M-0.68 -1.26 C11.21 1.43, 20.87 -0.93, 47.72 -0.34 M0.9 -0.46 C15.35 -1, 31.47 0.68, 47.5 0.79 M46.83 1.74 C47.67 19.1, 47.27 37.06, 49.47 51.37 M48.89 0.65 C48.25 15.12, 47.97 30.66, 48.19 51.82 M46.66 52.69 C30.6 49.63, 15.27 52.66, 1.91 50.7 M47.64 50.33 C31.63 50.32, 16.9 51.36, 0.17 50.92 M1.13 49.01 C-1.61 36.71, 0.45 24.66, -0.2 1.14 M0.38 49.85 C0.4 36.65, 0.1 20.98, -0.93 -0.91" stroke="#c92a2a" stroke-width="4" fill="none"></path></g><g stroke-linecap="round" transform="translate(283.220864929106 167.5402560385765) rotate(0 24.009235969472684 25.421543967676968)"><path d="M-1.26 1.03 C13.15 0.68, 22.75 -0.14, 47.68 0.48 M-0.46 -0.21 C13.14 -0.09, 28.68 -0.95, 48.81 0.57 M49.76 0.03 C48.78 11.12, 48.57 24.43, 48.54 50.99 M48.67 0.72 C47.4 10.74, 47.3 20.74, 48.99 51.35 M49.87 50.28 C29.86 51.48, 15.89 52.43, -0.14 51.42 M47.5 50.26 C32.74 51.15, 18.87 50.83, 0.08 50.24 M-1.83 48.93 C-1.43 38.79, -1.27 26.24, 1.14 -0.06 M-0.99 51.72 C0.82 31.35, 0.25 9.76, -0.91 -0.36" stroke="#c92a2a" stroke-width="4" fill="none"></path></g><g stroke-linecap="round" transform="translate(331.2393368680496 167.5402560385765) rotate(0 24.009235969472684 25.421543967676968)"><path d="M1.03 1.18 C12.42 -0.88, 23.5 -0.03, 48.5 -0.23 M-0.21 -0.71 C17.65 1.19, 34.09 1.01, 48.59 -0.74 M48.04 0.93 C47.34 14.35, 49.17 27.81, 48.17 48.89 M48.74 -0.52 C48.91 13.58, 48.63 29.36, 48.53 51.38 M47.46 49.67 C34.95 53.14, 21.88 51.15, 0.58 51.05 M47.44 50.48 C35.73 51.28, 22.63 50.67, -0.6 50.24 M-1.92 48.92 C-0.14 38.75, -0.49 31.32, -0.06 1.9 M0.88 51.75 C0.39 35.1, -1.12 17.77, -0.36 0.49" stroke="#c92a2a" stroke-width="4" fill="none"></path></g><g stroke-linecap="round" transform="translate(379.25780880699233 167.5402560385765) rotate(0 24.009235969472684 25.421543967676968)"><path d="M1.18 0.52 C11.58 -0.55, 25.19 0.23, 47.79 1.21 M-0.71 0.34 C19.69 -0.42, 38.23 0.68, 47.28 -0.32 M48.95 -0.37 C49.17 13.7, 48.98 24.64, 46.07 50.43 M47.5 0.45 C47.74 19.86, 49.32 39.89, 48.56 50.76 M46.84 51.81 C38.72 52.62, 25.57 51.29, 0.21 50.17 M47.66 51.33 C36.12 50.73, 22.93 49.96, -0.6 49.88 M-1.93 50.99 C-1.3 32.52, 1.61 14.54, 1.9 0.33 M0.91 51.43 C0.84 32.71, -0.4 16.06, 0.49 0.55" stroke="#c92a2a" stroke-width="4" fill="none"></path></g><g stroke-linecap="round" transform="translate(426.33474208047676 168.50032873288944) rotate(0 24.009235969472684 25.421543967676968)"><path d="M0.52 -1.18 C11.07 -0.62, 23.22 -0.51, 49.23 1.8 M0.34 0.97 C11.66 1.13, 24.93 -0.4, 47.7 -0.59 M47.64 0.71 C49.48 20.19, 48.17 37.38, 47.6 52.59 M48.47 -0.61 C48.55 19.54, 48.9 37.66, 47.94 50.17 M48.98 52.69 C31.08 50.42, 10.91 50.77, -0.68 50.08 M48.51 51.52 C36.26 50.75, 23.57 50.07, -0.97 51.41 M0.15 49.08 C0.29 41.39, 0.43 31.56, 0.33 0.77 M0.58 51.18 C-1.37 39.72, -0.81 30.9, 0.55 0.58" stroke="#c92a2a" stroke-width="4" fill="none"></path></g><g stroke-linecap="round" transform="translate(474.3532140194171 168.50032873288944) rotate(0 24.009235969472684 25.421543967676968)"><path d="M-1.18 -0.3 C16.55 0.36, 33.55 1.08, 49.82 -0.93 M0.97 -0.52 C14.19 0.41, 26.06 -0.48, 47.43 0.87 M48.73 1.45 C48.78 15.47, 46.3 30.22, 49.76 52.15 M47.41 0.17 C48.73 19.45, 48.29 37.8, 47.34 51.77 M49.87 52.75 C34.83 51.66, 22.12 50.4, -0.76 49.81 M48.7 51.01 C36.49 50.48, 24.21 50.11, 0.56 49.93 M-1.76 50.64 C1.63 40.41, 2.39 30.41, 0.77 -1.98 M0.34 49.92 C-1.37 30.75, 0.03 11.94, 0.58 -0.63" stroke="#c92a2a" stroke-width="4" fill="none"></path></g><g stroke-linecap="round" transform="translate(10 71.77441892890937) rotate(0 42 22.5)"><path d="M0 0 C0 0, 0 0, 0 0 M0 0 C0 0, 0 0, 0 0 M-0.05 13.01 C4.58 7.83, 5.8 3.99, 11.18 1.52 M-0.46 11.79 C2.17 9.68, 5.26 6.35, 10.48 0.25 M-1.69 23.66 C9.77 16.37, 17.3 5.03, 22.16 -1.28 M0.8 24 C6 17.25, 13.05 8.09, 21.74 0.86 M-0.04 36.2 C11.73 21.12, 24.03 6.8, 32.87 1.26 M-0.86 35.91 C10.47 24.43, 19.13 12.67, 31.96 -0.99 M3.74 46.98 C14.14 31.11, 26.93 21.33, 43.69 0.54 M2.33 47.2 C11.29 36.47, 19.53 27.59, 41.65 -0.17 M14.42 44.88 C27.91 30.71, 40.64 16.84, 52.77 -0.38 M13.41 45.92 C21.53 36.59, 29.54 26.04, 52.96 -1.04 M24.67 46.97 C36.68 31.63, 53.39 14.99, 65.33 -0.52 M22.33 47.56 C32.3 35.9, 40.78 25.81, 63.61 -0.71 M35.3 45.88 C48.54 28.41, 63.22 11, 72.85 -1.21 M32.92 47.31 C48.56 31.12, 63.63 13.58, 73.77 0.55 M45.88 47.45 C53.98 33.03, 68.47 21.8, 85.62 0.49 M45.14 47.43 C54.15 35.97, 63.56 25.66, 85.27 0.6 M55.91 44.56 C61.49 39.24, 67.88 31.08, 84.02 12.68 M55.11 45.81 C65.8 33.67, 76.11 21.17, 84.7 12.14 M64.05 44.9 C70.25 39.87, 75.37 34.26, 83.31 22.7 M65.92 45.63 C71.5 39.29, 78.95 30.18, 84.84 23.58 M76.92 45.36 C78.99 44.05, 80.19 41.87, 84.2 37.62 M75.82 46.09 C78.76 44.18, 81.4 40.19, 84.72 36.1 M0.36 45.31 C0.36 45.31, 0.36 45.31, 0.36 45.31 M0.36 45.31 C0.36 45.31, 0.36 45.31, 0.36 45.31 M12.53 43.87 C9.89 42.42, 4.34 40.24, 1.69 35.4 M11.68 44.69 C9.48 43.01, 7.12 41.74, -0.25 34.98 M23.42 43.66 C14.45 36.02, 7.5 27.2, 0.76 23.17 M24.02 44.65 C15.02 37.21, 6.09 30.03, -0.24 23.51 M36.29 45.36 C26.45 37.84, 20.51 31.37, -1.68 14.49 M35.76 44.65 C24.93 34.74, 12.28 24.67, -0.53 13.31 M47.61 45.38 C34.54 33.43, 16.64 16.72, 0.01 1.12 M48.91 44.73 C38.47 34.46, 27.15 25.45, 0.7 2.24 M59.99 46.62 C44.73 29.75, 27.95 15.83, 3.04 -4.25 M61.74 46.16 C39.39 26.15, 17.14 5.73, 3.68 -4.85 M74.45 43.37 C58.41 32.87, 44.45 18.87, 14.71 -4.63 M72.56 44.21 C57.29 30.69, 39.01 16.44, 15.83 -4.11 M83.31 46.35 C68.08 30.74, 53.73 18.32, 29.98 -6.72 M85.33 44.08 C71.02 32.95, 59.29 21.33, 29.03 -4.91 M85.37 32.06 C74.86 26.19, 68 18.07, 42.57 -4.09 M84.52 33.99 C75.37 25.02, 65.35 15.9, 41.48 -4.2 M83.5 24.78 C77.68 17.24, 69.47 9.26, 52.86 -3.19 M85.46 23.95 C72.41 13.41, 60.26 3.03, 53.22 -4.77 M82.64 11.55 C80.02 6.35, 75.94 2.66, 65.53 -5.63 M84.04 12.53 C78.24 6.45, 73.09 1.43, 64.61 -4.71 M85.41 1.82 C82.79 0, 81.07 -1.75, 77.37 -3.82 M84.24 1.56 C81.91 0.29, 79.59 -2.72, 76.58 -4.58" stroke="#40c057" stroke-width="1" fill="none"></path><path d="M1.99 0.63 C31.16 -1.28, 67.43 -1.6, 83.05 0.09 M-0.7 -0.73 C28.03 -0.89, 54.2 0.36, 83.74 -0.91 M82.42 1.7 C84.07 15.32, 83.73 29.16, 84.85 46.28 M83.06 0.62 C82.73 15.43, 83.96 29.9, 84.09 45.49 M85.01 44.71 C65.42 45.03, 45.83 44.81, 0 43.99 M84.61 45.72 C50.35 45.29, 17.8 45.03, 0.47 44.05 M-0.77 43.91 C-0.85 34.12, -1.35 21.32, -0.89 0.99 M0.83 44.57 C-0.96 28.71, -0.33 10.76, 0.84 0.54" stroke="#c92a2a" stroke-width="2" fill="none"></path></g><g stroke-linecap="round" transform="translate(436.05641859231537 69.75559718177564) rotate(0 42 22.5)"><path d="M0 0 C0 0, 0 0, 0 0 M0 0 C0 0, 0 0, 0 0 M-1.14 13.06 C4.56 9.32, 6.85 2.65, 10.22 -1.38 M0.57 11.37 C3.01 7.98, 6.28 4.99, 10.25 0.13 M-0.84 24.57 C8.01 16.11, 11.67 9.04, 20.3 0.49 M0.38 24.72 C7.13 14.67, 15.17 7.39, 20.92 0.66 M-2.2 37.53 C9.35 27.21, 13.66 20.4, 31.18 1.55 M0.04 37.5 C10.45 23.82, 22.14 11.94, 31.53 0.56 M0 48.26 C14.75 32.59, 27.36 16.62, 42.34 -1.23 M1.47 47.57 C10.83 34.64, 21.21 24.84, 43.46 0.14 M12.4 46.88 C23.97 32.66, 35.22 19.12, 54.08 1.27 M11.59 46.51 C24.52 32.79, 36.9 19.17, 52.93 -0.62 M23.47 48.37 C38.69 29.36, 56.5 8.28, 63.32 -0.92 M23.89 45.95 C32.24 35.52, 42.23 24.51, 64.57 -0.13 M34.29 47.35 C43.69 36.72, 55.19 21.86, 73.35 -1.62 M33.04 47.06 C46.45 30.76, 61.76 15.2, 73.99 -0.31 M43.82 47.08 C54.26 34.67, 66.57 21.02, 85.02 -0.55 M44.93 47.25 C58.9 28.45, 73.92 12.1, 84.69 0.09 M56.73 44.66 C60.27 40.31, 67.08 32.24, 82.67 12.87 M54.27 46.12 C65.96 34.06, 74.7 22.59, 84.83 13.47 M65.23 46.19 C73.06 37.7, 80.82 27.25, 85.47 25.05 M65.18 46.33 C71.98 40.62, 77.68 32.94, 84.35 25.56 M76.63 47.42 C79.56 44.6, 81 40.83, 84.56 35.3 M76.6 45.82 C79.81 43.13, 82.82 39.13, 84.71 37.21 M0.36 45.31 C0.36 45.31, 0.36 45.31, 0.36 45.31 M0.36 45.31 C0.36 45.31, 0.36 45.31, 0.36 45.31 M11.94 44.6 C8.21 42.35, 4.35 37.06, -0.6 35.61 M12.97 45.44 C8.16 41.75, 5.55 40.04, 0.13 34.97 M23.76 46.53 C14.66 36.46, 4.36 31.23, 2.01 25.22 M23.98 44.7 C15.27 38.65, 7.38 30.89, 0.72 23.09 M36.43 45.83 C29.01 36.56, 21.67 30.44, -0.35 13.06 M37.01 44.33 C21.74 32.04, 9.53 20.96, 0.31 14.23 M49.2 45.47 C30.86 29.33, 12.87 12.6, 0.48 4.23 M49.28 44.5 C32.51 30.97, 18.15 17.15, 0.95 2.92 M62.39 44.57 C40.53 29.75, 23.6 11.45, 3.2 -3.1 M62.16 45.41 C39.53 25.56, 17.34 6.97, 4.43 -4.54 M72.07 46.77 C49.41 23.05, 29.6 6.65, 17.56 -2.91 M72.97 45.6 C59.74 35.18, 47.59 23.4, 16.79 -4.71 M85.66 44.73 C63.79 25.78, 38.94 4.37, 28.65 -5.95 M84.24 45.15 C61.21 24.44, 39.99 4.82, 27.37 -3.94 M83.64 32.82 C72.92 22.61, 60.96 13.27, 42.56 -3.5 M84.34 34.09 C75.17 25.78, 67.32 18.38, 40.22 -3.4 M83.84 24.51 C74.66 13.67, 64.05 7.24, 52.9 -6.08 M85.44 22.53 C72.76 12.62, 61.45 3.18, 53.43 -4.03 M86.04 10.69 C80.83 6.62, 72.51 2.11, 65.09 -6.25 M84.91 12.66 C76.48 5.99, 70.56 -0.36, 65.26 -4.7 M83.81 2.28 C80.93 -1.59, 78.27 -2.56, 76.09 -5.41 M84.4 2.2 C82.39 0.8, 81.25 -1.24, 77.31 -4.32" stroke="#228be6" stroke-width="1" fill="none"></path><path d="M-0.1 -0.89 C31.52 1.4, 59.09 0.24, 85.25 0.97 M0.86 0.83 C29.71 -0.82, 60.33 0.24, 83.98 -0.61 M82.1 0.49 C83.28 9.8, 81.69 23.39, 82.62 45.36 M83.65 -0.22 C83.37 11.72, 83.62 23.89, 84.68 44.17 M84.98 45.25 C56.62 46.59, 29.01 46.65, 0.98 43.84 M84.19 45.48 C60.77 45.69, 38.92 44.89, 0 44.67 M-0.26 43.64 C1.23 31.79, 1.13 13, -0.74 -1.28 M0.69 45.63 C0.89 33.92, -0.49 23.73, 0.35 0.29" stroke="#c92a2a" stroke-width="2" fill="none"></path></g><g transform="translate(84.29842787419807 234.57582706126294) rotate(0 201 12.5)"><text x="0" y="18" font-family="Virgil, Segoe UI Emoji" font-size="20px" fill="#343a40" text-anchor="start" style="white-space: pre;" direction="ltr">slots now have ranking. 0 is the highest.</text></g><g stroke-linecap="round" transform="translate(96.55930555229997 72.22504099836203) rotate(0 42 22.5)"><path d="M0 0 C0 0, 0 0, 0 0 M0 0 C0 0, 0 0, 0 0 M-0.71 10.77 C3.2 8.4, 6.76 5.83, 10.93 0.06 M0.79 11.65 C3.39 8.01, 6.69 4.53, 11.2 -0.08 M0.17 25.02 C6.14 14.02, 15.51 5.53, 20.21 1.42 M-0.24 25.02 C5.89 16.5, 12.03 10.09, 21.13 0.42 M1.13 38.22 C8.1 24.4, 17.68 14.69, 33.55 -0.77 M0.3 36.07 C6.5 30.66, 13.39 22.85, 31.3 0.7 M0.97 47.5 C14.18 33.96, 25.72 23.05, 41.67 -0.57 M2.59 46.2 C13.93 31.14, 27.1 16.12, 41.63 -0.6 M12.63 47.8 C21.09 33.85, 32.11 25.74, 54 -0.03 M11.49 45.96 C21.97 37.08, 29.71 25.71, 52.92 -0.99 M23.89 48.28 C30.8 37.39, 41.98 24.89, 62.64 -2.01 M23.22 45.59 C37.12 32.15, 49.76 16.94, 63.53 -0.2 M32.27 44.93 C45.5 32.82, 58.43 21.1, 76.33 -1.18 M32.81 46.56 C44.61 34.42, 54.76 21.84, 74.88 -1.24 M42.37 47.42 C58.25 30.06, 71.58 14.3, 83.73 -0.18 M45.09 46.32 C52.59 37.28, 60.69 26.51, 85.33 0.41 M53.91 46.25 C64.61 37.01, 72.22 25.54, 83.47 12.53 M55.29 46.3 C61.26 39.68, 68.02 32.5, 83.87 12.73 M67.59 45.71 C71.52 36.53, 79.08 29.03, 83.63 25.96 M66.49 46.89 C71.92 38.41, 78.24 30.54, 84.17 25.49 M76.78 46.81 C79.39 44.51, 80.42 40.72, 83.54 36.82 M76.22 47.03 C79.24 43.8, 82.25 39.99, 85.1 36.48 M0.36 45.31 C0.36 45.31, 0.36 45.31, 0.36 45.31 M0.36 45.31 C0.36 45.31, 0.36 45.31, 0.36 45.31 M11.41 44.04 C8.9 41.38, 4.63 39.27, -0.01 35.29 M12.43 45.25 C8.11 41.63, 4.9 39.57, -0.36 35.36 M25.78 46.72 C18.01 38.91, 14.96 36, -1.11 23.81 M25.37 44.61 C18.4 39.33, 11.42 32.95, 0.98 24.35 M36.96 44.63 C28.76 38.13, 17.1 27.08, 0.05 12.86 M36.7 44.43 C28.01 38.21, 19.17 31.65, 1.05 12.84 M48.13 43.14 C28.86 28.87, 12.12 12.08, -1 3.65 M49 45.1 C33.7 33.08, 20.32 19.55, 0.69 3.39 M62.04 45.82 C39.6 28.8, 19.16 10.28, 5.12 -2.63 M62.2 45.34 C40.59 27.09, 19.32 9.57, 4.07 -4.89 M71.68 44.63 C56.97 30.61, 38.12 12.89, 14.49 -4.25 M74.13 44.62 C54.24 27.65, 34.83 9.98, 16.02 -4.83 M83.99 46.23 C64.56 24.55, 41.43 4.46, 26.25 -5.65 M84.78 44.38 C70.25 30.44, 55 19.26, 28.01 -4.04 M85.74 34.57 C72.5 22.44, 63.91 15.87, 40.4 -3.39 M83.76 34.48 C72.33 23.39, 61.45 13.64, 40.53 -3.9 M83.89 22.13 C70.6 11.11, 61.33 2.24, 52.44 -2.89 M85.32 23.42 C73.24 13.41, 61.75 3.18, 53.33 -4.43 M86.33 14.15 C79.26 8.22, 72.66 4.88, 65.84 -3.47 M84.65 12.43 C77.5 7.11, 69.42 -1.14, 64.47 -4.44 M84.84 1.7 C82.04 -0.17, 79.57 -3.58, 77.94 -4.29 M84.11 1.56 C82.46 0.02, 80.84 -1.5, 76.88 -4.9" stroke="#40c057" stroke-width="1" fill="none"></path><path d="M-0.59 -1.88 C25.25 0.71, 51.69 0.18, 85.14 -1.09 M0.64 -0.72 C17.38 0.18, 34.82 -0.77, 83.82 -0.55 M85.25 1.55 C85.96 16.4, 85.57 32.13, 82.13 46.42 M83.55 -0.06 C84.15 10.12, 84.06 19.46, 83.7 44.41 M82.92 44.46 C62.16 44.75, 37.3 43.61, 1.48 46.11 M83.04 45.66 C66.87 44.09, 49.24 44.39, -0.39 45.14 M-1.4 45.36 C-1.57 29.11, 0.42 13.13, 1.13 -0.62 M0.64 44.75 C1.26 29.58, -0.12 11.67, -0.77 -0.25" stroke="#c92a2a" stroke-width="2" fill="none"></path></g><g stroke-linecap="round" transform="translate(183.0834077957595 70.75853079084581) rotate(0 42 22.5)"><path d="M0 0 C0 0, 0 0, 0 0 M0 0 C0 0, 0 0, 0 0 M-0.59 11.03 C2.15 8.92, 5.3 6.62, 10.77 0.26 M-0.47 11.64 C2.67 8.39, 7.44 3.97, 9.84 0.5 M1.36 26.08 C7.01 19.83, 8.78 14.54, 20.65 -0.96 M0.85 24.06 C7.78 17.31, 13.01 8.75, 21.4 -0.53 M-2.02 35.75 C10.44 21.51, 21.5 8.71, 30.47 -0.98 M-0.71 36.05 C12.91 22.45, 25.72 7.33, 31.06 -0.67 M2.64 47.39 C10.57 34.13, 21.15 23.09, 40.89 -1.81 M1.05 47.25 C15.86 29.84, 28.78 13.55, 42.76 -0.03 M14.22 47.51 C22.28 37.25, 30.34 25.84, 52.8 -0.17 M12.61 46.3 C24.72 34.67, 35.88 21.06, 52.85 -0.14 M22.94 47.1 C31.58 35.85, 44.17 21.93, 64.43 0.56 M23.48 45.91 C34.15 33.78, 43.64 22.61, 62.85 0.68 M34.4 47.16 C45.81 30.84, 59.56 18.56, 74.43 0.26 M34.14 46.95 C46.62 31.57, 59.19 17.01, 73.48 -1.11 M44.1 46.46 C53.92 36.27, 60.22 27.12, 86.21 -1.28 M43.49 45.78 C52.67 35.45, 62.55 25.34, 84.89 0.97 M54.47 45.45 C59.94 37.47, 66.66 33.35, 83.23 10.73 M55.79 46.85 C66.01 32.83, 76.12 20.99, 84.82 12.07 M66.01 48.2 C70.99 41.21, 75.4 35.77, 85.53 26.2 M64.67 46.14 C69.92 40.9, 73.73 37.34, 85.11 24.8 M74.97 46.39 C78.28 42.63, 79.75 39.89, 84.26 37.13 M76.12 45.99 C78 43.68, 80.74 41.48, 84.77 36.19 M0.36 45.31 C0.36 45.31, 0.36 45.31, 0.36 45.31 M0.36 45.31 C0.36 45.31, 0.36 45.31, 0.36 45.31 M13.67 45.77 C9.93 42.03, 5.99 39.16, -0.25 34.78 M13.15 45.83 C8.98 41.84, 5.68 39.19, -0.3 35.33 M24.09 44.92 C12.86 37.33, 6.83 27.12, 1.89 25.3 M23.92 45.19 C18.75 39.35, 11.84 34.82, 0.15 25.04 M35.32 46.39 C28.37 36.82, 21.9 32.87, 1.51 15.42 M36.27 45.84 C27.19 37.76, 18.66 30.07, 0.94 12.77 M48.63 44.88 C32.76 33.37, 18.01 17.75, 0.5 3.51 M49.43 45.54 C38.37 34.83, 26.15 25.77, 0.62 1.93 M61.18 44.79 C47.05 30.96, 33.27 20.62, 5.72 -4.15 M62.31 44.85 C43.04 28.5, 22.89 12.65, 3.54 -3.92 M74.39 43.7 C61.08 36.34, 49.35 25.97, 14.86 -4.07 M72.67 44.19 C57.69 32.09, 41.42 18.53, 15.62 -4.93 M82.79 43.55 C67.33 29.59, 50.44 16.03, 29.92 -5.4 M83.86 43.64 C63.06 24.72, 39.45 5.62, 28.72 -5.29 M84.97 34.11 C68.63 19.81, 52.51 5.43, 40.18 -2.97 M84.65 33.99 C74.53 27.04, 66.52 18.84, 41.52 -3.62 M85.15 25.12 C75.51 14.27, 67.83 9.61, 53.94 -5.22 M84.75 23.46 C77.57 15.99, 70.91 10.82, 52.15 -5.33 M82.99 11.36 C79.33 7.51, 76.07 4.36, 64.09 -6.28 M85.48 12.39 C77.6 6.2, 70.54 -1.11, 65.71 -4.11 M85.24 2.14 C82.16 0.71, 81.75 -1.36, 76.57 -5.69 M84.33 1.74 C82.24 -0.81, 79.2 -2.73, 77.08 -4.89" stroke="#40c057" stroke-width="1" fill="none"></path><path d="M1.12 1.07 C20.45 0.6, 38.42 -1.13, 83.56 -0.76 M0.75 0.11 C20.44 -0.23, 41.65 0.78, 83.09 0.39 M84.77 -1.77 C84.11 12.2, 82.78 27.03, 84.89 44.63 M83.17 -0.2 C83.85 8.96, 84.25 18.48, 84.6 44.13 M85.74 46.55 C58.84 42.94, 34.18 44.29, -1.95 43.63 M83.53 44.81 C57.85 43.29, 32.13 44.36, 0.82 45.03 M0.69 44.74 C-0.95 33.95, -0.54 21.07, 0.22 0.3 M-0.11 45.03 C0.31 35.18, 0.43 23.88, 0.28 0.32" stroke="#c92a2a" stroke-width="2" fill="none"></path></g><g stroke-linecap="round" transform="translate(267.40774472794476 71.49178589460394) rotate(0 42 22.5)"><path d="M0 0 C0 0, 0 0, 0 0 M0 0 C0 0, 0 0, 0 0 M1.53 13.36 C2.97 7.56, 7.46 3.04, 11.76 1.15 M-0.24 11.31 C2.2 8.66, 5.01 5.61, 11.41 0.03 M1.07 25.03 C8.76 15.72, 13.8 5.77, 20.01 -2.03 M-0.43 23.24 C4.85 17.54, 9.18 11.87, 21.66 0.33 M0.46 35.79 C11.27 20.64, 25.27 8.43, 30.42 0.14 M0.07 37.29 C5.63 29.31, 12.15 21.89, 31.61 -0.84 M3.56 47.52 C12.6 35.6, 18.97 26.38, 41.36 -1.99 M0.94 46.95 C14.58 31.48, 26.67 18.79, 42.03 -1.13 M13.24 44.84 C25.69 30.08, 38.54 16.36, 53.12 1.28 M12.61 45.7 C24.65 33.33, 35.1 20.54, 53.31 -0.71 M22.65 46.13 C33.59 32.94, 44.5 17.7, 62.1 0.38 M23.63 46.4 C33.98 33.62, 47.02 19.33, 63.17 0.78 M32.1 46.15 C43.84 35.93, 56.57 23.2, 72.79 1.48 M33.12 45.83 C47.37 31.6, 61.2 13.68, 75.17 0.16 M44.45 44.97 C55.32 31.48, 71.07 15.04, 83.01 0.38 M44.84 46.52 C60.54 27.82, 76.27 10.68, 83.62 0.45 M55.07 44.96 C61.89 39.25, 70.95 30.13, 84.01 10.58 M54.68 45.67 C64.65 33.79, 75.53 23.19, 84.19 11.9 M63.8 45.92 C69.61 42.32, 74.34 35.29, 85.93 24.63 M65.17 47.16 C70.85 40.65, 76.69 32.52, 85.06 25.23 M76.62 46.21 C78.69 42.57, 82.75 37.87, 84.87 37.81 M76.8 46.46 C78.81 44.06, 80.32 41.39, 84.61 36.76 M0.36 45.31 C0.36 45.31, 0.36 45.31, 0.36 45.31 M0.36 45.31 C0.36 45.31, 0.36 45.31, 0.36 45.31 M12.86 44.75 C8.85 43.6, 6.97 42.2, -1.08 35.44 M12.29 44.57 C8.83 42.27, 4.95 39.11, -0.05 34.97 M24.38 46.45 C17.77 40.35, 10.1 30.29, 0.58 25.82 M24.34 45.93 C17.2 38.35, 9.9 32.67, -0.43 23.21 M37.45 44.36 C24.79 37.03, 17.2 26.26, -0.91 14.97 M36.47 43.92 C27.64 36.95, 19.61 29.57, 0.54 13.09 M49.34 42.89 C27.35 27.25, 9.33 12.86, -1.61 3.05 M48.39 45.55 C33.79 32.62, 18.77 19.56, -0.04 3.36 M61.99 46.01 C41.67 28.66, 21.79 10.26, 3.97 -6.27 M60.96 45.09 C40.09 26.88, 19.94 7.59, 4.95 -4.9 M74.99 45.67 C58.96 33.8, 46.38 18.85, 17.48 -3.21 M73.69 45.25 C54.79 28.81, 35.06 13.01, 15.08 -3.79 M83.37 46.06 C63.86 26.76, 42.61 8.17, 27.03 -4.62 M84.08 43.4 C67.42 30.61, 51.77 15.63, 27.34 -4.49 M85.35 32.25 C74.09 23.91, 58.25 10.52, 39.07 -5.88 M84.01 33.12 C74.27 23.99, 63.52 14.42, 41.52 -5.22 M84.83 23.37 C77.55 14.9, 71.18 11.2, 50.95 -3.69 M83.79 23.31 C75.42 14.59, 65.41 6.07, 53.46 -5.15 M86.08 10.9 C77.02 5.81, 69.46 -1.87, 65.43 -3.09 M85.42 13.3 C77.75 6.97, 72.29 1.5, 65.07 -5.48 M83.75 1.69 C83.19 0.95, 80.36 -2.58, 76.28 -4.83 M84.01 1.77 C82.8 0.37, 80.23 -1.97, 77.42 -4.39" stroke="#40c057" stroke-width="1" fill="none"></path><path d="M0.34 -0.87 C27.85 -0.45, 54.63 -1.57, 83.75 1.28 M-0.51 -0.93 C22.33 -0.9, 45.24 -1.34, 84.09 -0.93 M83.61 -1.75 C83.88 9.41, 85.42 18.1, 83.03 43.98 M83.41 0.13 C83.77 11.82, 84.26 25.1, 83.35 44.47 M84.15 46.54 C65.83 45.15, 47.47 45.66, -0.6 46.64 M83.63 45.48 C63.63 44.84, 42.6 45.1, 0.86 44.95 M-0.53 44.84 C-0.6 30.87, 0.29 14.26, -0.94 -1.01 M-0.44 45.02 C0.07 27.76, 0.29 9.72, 0.2 0.69" stroke="#c92a2a" stroke-width="2" fill="none"></path></g><g stroke-linecap="round" transform="translate(350.9988265563719 70.75853079084573) rotate(0 42 22.5)"><path d="M0 0 C0 0, 0 0, 0 0 M0 0 C0 0, 0 0, 0 0 M0.77 12.63 C1.63 7.89, 4.87 5.08, 9.33 -1.37 M-0.5 12.52 C3.95 7.41, 6.78 3.01, 10.82 0.05 M2.01 24.97 C5.64 19.64, 9.25 13.36, 20.91 -0.06 M0.4 23.77 C7 18.13, 12.81 10.66, 20.96 -0.03 M-0.42 37.39 C6.06 28.52, 16.58 16.98, 32.54 0.67 M0.12 36.21 C8.55 26.57, 15.91 17.86, 30.96 0.79 M2.51 47.26 C13.92 30.94, 27.67 18.67, 42.54 0.36 M2.25 47.05 C14.73 31.68, 27.3 17.11, 41.59 -1.01 M12.21 46.56 C22.17 36.21, 28.61 26.9, 54.98 -1.93 M11.6 45.89 C20.93 35.38, 30.96 25.09, 53.65 0.32 M22.58 45.55 C30.38 34.72, 39.54 27.79, 62.49 -2 M23.9 46.95 C38.27 28.08, 52.58 11.4, 64.09 -0.65 M34.12 48.31 C44.12 35.35, 53.53 24.15, 75.29 1.4 M32.78 46.24 C42.86 35.55, 51.51 26.44, 74.87 0 M42.39 46.48 C55.16 32.07, 64.81 19.36, 83.57 1.3 M44.16 45.87 C54.43 34.24, 65.82 22.58, 84.37 -0.15 M53.11 45.24 C64.83 35.52, 74.77 23.41, 82.72 11.47 M54.26 45.57 C65.1 34.51, 74.17 22.98, 84.42 11.68 M67.21 47.19 C72.92 39.97, 78.46 33.69, 83.93 24.68 M66.56 47.26 C70.67 39.93, 75.89 34.2, 83.87 25.37 M76.02 46.33 C78.34 43.04, 84.03 37.92, 85.83 37.41 M75.92 46.51 C78.59 43.86, 80.13 41.87, 84.69 37.24 M0.36 45.31 C0.36 45.31, 0.36 45.31, 0.36 45.31 M0.36 45.31 C0.36 45.31, 0.36 45.31, 0.36 45.31 M12.48 45.26 C8.34 43.3, 4.89 38.06, 0.55 35.26 M13.12 45.79 C10.13 42.54, 6.39 40.55, 0.64 33.99 M24.3 44.54 C18.42 37.86, 12.66 34.49, 2.05 24.46 M25.43 44.6 C16.98 37.42, 7.74 31.06, -0.13 24.69 M37.51 43.44 C28.63 39.91, 21.3 33.36, -0.89 14.05 M35.8 43.94 C26.71 36.78, 16.23 28.26, -0.13 13.18 M46.66 43.95 C33.64 32.1, 19.24 20.7, 2.1 2.22 M47.73 44.04 C30.22 28.04, 9.92 11.82, 0.9 2.33 M61.68 45.66 C40.17 26.99, 18.97 8.19, 3.3 -3.23 M61.36 45.54 C48.3 36.25, 37.48 25.59, 4.64 -3.87 M73.94 47.17 C57.87 30.74, 43.78 20.51, 17.07 -5.48 M73.53 45.51 C60.39 32.87, 47.83 22.58, 15.28 -5.58 M83.09 43.25 C71.87 32.38, 60.8 22.44, 27.22 -6.53 M85.59 44.28 C64.37 25.99, 43.68 6.84, 28.83 -4.37 M86.08 34.31 C73.99 26.36, 67.34 17.16, 40.05 -6.28 M84.25 33.5 C69.98 19.76, 53.64 7, 41.07 -4.68 M84.62 24.56 C75.81 15.84, 62.99 5.1, 54.06 -4.38 M84.02 23.84 C74.08 14.24, 65.69 6.67, 53.08 -5.12 M85.07 13.03 C78.02 8.09, 76.51 5.24, 63.52 -6.38 M84.97 12.68 C76.04 6.33, 69.69 -0.75, 65.86 -5.01 M84.66 1.63 C82.06 -0.61, 80.58 -0.82, 76.76 -5.56 M84.26 1.67 C82.16 -0.69, 79.1 -2.45, 76.57 -4.59" stroke="#40c057" stroke-width="1" fill="none"></path><path d="M0.69 -0.26 C19.93 0.46, 41.46 -1.12, 84.22 0.3 M-0.11 0.03 C19.85 1.44, 39.73 0.73, 84.28 0.32 M83.64 -0.25 C83.63 13.12, 85.79 24.21, 85.54 45.42 M83 -0.39 C83.71 17.3, 83.45 35.5, 83.92 45.25 M83.1 43.74 C61.87 45.83, 41.24 46.77, 0.18 45.36 M83.25 44.5 C56.15 45.93, 30.99 45.23, -0.99 45.67 M1.09 47 C1.71 35.7, -1.44 25.53, -0.61 -0.89 M0.58 44.98 C1.07 31.83, -0.23 16.78, 0.14 -0.47" stroke="#c92a2a" stroke-width="2" fill="none"></path></g><g transform="translate(50.56869310132413 175.71565344933796) rotate(0 6 9.999999999999986)"><text x="0" y="14" font-family="Virgil, Segoe UI Emoji" font-size="16px" fill="#343a40" text-anchor="start" style="white-space: pre;" direction="ltr">0</text></g><g transform="translate(98.09631567566782 175.64867386437058) rotate(0 2.5 9.999999999999986)"><text x="0" y="14" font-family="Virgil, Segoe UI Emoji" font-size="16px" fill="#343a40" text-anchor="start" style="white-space: pre;" direction="ltr">1</text></g><g transform="translate(240.34780580474558 173.44890855309606) rotate(0 5.5 9.999999999999986)"><text x="0" y="14" font-family="Virgil, Segoe UI Emoji" font-size="16px" fill="#343a40" text-anchor="start" style="white-space: pre;" direction="ltr">4</text></g><g transform="translate(191.95296895670867 172.71565344933796) rotate(0 6 9.999999999999986)"><text x="0" y="14" font-family="Virgil, Segoe UI Emoji" font-size="16px" fill="#343a40" text-anchor="start" style="white-space: pre;" direction="ltr">3</text></g><g transform="translate(145.7578974199463 173.44890855309606) rotate(0 6 9.999999999999986)"><text x="0" y="14" font-family="Virgil, Segoe UI Emoji" font-size="16px" fill="#343a40" text-anchor="start" style="white-space: pre;" direction="ltr">2</text></g><g transform="translate(289.47589775654023 171.98239834557987) rotate(0 5.5 9.999999999999986)"><text x="0" y="14" font-family="Virgil, Segoe UI Emoji" font-size="16px" fill="#343a40" text-anchor="start" style="white-space: pre;" direction="ltr">5</text></g><g transform="translate(337.13747950081904 171.24914324182177) rotate(0 5.5 9.999999999999986)"><text x="0" y="14" font-family="Virgil, Segoe UI Emoji" font-size="16px" fill="#343a40" text-anchor="start" style="white-space: pre;" direction="ltr">6</text></g><g transform="translate(386.2655714526138 174.18216365685416) rotate(0 5 9.999999999999986)"><text x="0" y="14" font-family="Virgil, Segoe UI Emoji" font-size="16px" fill="#343a40" text-anchor="start" style="white-space: pre;" direction="ltr">7</text></g><g transform="translate(435.3936634044088 175.64867386437047) rotate(0 6.5 9.999999999999986)"><text x="0" y="14" font-family="Virgil, Segoe UI Emoji" font-size="16px" fill="#343a40" text-anchor="start" style="white-space: pre;" direction="ltr">8</text></g><g transform="translate(480.8554798374129 174.91541876061237) rotate(0 5.5 9.999999999999986)"><text x="0" y="14" font-family="Virgil, Segoe UI Emoji" font-size="16px" fill="#343a40" text-anchor="start" style="white-space: pre;" direction="ltr">9</text></g><g transform="translate(343.87073460457714 10) rotate(0 126 10)"><text x="0" y="14" font-family="Virgil, Segoe UI Emoji" font-size="16px" fill="#343a40" text-anchor="start" style="white-space: pre;" direction="ltr">stash buckets are probationary</text></g><g stroke-linecap="round"><g transform="translate(479.14915613109474 40.183903886089226) rotate(0 -2.842823396839549 13.100699023506522)"><path d="M0.24 0.5 C-0.75 4.85, -4 20.93, -4.94 25.29 M-1.1 -0.28 C-2.34 4.28, -5.03 22.33, -5.92 26.48" stroke="#343a40" stroke-width="1" fill="none"></path></g><g transform="translate(479.14915613109474 40.183903886089226) rotate(0 -2.842823396839549 13.100699023506522)"><path d="M-7.65 13.41 C-8.13 17.89, -5.78 22.42, -4.87 26.3 M-8.66 13.63 C-7.13 16.09, -7.35 19.77, -6.57 26.09" stroke="#343a40" stroke-width="1" fill="none"></path></g><g transform="translate(479.14915613109474 40.183903886089226) rotate(0 -2.842823396839549 13.100699023506522)"><path d="M1.24 14.99 C-2.64 18.88, -3.7 22.81, -4.87 26.3 M0.23 15.21 C-0.42 17.33, -2.81 20.63, -6.57 26.09" stroke="#343a40" stroke-width="1" fill="none"></path></g></g><g transform="translate(21.35836679739748 10) rotate(0 121 10)"><text x="0" y="14" font-family="Virgil, Segoe UI Emoji" font-size="16px" fill="#343a40" text-anchor="start" style="white-space: pre;" direction="ltr">regular buckets are protected</text></g><g stroke-linecap="round"><g transform="translate(178.88833625899724 41.197418424018366) rotate(0 16.48264485648008 12.737263476095755)"><path d="M1.14 0.7 C6.24 4.65, 25.58 20.23, 30.51 24.27 M0.28 0.02 C5.75 4.07, 27.2 21.09, 32.69 25.46" stroke="#343a40" stroke-width="1" fill="none"></path></g><g transform="translate(178.88833625899724 41.197418424018366) rotate(0 16.48264485648008 12.737263476095755)"><path d="M14.78 17.41 C18.12 19.44, 24.74 24.08, 33.17 23.64 M13.64 18.98 C20.56 22.58, 27.69 23.56, 32.79 26.37" stroke="#343a40" stroke-width="1" fill="none"></path></g><g transform="translate(178.88833625899724 41.197418424018366) rotate(0 16.48264485648008 12.737263476095755)"><path d="M23.33 6.64 C24.21 11.9, 28.34 19.69, 33.17 23.64 M22.18 8.21 C25.78 15.93, 29.61 21.06, 32.79 26.37" stroke="#343a40" stroke-width="1" fill="none"></path></g></g></svg>