<svg version="1.1" xmlns="http://www.w3.org/2000/svg" viewBox="0 0 915.749138041921 271" width="1831.498276083842" height="542">
  <!-- svg-source:excalidraw -->
  
  <defs>
    <style>
      @font-face {
        font-family: "Virgil";
        src: url("https://excalidraw.com/Virgil.woff2");
      }
      @font-face {
        font-family: "Cascadia";
        src: url("https://excalidraw.com/Cascadia.woff2");
      }
    </style>
  </defs>
  <g transform="translate(72.24279681030663 93) rotate(0 294.5 -0.5)" stroke="none"><path fill="#000000" d="M 0,-1.61 Q 0,-1.61 4.02,-1.57 8.05,-1.53 23.01,-0.92 37.97,-0.32 52.07,-0.05 66.16,0.21 75.85,-0.24 85.54,-0.69 91.70,-0.88 97.86,-1.07 101.63,-1.15 105.40,-1.23 108.45,-1.26 111.49,-1.29 113.36,-1.35 115.23,-1.42 117.46,-1.41 119.69,-1.40 122.94,-1.39 126.19,-1.38 129.87,-1.37 133.55,-1.36 137.42,-1.35 141.28,-1.35 145.51,-1.34 149.74,-1.34 154.41,-1.33 159.09,-1.33 163.37,-1.33 167.66,-1.32 171.73,-1.61 175.81,-1.89 180.75,-2.01 185.70,-2.13 192.66,-2.47 199.62,-2.81 205.99,-3.53 212.37,-4.24 217.14,-4.55 221.91,-4.86 225.95,-4.99 230.00,-5.12 233.45,-5.17 236.89,-5.23 239.51,-5.25 242.12,-5.27 243.81,-5.37 245.50,-5.47 247.94,-5.45 250.39,-5.43 253.22,-5.12 256.06,-4.81 259.82,-4.39 263.58,-3.97 269.51,-3.21 275.43,-2.45 279.39,-1.84 283.36,-1.22 286.21,-0.67 289.07,-0.11 291.98,0.40 294.90,0.92 297.32,1.43 299.73,1.95 301.83,2.15 303.92,2.36 307.95,2.45 311.99,2.54 317.45,2.58 322.91,2.62 327.54,2.64 332.16,2.65 337.00,2.66 341.84,2.67 347.06,2.67 352.28,2.68 357.95,2.68 363.62,2.68 367.17,2.68 370.73,2.68 373.40,2.68 376.06,2.68 378.63,2.68 381.20,2.68 386.28,2.39 391.36,2.11 395.81,1.70 400.26,1.29 403.92,1.12 407.57,0.94 410.56,0.87 413.56,0.79 416.20,0.48 418.84,0.16 421.76,0.02 424.68,-0.11 427.94,-0.16 431.19,-0.22 434.58,-0.25 437.98,-0.27 441.03,-0.85 444.08,-1.42 446.63,-1.68 449.18,-1.93 451.71,-2.04 454.25,-2.15 457.05,-2.20 459.85,-2.24 463.35,-2.26 466.84,-2.28 471.20,-2.29 475.55,-2.30 480.24,-2.59 484.93,-2.88 489.21,-3.29 493.50,-3.69 496.80,-3.87 500.09,-4.05 502.28,-4.40 504.46,-4.76 508.08,-4.92 511.70,-5.08 514.66,-5.15 517.61,-5.21 521.46,-5.24 525.31,-5.27 529.49,-5.56 533.67,-5.86 536.92,-5.99 540.17,-6.12 544.72,-6.17 549.27,-6.23 552.93,-6.25 556.59,-6.27 560.73,-6.28 564.87,-6.29 571.23,-6.30 577.59,-6.30 580.93,-6.01 584.26,-5.73 586.69,-5.51 589.11,-5.30 589.31,-5.25 589.52,-5.20 589.70,-5.08 589.88,-4.97 590.01,-4.80 590.14,-4.63 590.21,-4.43 590.29,-4.24 590.29,-4.02 590.30,-3.81 590.23,-3.61 590.17,-3.40 590.04,-3.23 589.92,-3.06 589.74,-2.94 589.57,-2.82 589.37,-2.75 589.16,-2.69 588.95,-2.70 588.74,-2.71 588.54,-2.78 588.34,-2.86 588.18,-2.99 588.01,-3.12 587.90,-3.30 587.79,-3.48 587.74,-3.69 587.69,-3.90 587.70,-4.11 587.72,-4.32 587.81,-4.51 587.89,-4.71 588.04,-4.87 588.18,-5.02 588.36,-5.13 588.55,-5.23 588.76,-5.27 588.97,-5.31 589.18,-5.28 589.39,-5.25 589.58,-5.15 589.77,-5.06 589.92,-4.91 590.07,-4.75 590.16,-4.56 590.25,-4.37 590.28,-4.16 590.31,-3.95 590.27,-3.74 590.23,-3.53 590.12,-3.35 590.01,-3.17 589.85,-3.03 589.70,-2.88 589.50,-2.80 589.30,-2.72 589.09,-2.70 588.88,-2.69 588.88,-2.69 588.88,-2.69 586.46,-2.90 584.04,-3.11 580.82,-3.39 577.59,-3.68 571.24,-3.67 564.88,-3.67 560.74,-3.66 556.60,-3.65 552.95,-3.62 549.31,-3.60 544.79,-3.55 540.27,-3.49 537.06,-3.37 533.85,-3.24 529.59,-2.94 525.33,-2.64 521.50,-2.61 517.67,-2.59 514.74,-2.52 511.81,-2.46 508.34,-2.31 504.87,-2.16 502.55,-1.79 500.23,-1.43 496.99,-1.25 493.75,-1.08 489.42,-0.67 485.09,-0.25 480.32,0.03 475.56,0.32 471.21,0.33 466.85,0.34 463.37,0.36 459.90,0.37 457.13,0.42 454.36,0.46 451.90,0.57 449.44,0.67 447.00,0.91 444.56,1.15 441.28,1.75 438.00,2.34 434.62,2.37 431.24,2.39 428.02,2.45 424.81,2.51 421.98,2.64 419.15,2.77 416.39,3.09 413.62,3.42 410.66,3.49 407.70,3.56 404.10,3.74 400.50,3.91 396.00,4.32 391.50,4.73 386.35,5.02 381.20,5.31 378.63,5.31 376.06,5.31 373.40,5.31 370.73,5.31 367.17,5.31 363.62,5.31 357.95,5.31 352.28,5.31 347.06,5.30 341.84,5.30 336.99,5.29 332.15,5.29 327.52,5.27 322.89,5.26 317.41,5.22 311.93,5.18 307.79,5.09 303.66,4.99 301.42,4.77 299.18,4.54 296.81,4.04 294.44,3.54 291.50,3.02 288.56,2.50 285.76,1.97 282.95,1.43 279.02,0.84 275.09,0.24 269.19,-0.49 263.29,-1.23 259.53,-1.62 255.77,-2.02 253.08,-2.29 250.39,-2.55 247.95,-2.52 245.51,-2.50 243.83,-2.57 242.15,-2.65 239.54,-2.62 236.94,-2.60 233.51,-2.54 230.09,-2.49 226.08,-2.36 222.07,-2.23 217.37,-1.93 212.66,-1.62 206.20,-0.90 199.75,-0.18 192.76,0.16 185.76,0.50 180.88,0.62 175.99,0.74 171.83,1.03 167.66,1.32 163.37,1.33 159.09,1.33 154.41,1.33 149.74,1.34 145.51,1.34 141.28,1.35 137.42,1.35 133.55,1.36 129.87,1.37 126.19,1.38 122.95,1.40 119.70,1.42 117.48,1.44 115.25,1.47 113.39,1.43 111.52,1.39 108.49,1.44 105.46,1.48 101.71,1.57 97.95,1.66 91.81,1.88 85.67,2.09 75.89,2.57 66.11,3.06 51.99,2.84 37.86,2.62 22.95,2.07 8.04,1.53 4.02,1.57 0,1.61 -0.19,1.59 -0.38,1.56 -0.56,1.49 -0.75,1.42 -0.91,1.31 -1.07,1.20 -1.19,1.06 -1.32,0.91 -1.41,0.74 -1.50,0.57 -1.55,0.38 -1.60,0.19 -1.60,-0.00 -1.60,-0.19 -1.55,-0.38 -1.50,-0.57 -1.41,-0.74 -1.32,-0.91 -1.19,-1.06 -1.07,-1.20 -0.91,-1.31 -0.75,-1.42 -0.56,-1.49 -0.38,-1.56 -0.19,-1.59 0.00,-1.61 0.00,-1.61 L 0,-1.61 Z"></path></g><g transform="translate(84.24279681030663 209) rotate(0 287.5 2.5)" stroke="none"><path fill="#000000" d="M -1.54,-1.54 Q -1.54,-1.54 -1.23,-1.90 -0.92,-2.26 0.55,-2.82 2.04,-3.38 3.42,-3.51 4.81,-3.64 6.01,-3.66 7.22,-3.67 8.88,-3.62 10.54,-3.56 15.27,-3.40 20.00,-3.24 28.27,-3.69 36.54,-4.14 42.12,-4.29 47.70,-4.45 51.81,-4.49 55.91,-4.52 61.11,-4.52 66.31,-4.51 69.90,-4.78 73.49,-5.05 76.50,-5.15 79.52,-5.26 81.66,-5.29 83.81,-5.33 85.58,-5.41 87.36,-5.50 90.42,-5.48 93.48,-5.46 95.93,-5.44 98.38,-5.42 101.49,-5.12 104.61,-4.81 107.03,-4.68 109.45,-4.55 111.62,-4.49 113.79,-4.43 116.72,-4.40 119.65,-4.37 126.65,-4.36 133.65,-4.35 139.79,-4.34 145.92,-4.33 151.12,-4.33 156.31,-4.32 161.43,-4.03 166.56,-3.74 170.76,-3.33 174.96,-2.91 178.48,-2.45 182.00,-1.98 185.27,-1.20 188.55,-0.42 191.56,-0.10 194.57,0.20 203.01,0.34 211.45,0.47 219.68,0.82 227.91,1.17 232.83,1.32 237.75,1.46 241.27,1.53 244.80,1.59 247.79,1.91 250.79,2.22 252.87,2.35 254.96,2.48 259.03,2.83 263.10,3.17 266.53,3.32 269.95,3.46 273.41,3.53 276.88,3.59 280.41,3.90 283.95,4.22 291.74,4.64 299.52,5.06 306.27,5.24 313.02,5.42 319.05,5.49 325.08,5.57 330.02,6.18 334.96,6.79 339.29,7.05 343.61,7.30 348.04,7.41 352.46,7.52 357.21,7.57 361.97,7.61 366.00,7.63 370.03,7.65 374.62,7.66 379.21,7.67 385.76,7.67 392.31,7.68 399.12,7.68 405.93,7.68 410.26,7.68 414.59,7.68 418.16,7.68 421.72,7.68 428.13,7.68 434.53,7.68 440.35,7.11 446.17,6.54 453.86,6.00 461.56,5.47 469.16,5.24 476.76,5.02 481.67,4.63 486.58,4.25 489.27,4.09 491.96,3.93 493.39,3.74 494.81,3.56 496.39,3.32 497.97,3.07 499.09,2.93 500.20,2.78 502.21,2.68 504.22,2.57 507.03,2.72 509.84,2.86 511.90,2.95 513.95,3.04 516.84,3.13 519.73,3.21 522.97,3.28 526.21,3.34 531.32,3.39 536.43,3.43 540.05,3.47 543.66,3.50 546.34,3.53 549.03,3.55 550.45,3.45 551.88,3.35 553.93,3.37 555.97,3.40 557.13,3.29 558.29,3.19 560.22,3.21 562.15,3.23 564.51,3.58 566.87,3.94 568.37,3.99 569.87,4.04 572.30,3.98 574.73,3.93 576.38,3.87 578.02,3.81 578.37,3.87 578.71,3.93 579.02,4.10 579.34,4.27 579.58,4.53 579.82,4.79 579.96,5.11 580.11,5.43 580.14,5.78 580.18,6.14 580.10,6.48 580.02,6.82 579.83,7.13 579.65,7.43 579.37,7.65 579.10,7.88 578.77,8.01 578.44,8.13 578.09,8.15 577.74,8.17 577.40,8.07 577.06,7.97 576.77,7.77 576.48,7.57 576.26,7.28 576.05,7.00 575.94,6.66 575.83,6.33 575.84,5.97 575.84,5.62 575.96,5.29 576.07,4.95 576.29,4.67 576.51,4.39 576.80,4.20 577.10,4.00 577.44,3.91 577.78,3.82 578.13,3.84 578.49,3.87 578.81,4.00 579.14,4.13 579.41,4.37 579.68,4.60 579.85,4.90 580.03,5.21 580.11,5.55 580.18,5.90 580.14,6.25 580.10,6.60 579.94,6.92 579.79,7.24 579.55,7.49 579.30,7.75 578.99,7.91 578.67,8.07 578.32,8.13 577.97,8.18 577.97,8.18 577.97,8.18 576.32,8.09 574.68,8.00 572.13,7.80 569.59,7.59 568.02,7.40 566.45,7.20 564.30,6.98 562.14,6.76 560.21,6.78 558.29,6.80 557.13,6.70 555.97,6.59 553.93,6.62 551.88,6.64 550.45,6.54 549.03,6.44 546.34,6.46 543.66,6.49 540.05,6.52 536.43,6.56 531.32,6.60 526.21,6.65 522.97,6.71 519.73,6.78 516.84,6.86 513.95,6.95 511.90,7.04 509.84,7.13 507.03,7.27 504.22,7.42 502.22,7.31 500.22,7.21 499.13,7.08 498.05,6.95 496.50,6.80 494.96,6.64 493.54,6.59 492.12,6.55 489.45,6.71 486.79,6.87 481.81,7.26 476.84,7.64 469.29,7.87 461.74,8.09 454.08,8.62 446.42,9.15 440.48,9.73 434.53,10.31 428.13,10.31 421.72,10.31 418.16,10.31 414.59,10.31 410.26,10.31 405.93,10.31 399.12,10.30 392.31,10.30 385.76,10.30 379.21,10.30 374.61,10.29 370.02,10.28 365.98,10.26 361.94,10.24 357.17,10.19 352.39,10.15 347.93,10.04 343.46,9.92 339.05,9.66 334.64,9.40 329.84,8.80 325.05,8.20 319.00,8.12 312.95,8.04 306.17,7.86 299.38,7.69 291.55,7.26 283.72,6.84 280.27,6.53 276.83,6.22 273.33,6.16 269.84,6.09 266.36,5.95 262.88,5.80 258.84,5.46 254.79,5.11 252.65,4.98 250.51,4.84 247.63,4.53 244.75,4.22 241.21,4.15 237.67,4.09 232.73,3.94 227.80,3.80 219.60,3.45 211.41,3.10 202.85,2.96 194.29,2.82 191.11,2.48 187.94,2.14 184.80,1.38 181.65,0.62 178.17,0.16 174.70,-0.29 170.55,-0.69 166.41,-1.10 161.36,-1.39 156.31,-1.67 151.12,-1.67 145.92,-1.67 139.78,-1.67 133.64,-1.67 126.64,-1.68 119.63,-1.68 116.68,-1.70 113.73,-1.71 111.52,-1.76 109.31,-1.80 106.83,-1.91 104.35,-2.02 101.37,-2.29 98.38,-2.56 95.93,-2.53 93.49,-2.50 90.45,-2.46 87.40,-2.42 85.64,-2.46 83.88,-2.50 81.76,-2.42 79.65,-2.35 76.69,-2.19 73.74,-2.04 70.04,-1.69 66.34,-1.35 61.17,-1.25 56.00,-1.16 51.93,-0.99 47.86,-0.82 42.34,-0.48 36.81,-0.15 28.41,0.54 20.00,1.24 15.28,1.40 10.55,1.57 8.89,1.63 7.24,1.69 6.06,1.68 4.87,1.67 3.47,1.39 2.07,1.11 1.81,1.32 1.54,1.54 1.33,1.70 1.13,1.87 0.89,1.97 0.65,2.08 0.39,2.13 0.13,2.18 -0.13,2.16 -0.39,2.14 -0.64,2.07 -0.89,1.99 -1.12,1.85 -1.34,1.72 -1.53,1.53 -1.72,1.34 -1.85,1.12 -1.99,0.89 -2.07,0.64 -2.14,0.39 -2.16,0.13 -2.18,-0.13 -2.13,-0.39 -2.08,-0.65 -1.97,-0.89 -1.87,-1.13 -1.70,-1.33 -1.54,-1.54 -1.54,-1.54 L -1.54,-1.54 Z"></path></g><g stroke-linecap="round" transform="translate(91.24279681030663 121) rotate(0 39 27)"><path d="M-0.35 -0.24 L78.43 0.1 L76.15 54.57 L-0.17 55.96" stroke="none" stroke-width="0" fill="#82c91e"></path><path d="M1.44 -0.89 C28.48 -2.09, 59.67 0.95, 78.32 0.83 M0.14 0.05 C16.64 0.65, 34.43 0.3, 78.23 -0.37 M79.07 1.28 C77.04 19.36, 76.58 34.41, 79.82 53.09 M77.13 -0.92 C76.9 18.84, 77.13 39.03, 78.71 53.68 M77.02 52.67 C61.83 54.36, 46.04 54.24, 0.48 55.88 M78.05 54.51 C58.73 54.98, 37.01 54.16, -0.67 54.82 M-0.15 53.01 C1.34 37.83, 1.46 24.65, -0.95 0.56 M0.46 54.53 C-1.2 35.88, 0.01 17.13, -0.55 0.77" stroke="#000000" stroke-width="1" fill="none"></path></g><g stroke-linecap="round" transform="translate(423.24279681030663 128) rotate(0 39 27)"><path d="M0.84 -0.48 L79.56 -0.98 L79.29 55.31 L0.2 54.56" stroke="none" stroke-width="0" fill="#82c91e"></path><path d="M1.01 1.24 C22.42 0.69, 49.06 -1.95, 79.59 0.69 M-0.18 -0.12 C31.13 -0.55, 60.92 -0.32, 77.91 0.98 M78.65 -1.33 C77.9 12.6, 78.05 27.14, 76.63 53.77 M77.72 -0.2 C77.37 13.4, 76.92 25.94, 78.15 54.43 M79.68 55.02 C62.98 56.03, 44.12 55.59, -0.03 53.64 M78.71 54.51 C53.46 55.29, 28.52 54.86, -0.49 53.98 M-0.25 55.35 C0.69 41.71, 0.75 30.56, -1.47 -1.06 M0.31 53.83 C-0.48 36.63, 0.82 17.7, -0.73 0.48" stroke="#000000" stroke-width="1" fill="none"></path></g><g stroke-linecap="round" transform="translate(312.24279681030663 124) rotate(0 39 27)"><path d="M-0.37 -1.7 L79.34 -1 L77.8 53.43 L-0.78 55.05" stroke="none" stroke-width="0" fill="#ffef96"></path><path d="M-0.45 0.71 C15.54 -0.12, 34.05 1.02, 76.34 -1.04 M0.95 0.69 C29.97 0.07, 59.99 -0.58, 78.12 0.97 M77.57 1.45 C76.75 20.69, 77.41 40.16, 76.69 53.07 M78.22 0.19 C78.18 20.18, 77.19 37.94, 78.34 53.29 M76.28 55.36 C59.4 53.46, 37.57 54.83, 0.84 53.52 M78.65 54.1 C48.81 54.83, 18.89 54.49, 0.24 54.52 M-1.83 55.18 C-0.04 37.55, -0.82 20.73, 1.05 0.95 M-0.96 53.22 C-0.59 31.81, 1.19 10.51, 0.06 0.9" stroke="#000000" stroke-width="1" fill="none"></path></g><g stroke-linecap="round" transform="translate(527.2427968103066 121) rotate(0 39 27)"><path d="M1.26 1.83 L77.94 1.05 L77.94 54.07 L-0.42 53.71" stroke="none" stroke-width="0" fill="#ffef96"></path><path d="M-0.15 0.08 C16.01 -0.98, 32.1 0.41, 76.92 -0.47 M0.05 0.68 C21.84 0.4, 44.64 -1.32, 77.93 0.35 M79.14 0.56 C78.57 10.86, 75.77 23.63, 77.26 54.23 M78.62 -0.71 C77.13 21.66, 78.29 42.9, 77.93 54.63 M79.2 52.97 C45.63 55.72, 15.67 53.5, 1.64 55.22 M78.54 53.73 C47.79 53.25, 19.19 53.64, -0.15 54.75 M1.71 54.47 C0.19 39.48, -1.64 26.21, -1.55 1.6 M-0.47 54.34 C0.37 40.16, 0.29 27.58, 0.9 0.98" stroke="#000000" stroke-width="1" fill="none"></path></g><g stroke-linecap="round" transform="translate(634.2427968103066 127) rotate(0 39 27)"><path d="M0.28 -1.14 L77.7 1.81 L77.18 54.88 L-1.9 54.82" stroke="none" stroke-width="0" fill="#ffef96"></path><path d="M-1.18 1.51 C26.55 -2.44, 53.86 0.16, 76.3 -1.46 M0.48 -0.37 C17.45 -0.01, 36.37 -0.1, 78.88 -0.12 M76.38 1.36 C79.04 20.74, 78.2 38.95, 79.91 55.66 M77.24 0.53 C78.01 20.11, 79.14 41.98, 78.82 53.68 M77.14 53.25 C59.87 53.82, 38.44 55.3, -0.87 54.12 M78.11 53.66 C56.28 54.13, 35.38 54.98, -0.62 54.79 M1.6 52.06 C1.68 34.87, 2.06 20.41, 1.26 1.83 M0.03 53.79 C-0.43 38.83, 0.64 21.99, 0.01 -0.15" stroke="#000000" stroke-width="1" fill="none"></path></g><g stroke-linecap="round" transform="translate(802.2427968103066 77) rotate(0 39 27)"><path d="M-1.06 0.81 L79.09 1.51 L78.98 54.05 L-0.3 54.69" stroke="none" stroke-width="0" fill="#ffef96"></path><path d="M1.22 1.64 C20.34 -1.61, 43.05 -1.17, 77.14 -0.75 M0.75 -0.44 C29.32 -0.2, 59.37 0.35, 78.11 -0.34 M79.6 -1.23 C79.56 12.46, 77.04 24.43, 79.6 52.06 M78.98 0.63 C78.55 20.03, 78.16 40.1, 78.03 53.79 M78.13 54.02 C55.42 54.99, 32.29 54.41, 1.81 53.18 M77.5 54.56 C50.31 54.49, 23.77 53.51, 0.44 54.43 M1.65 54.28 C-1.99 42.42, -1.46 29.33, -0.12 1.07 M-0.28 53.76 C0.1 38.37, -1.15 24.66, -0.51 0.03" stroke="#000000" stroke-width="1" fill="none"></path></g><g stroke-linecap="round"><g transform="translate(904.9959674261138 147.79252023089305) rotate(0 -80.00164990467022 2.232696817360818)"><path d="M0.75 1.1 C-26.06 1.54, -133.03 3.48, -159.79 3.84 M-0.31 0.63 C-27.38 1.23, -134.05 1.38, -160.76 2.04" stroke="#000000" stroke-width="1" fill="none"></path></g><g transform="translate(904.9959674261138 147.79252023089305) rotate(0 -80.00164990467022 2.232696817360818)"><path d="M-130.86 -8.61 C-142.49 -4.3, -154.42 -0.53, -161.04 3.77 M-132.83 -8.41 C-144.25 -4.55, -153.77 -0.65, -160.32 1.09" stroke="#000000" stroke-width="1" fill="none"></path></g><g transform="translate(904.9959674261138 147.79252023089305) rotate(0 -80.00164990467022 2.232696817360818)"><path d="M-130.62 11.91 C-142.54 8.21, -154.57 3.98, -161.04 3.77 M-132.59 12.11 C-144.12 7.93, -153.74 3.78, -160.32 1.09" stroke="#000000" stroke-width="1" fill="none"></path></g></g><g stroke-linecap="round"><g transform="translate(90.24279681030663 145) rotate(0 -39.97887841274965 -0.13837393749253124)"><path d="M0.29 -0.03 C-12.78 0, -65.98 0.79, -79.54 0.92 M-1.02 -1.1 C-14.11 -1.45, -67.3 -0.7, -80.24 -0.72" stroke="#000000" stroke-width="1" fill="none"></path></g><g transform="translate(90.24279681030663 145) rotate(0 -39.97887841274965 -0.13837393749253124)"><path d="M-52.18 -10.4 C-56.27 -10.7, -62.33 -5.26, -79.41 -1.44 M-53.05 -12.16 C-61.98 -6.6, -72.82 -4.35, -79.83 -1.23" stroke="#000000" stroke-width="1" fill="none"></path></g><g transform="translate(90.24279681030663 145) rotate(0 -39.97887841274965 -0.13837393749253124)"><path d="M-52.04 10.12 C-56.28 5.63, -62.37 6.89, -79.41 -1.44 M-52.91 8.36 C-61.95 6.5, -72.85 1.33, -79.83 -1.23" stroke="#000000" stroke-width="1" fill="none"></path></g></g><g transform="translate(620.2427968103066 236) rotate(0 93.5 12.5)"><text x="0" y="18" font-family="Virgil, Segoe UI Emoji" font-size="20px" fill="#000000" text-anchor="start" style="white-space: pre;" direction="ltr">most recently used</text></g><g transform="translate(39.74279681030663 228.5) rotate(0 96.5 12.5)"><text x="0" y="18" font-family="Virgil, Segoe UI Emoji" font-size="20px" fill="#000000" text-anchor="start" style="white-space: pre;" direction="ltr">least recently used</text></g><g stroke-linecap="round"><g transform="translate(708.2427968103066 228) rotate(0 -11.742132479483189 -21.63094920553266)"><path d="M0.7 0.79 C-3.02 -6.51, -19.45 -36.53, -23.5 -44.06 M-0.4 0.17 C-4.12 -6.92, -20.22 -35.31, -24.18 -42.55" stroke="#000000" stroke-width="1" fill="none"></path></g><g transform="translate(708.2427968103066 228) rotate(0 -11.742132479483189 -21.63094920553266)"><path d="M-3.9 -25.32 C-9.1 -28.68, -13.46 -33.26, -25.02 -43.4 M-5.49 -26.22 C-9.74 -30.41, -13.89 -34.76, -23.88 -43.14" stroke="#000000" stroke-width="1" fill="none"></path></g><g transform="translate(708.2427968103066 228) rotate(0 -11.742132479483189 -21.63094920553266)"><path d="M-18.87 -16.97 C-21.04 -22.1, -22.39 -28.36, -25.02 -43.4 M-20.46 -17.87 C-21.01 -24.21, -21.47 -30.62, -23.88 -43.14" stroke="#000000" stroke-width="1" fill="none"></path></g></g><g stroke-linecap="round"><g transform="translate(51.88803909436916 227) rotate(0 12.847864852896976 -28.82668032235466)"><path d="M-0.44 0.11 C-0.27 -7.13, -2.36 -36.1, 2.13 -45.39 C6.61 -54.68, 22.74 -53.77, 26.47 -55.62 M1.53 -0.35 C1.45 -7.33, -2.94 -34.38, 1.19 -43.95 C5.32 -53.52, 22.46 -55.81, 26.32 -57.77" stroke="#000000" stroke-width="1" fill="none"></path></g><g transform="translate(51.88803909436916 227) rotate(0 12.847864852896976 -28.82668032235466)"><path d="M17.4 -49.91 C20.02 -51.7, 24.57 -56.85, 25.78 -56.49 M16.8 -50.55 C18.82 -51.87, 20.45 -52.84, 26.42 -57.78" stroke="#000000" stroke-width="1" fill="none"></path></g><g transform="translate(51.88803909436916 227) rotate(0 12.847864852896976 -28.82668032235466)"><path d="M14.73 -58.24 C18.33 -56.77, 23.93 -58.66, 25.78 -56.49 M14.13 -58.88 C16.62 -58.48, 18.82 -57.71, 26.42 -57.78" stroke="#000000" stroke-width="1" fill="none"></path></g></g><g stroke-linecap="round" transform="translate(201.24279681030663 123) rotate(0 39 27)"><path d="M0.27 1.98 L79.2 -1.55 L78.29 53.62 L-0.01 53.5" stroke="none" stroke-width="0" fill="#ffef96"></path><path d="M-0.28 1.57 C29.31 -0.09, 58.95 -1.83, 79.22 0.55 M-0.47 -0.77 C19.51 0.47, 41.72 0.94, 77.17 -0.67 M79.06 -1.44 C79.23 19.6, 79.7 40.47, 77.8 53.46 M77.5 0.68 C77.62 12.61, 77.83 23.85, 78.3 54.02 M77.71 54.53 C59.97 53.52, 45.84 55.17, -0.29 54.74 M77.24 53.11 C54.38 54.28, 33.01 54.58, 0.1 53.8 M-1.65 53.11 C-0.56 43.67, -0.93 29.72, 1.15 1.38 M0.67 54.1 C-0.87 37.09, 0.05 20.94, 0.16 -0.58" stroke="#000000" stroke-width="1" fill="none"></path></g><g stroke-linecap="round" transform="translate(531.2427968103066 17) rotate(0 14.5 17.5)"><path d="M-0.4 -1.62 L28.25 1.42 L29.91 33.26 L-1.05 35.38" stroke="none" stroke-width="0" fill="#82c91e"></path><path d="M1.11 1.57 C9.07 1.73, 20.17 0.65, 27.67 1.9 M-0.52 0.61 C9.44 0.36, 17.82 0.61, 28.48 0.91 M28.21 1.65 C27.46 10.02, 28.96 21.22, 27.48 35.54 M28.47 -0.49 C28.33 8.01, 27.99 16.81, 29.31 34.85 M30.38 34.83 C19.3 36.03, 7.18 33.21, -1.61 36.54 M28.32 34.14 C22.45 34.52, 15.75 35.96, 0.72 35.38 M0.61 36.32 C1.24 21.61, 0.29 9.41, -0.36 0.72 M0.1 35.99 C-0.48 24.38, -0.55 12.99, 0.07 0.52" stroke="#000000" stroke-width="1" fill="none"></path></g><g transform="translate(583.2427968103066 10) rotate(0 82 25)"><text x="0" y="18" font-family="Virgil, Segoe UI Emoji" font-size="20px" fill="#000000" text-anchor="start" style="white-space: pre;" direction="ltr">useful entry </text><text x="0" y="43" font-family="Virgil, Segoe UI Emoji" font-size="20px" fill="#000000" text-anchor="start" style="white-space: pre;" direction="ltr">with lots of hits</text></g><g stroke-linecap="round" transform="translate(214.24279681030663 18) rotate(0 14.5 16)"><path d="M0.91 -1.09 L29.33 -1.06 L29.12 30.51 L0.32 31.12" stroke="none" stroke-width="0" fill="#ffef96"></path><path d="M0.53 0.36 C5.35 2.16, 14.79 1.86, 29.52 -0.04 M-0.99 -0.6 C6.84 -0.36, 14.93 0.56, 29.44 0.42 M30.9 0.22 C30.36 13, 29.66 22.27, 27.96 32.79 M28.04 0.44 C27.88 11.26, 29.12 22.83, 28.17 31.24 M28.82 31.53 C18.63 31.57, 13.1 30.61, -1.74 30.25 M29.98 32.62 C22 31.91, 15.87 31.35, 0.17 32.51 M0.84 31.46 C-1.5 23.42, -0.09 17.02, 0.45 -1.31 M-0.07 31.47 C-0.33 24.97, 0.25 16.36, -0.34 0.03" stroke="#000000" stroke-width="1" fill="none"></path></g><g transform="translate(253.24279681030663 10) rotate(0 78 25)"><text x="0" y="18" font-family="Virgil, Segoe UI Emoji" font-size="20px" fill="#000000" text-anchor="start" style="white-space: pre;" direction="ltr">entry with </text><text x="0" y="43" font-family="Virgil, Segoe UI Emoji" font-size="20px" fill="#000000" text-anchor="start" style="white-space: pre;" direction="ltr">little or no hits</text></g></svg>