<svg version="1.1" xmlns="http://www.w3.org/2000/svg" viewBox="0 0 423.73442854738596 349.3196431576732" width="423.73442854738596" height="349.3196431576732">
  <!-- svg-source:excalidraw -->
  
  <defs>
    <style>
      @font-face {
        font-family: "Virgil";
        src: url("https://excalidraw.com/Virgil.woff2");
      }
      @font-face {
        font-family: "Cascadia";
        src: url("https://excalidraw.com/Cascadia.woff2");
      }
    </style>
  </defs>
  <g stroke-linecap="round" transform="translate(25.728137731955485 270.0149803514888) rotate(0 18.337043555382763 19.415693176287647)"><path d="M0.78 -1.76 C7.73 -1.29, 16.8 -1.51, 37.71 1.18 M-0.17 0.24 C11.84 0.66, 24.81 -0.41, 36.46 -0.71 M38.26 1.15 C35.57 12.34, 35.87 27.69, 36.7 39.76 M36.94 0.07 C35.84 10.71, 37.68 22.5, 37.4 38.31 M38.62 39.85 C25.09 38.74, 10.01 40.74, -0.56 37.66 M36.6 39.12 C24.01 38.84, 10.76 38.67, -0.58 38.47 M0.15 37.64 C-1.47 23.35, 0.86 9.9, -1.92 -1.93 M0.57 38.8 C1.29 27.06, 0.73 13.97, 0.88 0.91" stroke="#c92a2a" stroke-width="4" fill="none"></path></g><g stroke-linecap="round" transform="translate(62.402224842714986 270.0149803514888) rotate(0 18.337043555382763 19.415693176287647)"><path d="M-1.76 -1.02 C10.14 -0.83, 21.11 0.89, 37.85 0.52 M0.24 -0.12 C9.44 0.96, 17.21 -0.15, 35.96 0.34 M37.82 -1.48 C35.84 14.23, 38.21 30.86, 37.6 38.46 M36.75 -0.98 C36.75 13.9, 37.61 26.78, 36.16 39.28 M37.7 39.91 C27.74 37.83, 20.98 38.63, -1.17 39.79 M36.96 38.94 C21.94 38.43, 7.36 38.22, -0.36 39.32 M-1.2 37.63 C-2 25.66, -1.9 8.32, -1.93 0.15 M-0.03 39.78 C0.2 30.99, -0.95 23.26, 0.91 0.58" stroke="#c92a2a" stroke-width="4" fill="none"></path></g><g stroke-linecap="round" transform="translate(99.12575006110706 269.2817252477307) rotate(0 18.337043555382763 19.415693176287647)"><path d="M-1.02 -1.04 C12.75 -0.94, 27.9 1.5, 37.19 -1.18 M-0.12 0.6 C11.35 -0.55, 20.69 -0.8, 37.02 0.97 M35.19 -0.63 C35.8 11.38, 37.01 20.22, 36.3 39.54 M35.7 -0.21 C37.65 15.13, 37.5 28.43, 37.13 38.22 M37.75 38.67 C23.7 40.87, 12.88 37.84, 0.96 40.68 M36.78 38.49 C21.79 38.42, 7.08 38.58, 0.49 39.51 M-1.2 36.9 C1.1 24.69, -1.95 12.3, 0.15 -1.76 M0.95 38.99 C0.16 26.58, 0.66 17.21, 0.58 0.34" stroke="#c92a2a" stroke-width="4" fill="none"></path></g><g stroke-linecap="round" transform="translate(135.79983717187974 268.5484701439725) rotate(0 18.337043555382763 19.415693176287647)"><path d="M-1.04 -0.68 C11.16 1.22, 26.03 0.71, 35.49 -0.3 M0.6 0.9 C9.92 -0.17, 20.06 0.38, 37.64 -0.52 M36.04 -1.18 C38.63 14.75, 37.82 29.07, 37.38 40.29 M36.47 0.87 C37.35 13.39, 36.19 25.79, 36.07 39 M36.52 37.48 C23.95 38.47, 6.35 39.99, 1.85 40.74 M36.34 38.45 C25.41 38.29, 14.82 39.36, 0.68 39 M-1.94 39.96 C-1.6 24.97, -1.69 15.08, -1.76 -0.2 M0.16 39.22 C-0.98 25.84, 0.92 11.67, 0.34 -0.93" stroke="#c92a2a" stroke-width="4" fill="none"></path></g><g stroke-linecap="round" transform="translate(172.8334741562744 268.5484701439725) rotate(0 18.337043555382763 19.415693176287647)"><path d="M-0.68 -1.26 C8.8 1.37, 16.06 -0.99, 36.37 -0.34 M0.9 -0.46 C11.68 -0.94, 24.12 0.75, 36.16 0.79 M35.49 1.74 C36.41 14.81, 36.01 28.47, 38.13 39.36 M37.55 0.65 C37.02 11.42, 36.75 23.27, 36.84 39.81 M35.32 40.68 C23.24 37.63, 11.89 40.65, 1.91 38.69 M36.29 38.31 C24.02 38.34, 13.03 39.39, 0.17 38.91 M1.13 37 C-1.68 27.58, 0.38 18.41, -0.2 1.14 M0.38 37.84 C0.51 28.2, 0.22 16.1, -0.93 -0.91" stroke="#c92a2a" stroke-width="4" fill="none"></path></g><g stroke-linecap="round" transform="translate(209.50756126704277 268.5484701439725) rotate(0 18.337043555382763 19.415693176287647)"><path d="M-1.26 1.03 C10.32 0.65, 17.1 -0.18, 36.34 0.48 M-0.46 -0.21 C9.87 0.01, 22.13 -0.85, 37.47 0.57 M38.41 0.03 C37.48 8.4, 37.26 19, 37.2 38.98 M37.33 0.72 C36.08 8.31, 35.99 15.88, 37.65 39.34 M38.52 38.27 C22.53 39.55, 12.58 40.49, -0.14 39.41 M36.16 38.25 C24.92 39.18, 14.58 38.86, 0.08 38.23 M-1.83 36.91 C-1.55 29.66, -1.39 20, 1.14 -0.06 M-0.99 39.71 C0.84 24.08, 0.27 7.23, -0.91 -0.36" stroke="#c92a2a" stroke-width="4" fill="none"></path></g><g stroke-linecap="round" transform="translate(246.18164837780796 268.5484701439725) rotate(0 18.337043555382763 19.415693176287647)"><path d="M1.03 1.18 C9.61 -0.95, 17.88 -0.1, 37.16 -0.23 M-0.21 -0.71 C13.56 1.14, 25.92 0.96, 37.25 -0.74 M36.7 0.93 C36.07 11.13, 37.9 21.36, 36.82 36.88 M37.4 -0.52 C37.46 10.23, 37.18 22.65, 37.18 39.37 M36.11 37.66 C26.92 41.02, 17.16 39.03, 0.58 39.04 M36.09 38.47 C27.4 39.32, 17.32 38.72, -0.6 38.23 M-1.92 36.91 C-0.07 29.18, -0.42 24.19, -0.06 1.9 M0.88 39.74 C0.43 26.88, -1.08 13.36, -0.36 0.49" stroke="#c92a2a" stroke-width="4" fill="none"></path></g><g stroke-linecap="round" transform="translate(282.85573548857144 268.5484701439725) rotate(0 18.337043555382763 19.415693176287647)"><path d="M1.18 0.52 C8.57 -0.49, 19.16 0.29, 36.44 1.21 M-0.71 0.34 C15.27 -0.44, 29.39 0.65, 35.93 -0.32 M37.6 -0.37 C37.72 10.81, 37.54 18.85, 34.72 38.41 M36.16 0.45 C36.32 15.21, 37.9 30.59, 37.21 38.75 M35.5 39.79 C30.01 40.64, 19.5 39.31, 0.21 38.15 M36.31 39.32 C27.75 38.79, 17.53 38.02, -0.6 37.86 M-1.93 38.98 C-1.41 24.79, 1.5 11.09, 1.9 0.33 M0.91 39.42 C0.72 24.76, -0.52 12.18, 0.49 0.55" stroke="#c92a2a" stroke-width="4" fill="none"></path></g><g stroke-linecap="round" transform="translate(318.8107228520738 269.2817252477307) rotate(0 18.337043555382763 19.415693176287647)"><path d="M0.52 -1.18 C8.38 -0.55, 17.85 -0.45, 37.88 1.8 M0.34 0.97 C8.78 1.05, 19.17 -0.48, 36.36 -0.59 M36.3 0.71 C38.13 15.55, 36.83 28.09, 36.26 40.58 M37.13 -0.61 C37.12 15.15, 37.47 28.89, 36.6 38.15 M37.64 40.68 C24.19 38.48, 8.47 38.83, -0.68 38.07 M37.16 39.51 C27.74 38.78, 17.86 38.1, -0.97 39.4 M0.15 37.07 C0.17 31.89, 0.31 24.55, 0.33 0.77 M0.58 39.17 C-1.27 30.12, -0.71 23.72, 0.55 0.58" stroke="#c92a2a" stroke-width="4" fill="none"></path></g><g stroke-linecap="round" transform="translate(355.4848099628358 269.2817252477307) rotate(0 18.337043555382763 19.415693176287647)"><path d="M-1.18 -0.3 C12.56 0.39, 25.57 1.11, 38.47 -0.93 M0.97 -0.52 C11.02 0.45, 19.73 -0.44, 36.08 0.87 M37.38 1.45 C37.38 11.85, 34.9 22.98, 38.42 40.13 M36.07 0.17 C37.45 14.97, 37.01 28.85, 36 39.76 M38.53 40.74 C26.57 39.59, 16.95 38.33, -0.76 37.8 M37.36 39 C27.89 38.41, 18.35 38.04, 0.56 37.91 M-1.76 38.63 C1.52 30.85, 2.27 23.31, 0.77 -1.98 M0.34 37.9 C-1.26 23.4, 0.14 9.25, 0.58 -0.63" stroke="#c92a2a" stroke-width="4" fill="none"></path></g><g stroke-linecap="round" transform="translate(10 10) rotate(0 42 22.5)"><path d="M0 0 C0 0, 0 0, 0 0 M0 0 C0 0, 0 0, 0 0 M-0.05 13.01 C4.58 7.83, 5.8 3.99, 11.18 1.52 M-0.46 11.79 C2.17 9.68, 5.26 6.35, 10.48 0.25 M-1.69 23.66 C9.77 16.37, 17.3 5.03, 22.16 -1.28 M0.8 24 C6 17.25, 13.05 8.09, 21.74 0.86 M-0.04 36.2 C11.73 21.12, 24.03 6.8, 32.87 1.26 M-0.86 35.91 C10.47 24.43, 19.13 12.67, 31.96 -0.99 M3.74 46.98 C14.14 31.11, 26.93 21.33, 43.69 0.54 M2.33 47.2 C11.29 36.47, 19.53 27.59, 41.65 -0.17 M14.42 44.88 C27.91 30.71, 40.64 16.84, 52.77 -0.38 M13.41 45.92 C21.53 36.59, 29.54 26.04, 52.96 -1.04 M24.67 46.97 C36.68 31.63, 53.39 14.99, 65.33 -0.52 M22.33 47.56 C32.3 35.9, 40.78 25.81, 63.61 -0.71 M35.3 45.88 C48.54 28.41, 63.22 11, 72.85 -1.21 M32.92 47.31 C48.56 31.12, 63.63 13.58, 73.77 0.55 M45.88 47.45 C53.98 33.03, 68.47 21.8, 85.62 0.49 M45.14 47.43 C54.15 35.97, 63.56 25.66, 85.27 0.6 M55.91 44.56 C61.49 39.24, 67.88 31.08, 84.02 12.68 M55.11 45.81 C65.8 33.67, 76.11 21.17, 84.7 12.14 M64.05 44.9 C70.25 39.87, 75.37 34.26, 83.31 22.7 M65.92 45.63 C71.5 39.29, 78.95 30.18, 84.84 23.58 M76.92 45.36 C78.99 44.05, 80.19 41.87, 84.2 37.62 M75.82 46.09 C78.76 44.18, 81.4 40.19, 84.72 36.1 M0.36 45.31 C0.36 45.31, 0.36 45.31, 0.36 45.31 M0.36 45.31 C0.36 45.31, 0.36 45.31, 0.36 45.31 M12.53 43.87 C9.89 42.42, 4.34 40.24, 1.69 35.4 M11.68 44.69 C9.48 43.01, 7.12 41.74, -0.25 34.98 M23.42 43.66 C14.45 36.02, 7.5 27.2, 0.76 23.17 M24.02 44.65 C15.02 37.21, 6.09 30.03, -0.24 23.51 M36.29 45.36 C26.45 37.84, 20.51 31.37, -1.68 14.49 M35.76 44.65 C24.93 34.74, 12.28 24.67, -0.53 13.31 M47.61 45.38 C34.54 33.43, 16.64 16.72, 0.01 1.12 M48.91 44.73 C38.47 34.46, 27.15 25.45, 0.7 2.24 M59.99 46.62 C44.73 29.75, 27.95 15.83, 3.04 -4.25 M61.74 46.16 C39.39 26.15, 17.14 5.73, 3.68 -4.85 M74.45 43.37 C58.41 32.87, 44.45 18.87, 14.71 -4.63 M72.56 44.21 C57.29 30.69, 39.01 16.44, 15.83 -4.11 M83.31 46.35 C68.08 30.74, 53.73 18.32, 29.98 -6.72 M85.33 44.08 C71.02 32.95, 59.29 21.33, 29.03 -4.91 M85.37 32.06 C74.86 26.19, 68 18.07, 42.57 -4.09 M84.52 33.99 C75.37 25.02, 65.35 15.9, 41.48 -4.2 M83.5 24.78 C77.68 17.24, 69.47 9.26, 52.86 -3.19 M85.46 23.95 C72.41 13.41, 60.26 3.03, 53.22 -4.77 M82.64 11.55 C80.02 6.35, 75.94 2.66, 65.53 -5.63 M84.04 12.53 C78.24 6.45, 73.09 1.43, 64.61 -4.71 M85.41 1.82 C82.79 0, 81.07 -1.75, 77.37 -3.82 M84.24 1.56 C81.91 0.29, 79.59 -2.72, 76.58 -4.58" stroke="#40c057" stroke-width="1" fill="none"></path><path d="M1.99 0.63 C31.16 -1.28, 67.43 -1.6, 83.05 0.09 M-0.7 -0.73 C28.03 -0.89, 54.2 0.36, 83.74 -0.91 M82.42 1.7 C84.07 15.32, 83.73 29.16, 84.85 46.28 M83.06 0.62 C82.73 15.43, 83.96 29.9, 84.09 45.49 M85.01 44.71 C65.42 45.03, 45.83 44.81, 0 43.99 M84.61 45.72 C50.35 45.29, 17.8 45.03, 0.47 44.05 M-0.77 43.91 C-0.85 34.12, -1.35 21.32, -0.89 0.99 M0.83 44.57 C-0.96 28.71, -0.33 10.76, 0.84 0.54" stroke="#c92a2a" stroke-width="2" fill="none"></path></g><g transform="translate(12 57) rotate(0 40 12.5)"><text x="0" y="18" font-family="Virgil, Segoe UI Emoji" font-size="20px" fill="#343a40" text-anchor="start" style="white-space: pre;" direction="ltr">bucket 1</text></g><g stroke-linecap="round" transform="translate(122 10) rotate(0 42 22.5)"><path d="M0 0 C0 0, 0 0, 0 0 M0 0 C0 0, 0 0, 0 0 M0.33 13.51 C2.89 7.88, 5.67 5.91, 10.07 1.4 M-0.59 12.54 C4.58 8.17, 9.19 1.83, 10.09 -0.42 M2.09 24.02 C9.49 17.08, 17.07 6.47, 20.39 -1.16 M0.66 24.67 C5.25 17.92, 10.61 11.13, 20.83 -0.62 M-0.08 36.61 C6.14 28.36, 14.79 21.5, 30.69 1.86 M0.32 36.86 C8.72 25.99, 19.56 14.86, 32.88 -0.1 M1.49 46 C15.02 34.28, 27.75 19.05, 42.22 -1.32 M2.08 46.1 C14.14 33.75, 25.31 19.16, 41.73 -0.02 M13.3 46.84 C28.48 29.83, 44.58 13.47, 54.89 -0.82 M11.96 47.62 C25.5 31.74, 38.11 15.14, 52.88 -0.85 M21.38 44.9 C37.07 29.57, 48.79 16.47, 62.93 0.46 M23.76 45.59 C32.5 35.89, 44.26 22, 63.34 -0.6 M34.14 47.85 C46.08 30.3, 61.6 12.35, 72.73 -2.02 M33.51 46.6 C47.05 29.42, 61.82 13.22, 74.25 0.11 M43.66 46.24 C57.3 32.99, 69.22 17.98, 85.98 -0.46 M43.64 46.35 C57.33 31.39, 69.16 17.85, 83.75 0.71 M53.43 46.7 C63.18 37.45, 71.72 28.35, 85.59 13.53 M54.5 45.62 C66.17 34.26, 75.82 24.02, 83.77 12.63 M64.23 47.12 C72.14 39.69, 78.47 31.1, 83.09 26.4 M64.98 47.1 C73.25 39.31, 78.15 31.7, 85.14 25.52 M77.34 46.04 C79.47 42.99, 80.7 42.53, 83.99 35.58 M76.16 47.02 C78.64 44.2, 80.66 42.09, 85.12 37.09 M0.36 45.31 C0.36 45.31, 0.36 45.31, 0.36 45.31 M0.36 45.31 C0.36 45.31, 0.36 45.31, 0.36 45.31 M10.93 45.65 C10.54 42.77, 7.77 40.11, -0.87 34.19 M12.47 44.95 C7.27 41.2, 3.12 36.87, 0.15 35.16 M23.48 45.67 C16.3 39.52, 10.8 35.64, 1.63 25.97 M25.32 44.79 C17.75 40.1, 12.27 35.32, -0.06 23.85 M35.76 43.5 C27.76 35.97, 16.02 26.62, -0.12 14.4 M37.09 45.33 C22.44 33.1, 8.7 21.9, 0.05 12.5 M49.85 43.68 C35.42 33.72, 26.86 24.74, 0.82 1.76 M48.37 43.93 C32.67 31.27, 16.23 16.68, 0.18 2.84 M62.92 44.85 C46.2 32.31, 33.52 23.34, 3.72 -6 M61.22 44.93 C49.67 33.88, 36.77 22.94, 4.88 -4.78 M73.62 44.44 C60.5 33.48, 46.41 19.62, 16.68 -4.81 M72.69 45.94 C59.48 31.67, 44.41 21.07, 16.11 -4.02 M85.71 43.15 C73.29 35.59, 61.41 22.98, 28.87 -5.13 M84.23 44.94 C69.57 30.92, 52.87 18.1, 28.19 -5.41 M85.74 33.65 C73.06 22.26, 59.4 12.51, 40.21 -3.72 M84.21 32.77 C69.03 21.46, 55 7.43, 41.33 -3.46 M83.4 21.94 C74.6 11.31, 60.57 0.85, 51.9 -6.28 M83.95 23.19 C78.93 17.84, 72.96 11.04, 52.92 -3.57 M84.05 13.7 C79.51 7.8, 75.98 4.74, 66.7 -6.36 M85.11 12.94 C79.7 8.15, 73.88 3.67, 65.57 -4.2 M84.19 1.59 C83.06 -0.8, 79.87 -2.64, 76.38 -4.73 M84.56 1.68 C83 0.65, 81.9 -0.32, 76.86 -4.64" stroke="#40c057" stroke-width="1" fill="none"></path><path d="M1.32 1.69 C16.91 0.45, 37.21 -1.23, 84.73 1.08 M-0.84 -0.34 C28.37 0.68, 57.7 0.62, 83.03 -0.32 M84.13 1.86 C82.73 15.44, 84.5 29.6, 85.05 44.23 M83.16 -0.39 C83.52 11.05, 83.84 24.18, 83.94 45.2 M85.56 44.44 C66.01 45.33, 47.75 43.4, -1.44 45.6 M83.96 44.41 C57.55 44.59, 30.3 44.4, 0.95 45.45 M-1.88 46.74 C0.47 32.46, -1.35 18.98, 1.27 -1.18 M0.2 44.2 C0.89 33.06, 0.46 20.06, -0.99 0.11" stroke="#c92a2a" stroke-width="2" fill="none"></path></g><g transform="translate(124 57) rotate(0 44.5 12.5)"><text x="0" y="18" font-family="Virgil, Segoe UI Emoji" font-size="20px" fill="#343a40" text-anchor="start" style="white-space: pre;" direction="ltr">bucket 2</text></g><g stroke-linecap="round" transform="translate(279.5 10) rotate(0 42 22.5)"><path d="M0 0 C0 0, 0 0, 0 0 M0 0 C0 0, 0 0, 0 0 M0.7 12.44 C4.25 8.82, 5.26 5.4, 10.85 1.12 M-0.24 12.19 C2.62 8.09, 4.91 5.57, 10.72 -0.69 M0.73 23.71 C4.42 17.38, 7.78 13.9, 21.08 0.22 M0.77 24.53 C5.78 15.71, 12.4 8.48, 22.01 -0.87 M-0.04 38.01 C10.8 26.21, 18.8 13.98, 31.73 1.04 M0.66 37.45 C8.92 27.68, 16.33 17.89, 32.85 0.68 M3.76 45.75 C9.94 35.36, 19.78 26.63, 44.13 -1.65 M1.06 45.95 C13.46 32.94, 26.43 18.95, 43.09 -0.01 M13.99 44.72 C28.79 29.23, 42.53 10.54, 53.92 -2.12 M12.49 46.27 C27.77 30.13, 42.95 12.4, 54.05 -0.24 M23.91 45.01 C32.59 34.97, 39.64 25.19, 64.83 -0.29 M22.8 47.5 C36.46 30.06, 51.5 14.17, 63.18 0.06 M34.94 45.82 C46.05 33.92, 58.18 18.03, 72.59 -0.47 M34.69 46.05 C42.88 33.76, 54.75 22.47, 73.59 0.23 M43.97 46.38 C53.12 35.41, 65.02 20.16, 86.02 0.53 M44.85 47.35 C56.88 31.97, 71.04 17.03, 84.05 0.6 M53.15 45.22 C63.6 35.92, 72.53 26.42, 82.99 11.66 M54.48 46.79 C65.88 32.94, 76.54 20.56, 84.67 13.38 M65.72 45.3 C72.17 42.35, 77.47 34.18, 83.8 23.14 M64.91 45.63 C70.63 39.65, 77.48 32.14, 85.07 23.92 M75.96 45.64 C79.93 43.6, 81.66 39.91, 85.65 36.73 M76.22 46.05 C79.56 42.35, 81.91 39.97, 84.98 36.08 M0.36 45.31 C0.36 45.31, 0.36 45.31, 0.36 45.31 M0.36 45.31 C0.36 45.31, 0.36 45.31, 0.36 45.31 M11.47 45.2 C10 41.98, 7.83 40.41, 1.7 34.85 M12.63 45.49 C7.78 41.98, 3.22 36.74, -0.33 34.87 M26.12 46.42 C16.6 37.21, 9.13 31.53, 1.88 22.67 M23.52 44.07 C17.59 39.28, 11.34 34, 0.85 24.38 M38.21 44.04 C21.02 32.75, 7.38 21.02, 0.14 13.07 M35.59 44.68 C22.36 33.71, 10.14 22.43, 0.74 13.79 M49.25 44.68 C32.27 31.47, 17.68 18.5, 1.71 1.39 M48.5 43.8 C35.62 33.75, 22.02 20.79, 0.29 2.88 M61.56 44.38 C37.43 27.44, 15.18 5.91, 3.31 -4.34 M61.88 45.66 C46.69 32.58, 32.64 19.93, 2.98 -3.95 M74.75 47.14 C57.51 34.5, 44.9 20.22, 16.31 -2.8 M74 45.65 C59.05 32, 46.35 21.2, 16.3 -5.4 M83.32 43.44 C67.97 32.14, 51.25 15.48, 28.97 -5.98 M84.09 44.45 C66.38 28.48, 48.41 11.74, 27.72 -5.18 M84.45 32.88 C68.81 20.14, 52.33 6.34, 42.09 -5.02 M83.9 33.51 C70.16 19.3, 53.4 7.26, 41.18 -4.02 M84.18 23.6 C72.43 14.44, 62.02 4.5, 53.57 -2.78 M84.73 24.08 C73.12 12.48, 59.77 2.53, 53.36 -3.66 M84.09 12.62 C78.26 8.39, 76.95 3.34, 64.7 -2.8 M83.8 12.34 C77.07 5.53, 70.55 0.82, 64.81 -3.98 M85.44 2.35 C83.11 -0.2, 81.14 -1.32, 76.97 -5.69 M84.35 1.97 C82.74 0.6, 80.28 -1.63, 76.74 -4.22" stroke="#40c057" stroke-width="1" fill="none"></path><path d="M-1.1 -1.6 C17.6 1.16, 34.86 0.1, 83.38 -0.26 M0.98 0.02 C29.13 1.23, 59.03 0.49, 83.23 0.52 M84.01 -0.15 C83.76 15.29, 83.89 29.67, 85.16 46.34 M83.41 -0.06 C83.7 17.29, 84.18 35.43, 84.23 45.55 M84.24 46.46 C62.08 45.16, 43.68 44.55, 0.51 45.84 M83.68 45.22 C51.86 46.65, 21.08 46.73, -0.51 45.56 M-1.35 45.55 C-1.27 37.13, -1.29 25.19, 0.23 -1.44 M0.33 44.57 C0.42 33.63, 0.47 23.17, -0.79 0.95" stroke="#c92a2a" stroke-width="2" fill="none"></path></g><g transform="translate(279.5 58) rotate(0 50 12.5)"><text x="0" y="18" font-family="Virgil, Segoe UI Emoji" font-size="20px" fill="#343a40" text-anchor="start" style="white-space: pre;" direction="ltr">bucket 56</text></g><g stroke-linecap="round"><g transform="translate(209.68338030694565 30.746641077598298) rotate(0 33.9370523209534 1.983219245200175)"><path d="M-0.65 0.68 C10.77 1.18, 56.96 2.9, 68.52 3.29" stroke="#343a40" stroke-width="2.5" fill="none" stroke-dasharray="1.5 8"></path></g></g><g stroke-linecap="round" transform="translate(10.768458412598534 135.56756630678137) rotate(0 42 22.5)"><path d="M0 0 C0 0, 0 0, 0 0 M0 0 C0 0, 0 0, 0 0 M-1.14 13.06 C4.56 9.32, 6.85 2.65, 10.22 -1.38 M0.57 11.37 C3.01 7.98, 6.28 4.99, 10.25 0.13 M-0.84 24.57 C8.01 16.11, 11.67 9.04, 20.3 0.49 M0.38 24.72 C7.13 14.67, 15.17 7.39, 20.92 0.66 M-2.2 37.53 C9.35 27.21, 13.66 20.4, 31.18 1.55 M0.04 37.5 C10.45 23.82, 22.14 11.94, 31.53 0.56 M0 48.26 C14.75 32.59, 27.36 16.62, 42.34 -1.23 M1.47 47.57 C10.83 34.64, 21.21 24.84, 43.46 0.14 M12.4 46.88 C23.97 32.66, 35.22 19.12, 54.08 1.27 M11.59 46.51 C24.52 32.79, 36.9 19.17, 52.93 -0.62 M23.47 48.37 C38.69 29.36, 56.5 8.28, 63.32 -0.92 M23.89 45.95 C32.24 35.52, 42.23 24.51, 64.57 -0.13 M34.29 47.35 C43.69 36.72, 55.19 21.86, 73.35 -1.62 M33.04 47.06 C46.45 30.76, 61.76 15.2, 73.99 -0.31 M43.82 47.08 C54.26 34.67, 66.57 21.02, 85.02 -0.55 M44.93 47.25 C58.9 28.45, 73.92 12.1, 84.69 0.09 M56.73 44.66 C60.27 40.31, 67.08 32.24, 82.67 12.87 M54.27 46.12 C65.96 34.06, 74.7 22.59, 84.83 13.47 M65.23 46.19 C73.06 37.7, 80.82 27.25, 85.47 25.05 M65.18 46.33 C71.98 40.62, 77.68 32.94, 84.35 25.56 M76.63 47.42 C79.56 44.6, 81 40.83, 84.56 35.3 M76.6 45.82 C79.81 43.13, 82.82 39.13, 84.71 37.21 M0.36 45.31 C0.36 45.31, 0.36 45.31, 0.36 45.31 M0.36 45.31 C0.36 45.31, 0.36 45.31, 0.36 45.31 M11.94 44.6 C8.21 42.35, 4.35 37.06, -0.6 35.61 M12.97 45.44 C8.16 41.75, 5.55 40.04, 0.13 34.97 M23.76 46.53 C14.66 36.46, 4.36 31.23, 2.01 25.22 M23.98 44.7 C15.27 38.65, 7.38 30.89, 0.72 23.09 M36.43 45.83 C29.01 36.56, 21.67 30.44, -0.35 13.06 M37.01 44.33 C21.74 32.04, 9.53 20.96, 0.31 14.23 M49.2 45.47 C30.86 29.33, 12.87 12.6, 0.48 4.23 M49.28 44.5 C32.51 30.97, 18.15 17.15, 0.95 2.92 M62.39 44.57 C40.53 29.75, 23.6 11.45, 3.2 -3.1 M62.16 45.41 C39.53 25.56, 17.34 6.97, 4.43 -4.54 M72.07 46.77 C49.41 23.05, 29.6 6.65, 17.56 -2.91 M72.97 45.6 C59.74 35.18, 47.59 23.4, 16.79 -4.71 M85.66 44.73 C63.79 25.78, 38.94 4.37, 28.65 -5.95 M84.24 45.15 C61.21 24.44, 39.99 4.82, 27.37 -3.94 M83.64 32.82 C72.92 22.61, 60.96 13.27, 42.56 -3.5 M84.34 34.09 C75.17 25.78, 67.32 18.38, 40.22 -3.4 M83.84 24.51 C74.66 13.67, 64.05 7.24, 52.9 -6.08 M85.44 22.53 C72.76 12.62, 61.45 3.18, 53.43 -4.03 M86.04 10.69 C80.83 6.62, 72.51 2.11, 65.09 -6.25 M84.91 12.66 C76.48 5.99, 70.56 -0.36, 65.26 -4.7 M83.81 2.28 C80.93 -1.59, 78.27 -2.56, 76.09 -5.41 M84.4 2.2 C82.39 0.8, 81.25 -1.24, 77.31 -4.32" stroke="#228be6" stroke-width="1" fill="none"></path><path d="M-0.1 -0.89 C31.52 1.4, 59.09 0.24, 85.25 0.97 M0.86 0.83 C29.71 -0.82, 60.33 0.24, 83.98 -0.61 M82.1 0.49 C83.28 9.8, 81.69 23.39, 82.62 45.36 M83.65 -0.22 C83.37 11.72, 83.62 23.89, 84.68 44.17 M84.98 45.25 C56.62 46.59, 29.01 46.65, 0.98 43.84 M84.19 45.48 C60.77 45.69, 38.92 44.89, 0 44.67 M-0.26 43.64 C1.23 31.79, 1.13 13, -0.74 -1.28 M0.69 45.63 C0.89 33.92, -0.49 23.73, 0.35 0.29" stroke="#c92a2a" stroke-width="2" fill="none"></path></g><g transform="translate(12.768458412598534 187.56756630678137) rotate(0 32 20)"><text x="0" y="14" font-family="Virgil, Segoe UI Emoji" font-size="16px" fill="#343a40" text-anchor="start" style="white-space: pre;" direction="ltr">stash</text><text x="0" y="34" font-family="Virgil, Segoe UI Emoji" font-size="16px" fill="#343a40" text-anchor="start" style="white-space: pre;" direction="ltr">bucket 1</text></g><g transform="translate(100.430040156877 314.3196431576732) rotate(0 105.5 12.5)"><text x="0" y="18" font-family="Virgil, Segoe UI Emoji" font-size="20px" fill="#343a40" text-anchor="start" style="white-space: pre;" direction="ltr">a bucket has k slots</text></g><g stroke-linecap="round" transform="translate(119.29021376880212 135.56756630678137) rotate(0 42 22.5)"><path d="M0 0 C0 0, 0 0, 0 0 M0 0 C0 0, 0 0, 0 0 M-1.22 12.22 C2.19 7.96, 6.03 6.18, 11.6 0.64 M-0.63 12.84 C3.93 7.89, 8.26 4.22, 11.22 -0.32 M0.93 25.41 C7.07 16.17, 15.65 8.22, 22.7 -1.3 M0.15 24.82 C7.66 15.81, 16.22 6.38, 21.22 -0.53 M1.2 37.67 C11.16 23.28, 24.08 12.75, 30.02 1.66 M-1.08 37.11 C12.05 23.11, 24.43 9.36, 31.32 -1.06 M-0.15 47.65 C12.24 37.53, 22.43 23.25, 44.33 -0.4 M2.68 46.07 C12.04 35.58, 22.82 23.54, 42.68 -0.28 M13.36 45.64 C25.55 30.5, 39.8 15.44, 54.07 -0.56 M12.19 47.16 C22.34 34.08, 34.14 22.34, 53.43 0.2 M22.23 47.05 C33.76 36.47, 44.56 21.07, 64.83 0.93 M22.65 47.37 C33.97 33.31, 46.07 21.27, 63.72 -0.99 M33.14 45.8 C45.68 34.27, 53.17 23.26, 72.53 -1.52 M33.52 46.36 C50.13 29.25, 65.8 10.6, 73.58 -0.36 M43.56 45.96 C59.52 29.04, 73.1 12.87, 85.94 1.7 M43.94 46.92 C57.19 31.66, 71.13 16.6, 85.24 0.78 M53.02 45.57 C62.7 37.14, 67 29.44, 84.01 14.27 M55.61 46.52 C62.41 37.98, 72.01 27.21, 85.1 11.96 M64.23 46.41 C70.38 43.24, 75.16 38.68, 86.6 26.07 M64.71 45.91 C70.28 40.74, 74.19 36.36, 84.24 25.46 M74.97 46.05 C78.2 42.94, 80.86 42.03, 83.5 36.34 M76.63 46.63 C78.64 43.66, 80.9 41.12, 85.21 36.28 M0.36 45.31 C0.36 45.31, 0.36 45.31, 0.36 45.31 M0.36 45.31 C0.36 45.31, 0.36 45.31, 0.36 45.31 M11.47 43.98 C8.03 41.87, 6.08 38.67, 0.27 35.86 M12.56 45.11 C7.93 41.87, 3.1 37.73, 0.47 34.84 M23.5 46.08 C17.98 36.33, 8.09 29.87, -1.7 25.27 M24.99 45.71 C15.82 36.71, 4.97 28.63, -0.68 23.44 M36.64 46.63 C31.1 38.27, 21.83 31.17, -1.15 14.27 M35.62 44.02 C25.7 35.7, 15.53 25.25, -0.19 13.6 M49.51 43.8 C38.97 34.31, 27.36 24.59, 2.22 0.89 M47.58 44.98 C37.89 35.36, 27.27 26.81, 0.04 2.21 M61.22 45.15 C43.18 28.47, 21.1 8.93, 4.65 -3.08 M60.52 45.65 C41.55 28.28, 20.82 11.2, 3.82 -4.79 M73.35 46.55 C50.44 24.51, 26.3 4.5, 14.56 -6.6 M73.57 45.16 C60.27 33.3, 46.07 22.65, 16.61 -5.45 M84.83 43.28 C70.66 33.31, 59.76 23.91, 28.09 -5.41 M83.98 43.57 C66.06 28.75, 48.64 13.16, 27.82 -4.96 M85.15 33.3 C74.44 23.04, 63.53 15.02, 42.24 -3.16 M85 33.99 C75.17 25.46, 64.01 16.16, 41.63 -5.09 M85.93 21.32 C76.54 16.38, 72.76 10.88, 52.65 -3.45 M85.19 22.39 C76.01 14.96, 65.54 7.46, 53.54 -5.42 M84.9 11.71 C76.37 6.41, 71.57 -0.85, 65.38 -6.1 M85.17 13.29 C79.27 8.96, 74.64 4.69, 65.84 -3.8 M84.49 2.02 C83.4 -0.24, 81.42 -0.77, 76.02 -4.31 M84.14 1.55 C82.11 -0.29, 78.91 -2.53, 76.71 -4.54" stroke="#228be6" stroke-width="1" fill="none"></path><path d="M-0.12 -0.01 C21.69 0.91, 47.58 0.19, 82.74 -0.74 M0.78 0.31 C21.22 -0.65, 43.88 -1.01, 83.45 -0.4 M84.67 1.11 C82.73 14.45, 82.35 30.78, 84.91 44.74 M84.36 0.73 C83.22 15.78, 84.53 31.06, 83.66 44.62 M82.72 46.85 C51.86 43.71, 24.18 45.77, 0.75 46.57 M84.3 44.23 C51.1 43.46, 17.77 44.63, -0.19 45.82 M0.83 45.25 C-1.13 31.63, 1.32 20.24, 0.84 0.76 M-0.62 45.06 C0.81 28.08, 0.22 12.38, 0.01 0.51" stroke="#c92a2a" stroke-width="2" fill="none"></path></g><g transform="translate(121.29021376880212 187.56756630678137) rotate(0 35.5 20)"><text x="0" y="14" font-family="Virgil, Segoe UI Emoji" font-size="16px" fill="#343a40" text-anchor="start" style="white-space: pre;" direction="ltr">stash</text><text x="0" y="34" font-family="Virgil, Segoe UI Emoji" font-size="16px" fill="#343a40" text-anchor="start" style="white-space: pre;" direction="ltr">bucket 2</text></g><g stroke-linecap="round" transform="translate(221.2126731911825 135.56756630678137) rotate(0 42 22.5)"><path d="M0 0 C0 0, 0 0, 0 0 M0 0 C0 0, 0 0, 0 0 M-0.63 11.7 C2.2 9.93, 5.88 7.05, 10.57 -1.36 M0.92 11.72 C2.85 8.55, 6.16 4.5, 11.14 0.59 M-1.35 23.22 C8.57 14.16, 16.02 6.34, 22.84 1.64 M-0.4 23.1 C6.9 16.56, 13.41 7.36, 20.44 -0.32 M-2.21 38.1 C12.35 21.13, 26.12 9.52, 30.71 1.06 M0.11 36.18 C7.87 28.17, 16.5 19.51, 32.75 0.87 M3.54 44.83 C16.35 29.35, 31.98 10.57, 43.43 -0.95 M1.29 45.66 C17.64 28.19, 32.98 10.33, 42.94 -1.12 M13.68 47.77 C24.68 33.73, 35.18 20.55, 53.19 1.14 M12.41 47.09 C22.87 34.83, 33.89 22.06, 52.93 -0.63 M22.92 46.43 C36.38 32.66, 51.47 17.06, 64.25 1.78 M23.18 46 C38.31 27.96, 54.93 10.65, 63.66 -0.24 M35.1 46.94 C48.33 29.57, 65.49 11.81, 76.1 0.11 M34.62 46.08 C47.02 32.62, 58.69 16.93, 74.02 -1.24 M45.81 47.61 C59.71 31.56, 72.24 12.14, 84.08 -1.46 M43.46 46.6 C55.23 36.71, 63.98 24.77, 84.1 -0.22 M55.61 44.76 C63.32 34.76, 75.37 24.44, 82.59 11.63 M54.05 46.97 C64.13 36.47, 73.78 25.38, 84.22 13.52 M65.16 44.56 C70.1 41.79, 73.47 37.35, 85.92 24.19 M65.2 46.4 C70.02 42.27, 75.31 36.17, 84.38 24.9 M76.41 45.38 C79.85 43.04, 83.13 38.61, 85.9 36.41 M76.2 46.41 C78.97 43.68, 80.62 40.54, 84.48 36.13 M0.36 45.31 C0.36 45.31, 0.36 45.31, 0.36 45.31 M0.36 45.31 C0.36 45.31, 0.36 45.31, 0.36 45.31 M11.4 44.12 C7.81 41.93, 6.65 40.27, 1.43 34.33 M12.09 45.4 C8.83 42.32, 4.94 39.1, 0.13 35.24 M26.35 45.83 C16.46 39.13, 7.06 29.01, -1.48 25.64 M25.14 45.72 C18.39 39.57, 13.41 36.42, -0.07 23.94 M38.37 46.15 C22.42 34.25, 10.27 20.68, 0.26 14.75 M36.38 45.09 C28.7 37.84, 21.66 32.44, -0.63 13.65 M47.68 46.03 C39.6 34.06, 28.56 24.9, 1.27 4.63 M48.65 44.76 C30.81 29.11, 11.85 13.04, 0.56 1.85 M61.92 43.84 C40.38 30.16, 22.76 11.09, 4.76 -5.57 M60.49 45.48 C41.91 27.67, 23.95 12.53, 3.49 -4.61 M72.14 44.34 C60.58 32.6, 48.64 23, 17.07 -5.38 M73.91 44.56 C59.7 33.28, 45.89 21.21, 16.79 -5.37 M85.71 43.7 C69.23 31.73, 52.77 14.62, 29.2 -5.05 M84.12 43.71 C64.88 27.57, 44.14 10.41, 27.1 -4.78 M85.43 34.9 C69.54 20.68, 54.76 6.64, 39.91 -2.66 M84.33 34.16 C71.07 22.19, 58.83 11.12, 40.83 -4.28 M83.23 21.7 C77.06 15.89, 69.39 8.89, 51.58 -6.21 M84.08 23.44 C78.49 16.42, 71.85 11.89, 53.77 -4.63 M86.06 13.6 C78.76 6.41, 75.2 4.29, 63.94 -3.81 M85.03 12.13 C80.71 9.42, 75.92 5.58, 65.51 -5.42 M84.5 1.67 C80.61 -1.01, 78.74 -2.3, 77.6 -5.63 M84.3 2.08 C81.35 -0.36, 78.96 -2.93, 77.14 -4.38" stroke="#228be6" stroke-width="1" fill="none"></path><path d="M-0.62 -0.24 C21.52 -0.87, 41.52 0.49, 84.72 -0.08 M-0.77 0.73 C21.76 0.26, 42.33 1.04, 84.89 -0.93 M84.16 -1.66 C84.85 17.47, 85.31 34.99, 85.85 43.85 M83.14 -1 C84.21 9.79, 84.49 19.29, 83.16 45.91 M82.4 46.66 C58.74 44.96, 37.39 45.31, 1.89 45.32 M84.77 45.44 C59.48 44.59, 36.24 44.58, 0.97 45.46 M-1.44 44.44 C1.26 31.68, -1.17 21.52, -0.52 0.57 M0.21 44.56 C0.45 29.93, 1.08 15.05, -0.96 0.52" stroke="#c92a2a" stroke-width="2" fill="none"></path></g><g transform="translate(223.2126731911825 187.56756630678137) rotate(0 35.5 20)"><text x="0" y="14" font-family="Virgil, Segoe UI Emoji" font-size="16px" fill="#343a40" text-anchor="start" style="white-space: pre;" direction="ltr">stash</text><text x="0" y="34" font-family="Virgil, Segoe UI Emoji" font-size="16px" fill="#343a40" text-anchor="start" style="white-space: pre;" direction="ltr">bucket 3</text></g><g stroke-linecap="round" transform="translate(329.73442854738596 135.56756630678137) rotate(0 42 22.5)"><path d="M0 0 C0 0, 0 0, 0 0 M0 0 C0 0, 0 0, 0 0 M-0.17 12.72 C3.6 9.81, 5.18 4.92, 10.44 1.16 M-0.09 11.94 C2.28 8.88, 4.92 7.64, 11.12 0.26 M1.08 22.92 C7.79 16.25, 15.35 10.57, 21.86 -1.48 M-0.19 24.62 C6.73 15.33, 13.96 7.53, 22.14 -0.28 M-0.18 35.68 C13.33 24.58, 22.6 10.6, 30.76 -1.8 M-0.28 37.23 C10.5 26.16, 20.68 14.82, 32.65 -0.73 M0.78 46.83 C11.98 33.06, 24.84 20.35, 44.32 -1.07 M1.57 46.5 C14.25 32.4, 28.41 16.29, 42.32 -0.46 M13.14 47.2 C27.79 28.68, 43.88 11.3, 52.17 -0.3 M12.62 46.76 C27.45 29.46, 40.27 13.77, 53.56 0.02 M22.61 48.24 C32.49 38.72, 40.8 28.83, 65.63 -0.18 M22.35 46.09 C32.86 36, 42.73 24.04, 64.52 0.71 M33.56 47.44 C51.32 28.55, 67.33 9.75, 74.8 0.72 M34.25 47.51 C44.14 33.58, 56.19 18.99, 75.02 0.67 M45.69 47.91 C52.84 34.08, 62.51 22.75, 83.16 -1.44 M45.22 47.39 C53.7 36.22, 62.24 25.37, 84.81 0.47 M53.21 46.23 C62.36 39.38, 67.57 29.05, 84.87 11.08 M54.5 47.08 C62.13 38.54, 69.08 31.16, 83.56 11.72 M66.03 46.22 C70.77 40.45, 77.36 34.28, 83.49 25.7 M65.55 47.41 C70.51 41.79, 73.83 37.16, 85.39 25.07 M76.71 46.68 C79.05 43.39, 81.87 41.11, 84.48 37.88 M76.7 46.4 C78.66 42.93, 81.25 39.86, 84.16 36.18 M0.36 45.31 C0.36 45.31, 0.36 45.31, 0.36 45.31 M0.36 45.31 C0.36 45.31, 0.36 45.31, 0.36 45.31 M11.1 44.73 C9.27 42.35, 5.55 37.78, 0.11 33.68 M12.22 45.3 C7.95 41.74, 4.46 39.01, 0.78 34.08 M24.93 46.44 C14.85 36, 4.27 30.9, -1.29 22.32 M23.54 44.33 C17.78 40.79, 11.99 34.71, 0.78 23.95 M35.03 45.6 C27.94 36.9, 21.63 33.8, -1.73 14.19 M36.09 44.15 C25.31 35.52, 13.51 25.98, -0.51 12.84 M50.13 43.59 C37.22 32.96, 24.1 24.62, 1.75 1.33 M48.69 45.33 C37.55 36.1, 28.22 25.93, 0.61 3.31 M60.06 46.55 C39.63 24.77, 17.82 5.49, 4.6 -6.4 M60.5 44.79 C50.44 36.27, 38.15 25.26, 3.23 -4.6 M73.59 44.39 C62.45 34.98, 49.66 22.44, 14.94 -4.45 M73.93 45.75 C58.35 32.03, 42.51 16.88, 15.84 -4.58 M85.36 45.92 C69.93 29.74, 55.96 18.25, 29.13 -3.5 M85.27 44.65 C64.25 26.65, 42.77 8.24, 28.63 -5.22 M85.06 34.17 C71.21 21.32, 54.32 10.26, 40.84 -2.64 M84.52 33.18 C68.06 18.52, 49.77 3.57, 40.27 -3.46 M85.01 22.37 C73.44 11.6, 59.86 0.6, 50.94 -5.45 M84.78 22.16 C76.59 16.25, 69.36 8.9, 52.57 -3.75 M84.15 10.96 C79.43 8.05, 70.8 2.37, 63.19 -4.18 M84.93 13.21 C79.89 9.15, 76.32 3.98, 65.82 -4.6 M83.55 1.52 C82.18 0.65, 80.25 -3.33, 77.7 -4.65 M84.18 2.05 C81.96 -0.36, 79.38 -2.43, 77.34 -4.62" stroke="#228be6" stroke-width="1" fill="none"></path><path d="M1.48 -1.1 C24.3 0.36, 46.42 0.02, 83.09 1.07 M0.4 -0.05 C21.74 0.12, 45.13 -1.55, 84.88 0.84 M84.47 -0.01 C84.97 14.02, 85.89 26.8, 82.09 43.71 M84.5 0.59 C84.39 17.98, 82.77 35.09, 83.87 44.61 M82.83 44.6 C56.8 45.65, 28.33 46.02, -0.28 46.01 M83.51 44.44 C57.65 44.81, 31.66 45.83, -0.2 44.6 M1.08 44.3 C-1.03 29.82, -0.19 11.68, 0.75 -0.97 M0.23 45.11 C0.77 34, -1.05 22.72, 0.57 -0.27" stroke="#c92a2a" stroke-width="2" fill="none"></path></g><g transform="translate(331.73442854738596 187.56756630678137) rotate(0 35 20)"><text x="0" y="14" font-family="Virgil, Segoe UI Emoji" font-size="16px" fill="#343a40" text-anchor="start" style="white-space: pre;" direction="ltr">stash</text><text x="0" y="34" font-family="Virgil, Segoe UI Emoji" font-size="16px" fill="#343a40" text-anchor="start" style="white-space: pre;" direction="ltr">bucket 4</text></g><g stroke-linecap="round"><g transform="translate(245.61455070098737 54.21502007843853) rotate(0 -21.133434706004778 38.70423698857242)"><path d="M-0.4 -0.91 C-1.57 4.76, -0.68 21.24, -7.76 34.26 C-14.85 47.29, -37.02 70.05, -42.9 77.25 M1.6 1.22 C0.41 6.99, -0.59 22.46, -8.17 35.31 C-15.74 48.16, -38.04 71.13, -43.86 78.32" stroke="#343a40" stroke-width="1" fill="none"></path></g><g transform="translate(245.61455070098737 54.21502007843853) rotate(0 -21.133434706004778 38.70423698857242)"><path d="M-35.48 54.78 C-37.85 58.49, -39.47 64.3, -44.28 78.22 M-33.52 53.76 C-36.17 62.11, -40.22 70.01, -43.72 79.23" stroke="#343a40" stroke-width="1" fill="none"></path></g><g transform="translate(245.61455070098737 54.21502007843853) rotate(0 -21.133434706004778 38.70423698857242)"><path d="M-21.55 67.06 C-27.31 67.76, -32.29 70.61, -44.28 78.22 M-19.59 66.04 C-26.89 70.48, -35.47 74.38, -43.72 79.23" stroke="#343a40" stroke-width="1" fill="none"></path></g></g><g transform="translate(237.54874455964784 91.9435814076846) rotate(0 56.5 10)"><text x="0" y="14" font-family="Virgil, Segoe UI Emoji" font-size="16px" fill="#343a40" text-anchor="start" style="white-space: pre;" direction="ltr">overflow items</text></g></svg>