<?xml version="1.0" encoding="UTF-8"?>
<svg width="129px" height="106px" viewBox="0 0 129 106" version="1.1" xmlns="http://www.w3.org/2000/svg" xmlns:xlink="http://www.w3.org/1999/xlink">
    <title>Dragonfly Logo Icon Copy@1x</title>
    <defs>
        <linearGradient x1="7.17111655%" y1="50%" x2="100%" y2="50%" id="linearGradient-1">
            <stop stop-color="#886AFB" offset="0%"></stop>
            <stop stop-color="#5C69F6" offset="47.0146109%"></stop>
            <stop stop-color="#EB92FF" offset="100%"></stop>
        </linearGradient>
    </defs>
    <g id="Dragonfly-Logo-Icon-Copy" stroke="none" stroke-width="1" fill="none" fill-rule="evenodd">
        <g id="Group-2-Copy-9" fill="url(#linearGradient-1)">
            <path d="M48.6448239,76.3063796 L57.7967881,105.749678 C56.140471,105.909531 54.544296,105.993041 53.008263,106.000209 L53.008263,106.000209 L43.8887336,76.6586173 L48.6448239,76.3063796 Z M37.6249243,77.1213463 L46.4473598,105.508148 C45.2303099,105.306878 44.0618521,105.043927 42.9419863,104.719294 L42.9419863,104.719294 L34.4374946,77.3574242 L37.6249243,77.1213463 Z M50.846,23.244 L58.887,27.784 L64.921,75.102 L67.364,74.921 L61.547,29.286 L70.918,34.577 L75.981,74.282 L77.204,74.192 L72.247,35.328 L123.602719,64.3263853 L123.859392,64.4759977 C128.76644,67.4274187 130.459191,73.7687797 127.626066,78.786276 L127.626066,78.786276 L127.608555,78.8199132 C127.106699,80.6975358 125.746001,82.2819062 123.866553,83.0295613 L123.866553,83.0295613 L90.8853361,96.1498587 L86.067,80.65 L84.74,80.502 L89.744662,96.6028161 L85.918305,98.1255837 L85.8707136,98.144599 L85.8707136,98.144599 L85.823137,98.1636514 C84.4216904,98.7239521 83.0439117,99.2542092 81.689801,99.7544229 L81.689801,99.7544229 L75.382,79.461 L72.726,79.165 L79.3844748,100.585022 C77.3018028,101.316041 75.2774318,101.973055 73.3113619,102.556064 L72.3331853,102.841401 L64.5854322,77.9086737 C63.1799711,77.598413 61.7853174,77.2389734 60.4040645,76.8308749 L68.7846519,103.79333 C66.6883695,104.315267 64.6650042,104.744644 62.7145562,105.081463 L62.7145562,105.081463 L53.6555702,75.9356403 L57.526,75.649 L50.846,23.244 Z M26.9209696,77.9141124 L33.9780728,100.619627 C32.8661543,99.9555071 31.7692084,99.2425693 30.6872349,98.4808138 L30.6872349,98.4808138 L24.353902,78.1037602 L26.9209696,77.9141124 Z M15.6714001,79.0274944 L17.9812196,86.4636535 C16.9626974,85.2221533 15.9611131,83.9254272 14.9764667,82.573475 C14.1751905,81.4697458 14.4209345,79.9255225 15.5249527,79.1246448 L15.5249527,79.1246448 L15.6714001,79.0274944 Z M40.145,17.201 L46.857,20.992 L53.6872924,74.5558339 C51.4202192,73.7160518 49.231198,72.8328857 47.1202289,71.9063354 L47.1202289,71.9063354 L40.145,17.201 Z M29.78,11.349 L34.827,14.199 L41.8694632,69.4308927 C40.1311302,68.5510095 38.4531229,67.6375953 36.8354412,66.6906499 L36.8354412,66.6906499 L29.78,11.349 Z M19.75,5.686 L23.132,7.595 L30.1085973,62.3089034 C28.9064282,61.4367324 27.7462585,60.5412167 26.6280879,59.6223563 L26.6280879,59.6223563 L19.75,5.686 Z M9.09557318,0.01279943 C9.77830683,0.171870793 10.4395398,0.42824151 11.0581038,0.778159838 L11.0581038,0.778159838 L11.774,1.182 L18.162116,51.2820411 C17.089532,50.0029386 16.0791952,48.6892368 15.1311057,47.3409358 L15.1311057,47.3409358 Z M0.923946978,3.65901582 L3.37532603,22.8808554 C1.97377808,18.2674325 0.880371922,13.4272388 0.0951075622,8.36027408 C-0.164987547,6.67892645 0.162200398,5.04232773 0.923946978,3.65901582 L0.923946978,3.65901582 Z" id="Combined-Shape"></path>
        </g>
    </g>
</svg>