<svg width="149" height="28" viewBox="0 0 149 28" xmlns="http://www.w3.org/2000/svg">
    <defs>
        <linearGradient x1="7.171%" y1="50%" x2="100%" y2="50%" id="ciax1p2cga">
            <stop stop-color="#886AFB" offset="0%"/>
            <stop stop-color="#5C69F6" offset="47.015%"/>
            <stop stop-color="#EB92FF" offset="100%"/>
        </linearGradient>
        <linearGradient x1="7.171%" y1="50%" x2="100%" y2="50%" id="gwajwswv0b">
            <stop stop-color="#886AFB" offset="0%"/>
            <stop stop-color="#5C69F6" offset="47.015%"/>
            <stop stop-color="#EB92FF" offset="100%"/>
        </linearGradient>
    </defs>
    <g fill="none" fill-rule="evenodd">
        <path d="M92.326 2.777c1.943 0 3.517.888 4.454 2.373l-2.525 2.003-.003-.005c-.385-.668-.957-1.134-1.926-1.076-.996.06-1.73.936-1.757 1.874V10.1h3.33v3.662h-3.33v6.225h-3.703v-6.225h-1.85V10.1h1.85V7.537h.02c.234-2.769 2.58-4.76 5.44-4.76M0 19.957V4.212h5.923c4.395 0 7.958 3.525 7.958 7.874 0 4.348-3.563 7.873-7.958 7.873H0zm3.702-3.295h2.036c2.428 0 4.402-1.928 4.44-4.322l.001-.072c0-2.403-1.949-4.355-4.368-4.394H3.702v8.788zm59.422-8.789c1.242 0 2.353.266 3.332.798a5.865 5.865 0 0 1 2.302 2.214c.555.944.833 2.015.833 3.214 0 1.198-.278 2.27-.833 3.213a5.865 5.865 0 0 1-2.302 2.214c-.98.532-2.09.798-3.332.798s-2.357-.266-3.343-.798a5.846 5.846 0 0 1-2.313-2.214c-.555-.943-.833-2.015-.833-3.213 0-1.199.278-2.27.833-3.214a5.846 5.846 0 0 1 2.313-2.214c.986-.532 2.1-.798 3.343-.798zm-.007 3.497c-.513 0-.973.117-1.38.35a2.485 2.485 0 0 0-.956.97c-.23.414-.345.883-.345 1.409 0 .525.115.994.345 1.408.229.414.548.737.955.97.408.233.868.35 1.381.35.514 0 .973-.117 1.377-.35.405-.233.722-.556.951-.97.23-.414.344-.883.344-1.408 0-.526-.114-.995-.344-1.409a2.494 2.494 0 0 0-.95-.97 2.707 2.707 0 0 0-1.378-.35zM37.398 8.671a5.865 5.865 0 0 1 2.302 2.214c.464.788.734 1.665.81 2.631.015.19.023.385.023.583v6.042H37.2v-.879c-1.09.708-2.136 1.062-3.135 1.062-1.5 0-2.357-.266-3.343-.798a5.844 5.844 0 0 1-2.313-2.214c-.555-.944-.833-2.015-.833-3.213 0-1.199.278-2.27.833-3.214a5.844 5.844 0 0 1 2.313-2.214c.986-.532 2.1-.798 3.343-.798 1.242 0 2.353.266 3.332.798zm-3.339 2.7c-.513 0-.973.116-1.38.349a2.487 2.487 0 0 0-.956.97c-.23.414-.344.883-.344 1.409 0 .525.114.994.344 1.408.23.414.548.737.955.97.408.234.868.35 1.381.35.514 0 .973-.116 1.377-.35.405-.233.722-.556.951-.97.23-.414.345-.883.345-1.408 0-.526-.115-.995-.345-1.409a2.495 2.495 0 0 0-.95-.97 2.708 2.708 0 0 0-1.378-.35m16.95 4.137c-.23.414-.547.737-.951.97-.405.233-.864.35-1.377.35s-.974-.117-1.381-.35a2.486 2.486 0 0 1-.956-.97A2.854 2.854 0 0 1 46 14.1c0-.526.115-.995.344-1.409.23-.414.548-.737.956-.97.407-.233.868-.35 1.38-.35.514 0 .973.117 1.378.35.404.233.721.556.95.97.23.414.345.883.345 1.409 0 .525-.115.995-.344 1.408m4.145-1.408c0-1.199-.277-2.27-.833-3.214A5.866 5.866 0 0 0 52.02 8.67c-.979-.532-2.09-.798-3.332-.798s-2.356.266-3.343.798a5.847 5.847 0 0 0-2.312 2.214c-.556.944-.833 2.015-.833 3.214 0 1.198.277 2.27.833 3.214a5.847 5.847 0 0 0 2.312 2.213c.987.532 2.101.798 3.343.798 1.004 0 1.92-.177 2.752-.524v.49c-.032 1.44-1.221 2.597-2.684 2.597a2.686 2.686 0 0 1-2.4-1.464h-3.74C43.38 24.065 45.84 26 48.755 26c3.527 0 6.385-2.828 6.385-6.317v-5.131c.01-.15.014-.3.014-.453m53.138-6.043v6.867c0 .944.812 1.712 1.825 1.738l.053.001c1.037 0 1.877-.779 1.877-1.74V8.057H116v5.992l-.014 5.086c0 3.489-2.859 6.317-6.385 6.317-2.917 0-5.377-1.935-6.14-4.578h3.74a2.686 2.686 0 0 0 2.4 1.465 2.673 2.673 0 0 0 2.669-2.375 6.23 6.23 0 0 1-2.1.361c-3.22 0-5.83-2.418-5.83-5.401V8.056h3.952zm-31.02-.366c3.22 0 5.83 2.419 5.83 5.402v6.866h-3.953v-6.866c0-.944-.812-1.713-1.824-1.74h-.053c-1.037 0-1.878.779-1.878 1.74v6.866h-3.952v-6.866c0-2.983 2.61-5.402 5.83-5.402M97.819 0h3.713v19.958h-3.713V0zM21.007 7.69c3.015 0 5.46 2.419 5.46 5.402v.274h-3.702v-.274c0-.944-.76-1.713-1.708-1.74h-.05a1.75 1.75 0 0 0-1.758 1.69V19.958h-3.702v-6.866c0-2.983 2.444-5.402 5.46-5.402" transform="translate(33 2)" fill="url(#ciax1p2cga)"/>
        <path d="m10.183 15.849 1.905 6.11c-.346.033-.68.051-1.002.053L9.19 15.924l.994-.075zm-2.304.173 1.835 5.89a6.381 6.381 0 0 1-.733-.164l-1.769-5.677.667-.05zm2.76-11.193 1.682.943 1.26 9.823.512-.039-1.216-9.472 1.96 1.098 1.058 8.24.255-.02-1.035-8.065 10.723 6.01.141.086a2.206 2.206 0 0 1 .705 2.917c-.1.389-.384.719-.776.874l-6.899 2.733-1.002-3.212-.277-.031 1.04 3.337-.797.316-.02.008a35.24 35.24 0 0 1-.868.333l-1.313-4.21-.555-.062 1.385 4.445c-.339.118-.67.227-.993.327l-.48.143-1.616-5.174c-.402-.088-.8-.195-1.191-.322l.318.096 1.746 5.599c-.293.072-.578.136-.857.192l-.413.077-1.886-6.048.806-.061-1.397-10.88zm-5 11.36 1.47 4.71a10.909 10.909 0 0 1-.688-.442L5.104 16.23l.536-.04zm-2.351.234.48 1.543a17.678 17.678 0 0 1-.628-.808.51.51 0 0 1 .112-.713l.036-.022zM8.4 3.575l1.404.787 1.427 11.117a25.284 25.284 0 0 1-1.373-.55L8.4 3.575zM6.233 2.36l1.056.592L8.76 14.415a19.692 19.692 0 0 1-1.051-.568L6.233 2.36zM4.136 1.185l.707.397L6.3 12.936c-.25-.18-.493-.366-.726-.556L4.136 1.185zM1.906-.002c.132.033.26.083.379.15l.182.102 1.336 10.398a12.156 12.156 0 0 1-.635-.819zM.195.742l.516 4.01a21.767 21.767 0 0 1-.689-3.036A1.524 1.524 0 0 1 .194.742z" fill="url(#gwajwswv0b)"/>
    </g>
</svg>
