<?xml version="1.0" encoding="UTF-8"?>
<svg width="331px" height="75px" viewBox="0 0 331 75" version="1.1" xmlns="http://www.w3.org/2000/svg" xmlns:xlink="http://www.w3.org/1999/xlink">
    <title>Dragonfly Logo Copy@1x</title>
    <defs>
        <linearGradient x1="7.17111655%" y1="50%" x2="100%" y2="50%" id="linearGradient-1">
            <stop stop-color="#886AFB" offset="0%"></stop>
            <stop stop-color="#5C69F6" offset="47.0146109%"></stop>
            <stop stop-color="#EB92FF" offset="100%"></stop>
        </linearGradient>
    </defs>
    <g id="Dragonfly-Logo-Copy" stroke="none" stroke-width="1" fill="none" fill-rule="evenodd">
        <g id="Combined-Shape-2-Copy-3" fill="url(#linearGradient-1)">
            <path d="M263.448192,8.00970874 C268.992624,8.00970874 273.48414,10.5713592 276.157713,14.8550971 L268.951705,20.6322816 L268.944399,20.6184466 C267.844719,18.6917476 266.21237,17.348301 263.448192,17.5165049 C260.6051,17.690534 258.508767,20.2143204 258.433506,22.9201456 L258.431314,23.0628641 L258.431314,29.1364078 L267.937516,29.1364078 L267.937516,39.6997573 L258.431314,39.6997573 L258.431314,57.6575243 L247.868543,57.6575243 L247.868543,39.6997573 L242.587158,39.6997573 L242.587158,29.1364078 L247.868543,29.1364078 L247.868543,21.7419903 L247.923345,21.7419903 C248.593382,13.7548544 255.287911,8.00970874 263.448192,8.00970874 M0,57.5705442 L0,12.147913 L16.8998803,12.147913 C29.441704,12.147913 39.6090945,22.3162443 39.6090945,34.8592286 C39.6090945,47.4022128 29.441704,57.5705442 16.8998803,57.5705442 L0,57.5705442 Z M10.5624252,48.0634818 L16.3717591,48.0634818 C23.3017663,48.0634818 28.9331233,42.5013222 29.045085,35.5970822 L29.0466693,35.3873987 C29.0466693,28.4567503 23.4850243,22.8248722 16.5814232,22.7129001 L16.3717591,22.7113156 L10.5624252,22.7113156 L10.5624252,48.0634818 Z M180.120626,22.7113156 C183.665264,22.7113156 186.834587,23.4784652 189.628596,25.0127645 C192.422605,26.5470638 194.61194,28.6756339 196.196601,31.3984748 C197.781263,34.1213158 198.573594,37.2115242 198.573594,40.6691 C198.573594,44.1266758 197.781263,47.2168842 196.196601,49.9397252 C194.61194,52.6625661 192.422605,54.7911362 189.628596,56.3254355 C186.834587,57.8597348 183.665264,58.6268844 180.120626,58.6268844 C176.575988,58.6268844 173.396239,57.8597348 170.58138,56.3254355 C167.76652,54.7911362 165.56676,52.6625661 163.982098,49.9397252 C162.397437,47.2168842 161.605106,44.1266758 161.605106,40.6691 C161.605106,37.2115242 162.397437,34.1213158 163.982098,31.3984748 C165.56676,28.6756339 167.76652,26.5470638 170.58138,25.0127645 C173.396239,23.4784652 176.575988,22.7113156 180.120626,22.7113156 Z M180.102272,32.798713 C178.637721,32.798713 177.323933,33.1349329 176.160907,33.8073727 C174.997881,34.4798125 174.088998,35.4127044 173.434258,36.6060482 C172.779517,37.7993921 172.452147,39.1537427 172.452147,40.6691 C172.452147,42.1844573 172.779517,43.5388079 173.434258,44.7321518 C174.088998,45.9254957 174.997881,46.8583875 176.160907,47.5308273 C177.323933,48.2032671 178.637721,48.539487 180.102272,48.539487 C181.566823,48.539487 182.876304,48.2032671 184.030715,47.5308273 C185.185126,46.8583875 186.089701,45.9254957 186.744442,44.7321518 C187.399182,43.5388079 187.726552,42.1844573 187.726552,40.6691 C187.726552,39.1537427 187.399182,37.7993921 186.744442,36.6060482 C186.089701,35.4127044 185.185126,34.4798125 184.030715,33.8073727 C182.876304,33.1349329 181.566823,32.798713 180.102272,32.798713 Z M106.713238,25.0125528 C109.507528,26.5468871 111.69659,28.6754127 113.281482,31.3986579 C114.604954,33.6724303 115.375483,36.2023652 115.593597,38.9884627 C115.636903,39.5388159 115.658556,40.0992044 115.658556,40.6691 L115.658556,47.5537976 L115.658556,58.0987143 L106.152373,58.0987143 L106.152373,55.564554 C103.0398,57.6061076 100.057499,58.6268844 97.2054711,58.6268844 C92.9274293,58.6268844 90.4809031,57.8599814 87.6660168,56.3256472 C84.8511304,54.7913129 82.6515054,52.6627873 81.0671416,49.9395421 C79.4822497,47.2168251 78.6900678,44.1265017 78.6900678,40.6691 C78.6900678,37.2116983 79.4822497,34.1213749 81.0671416,31.3986579 C82.6515054,28.6754127 84.8511304,26.5468871 87.6660168,25.0125528 C90.4809031,23.4782186 93.6607212,22.7113156 97.2054711,22.7113156 C100.750221,22.7113156 103.919477,23.4782186 106.713238,25.0125528 Z M97.1869868,32.7988369 C95.7225066,32.7988369 94.4085409,33.1347531 93.2456179,33.8071137 C92.0826949,34.4800024 91.1737982,35.4127509 90.5189278,36.6058872 C89.8645856,37.7995517 89.5371504,39.1537799 89.5371504,40.6691 C89.5371504,42.1844201 89.8645856,43.5386483 90.5189278,44.7323128 C91.1737982,45.9254491 92.0826949,46.8581976 93.2456179,47.5310863 C94.4085409,48.2034469 95.7225066,48.5393631 97.1869868,48.5393631 C98.6514671,48.5393631 99.9612078,48.2034469 101.115681,47.5310863 C102.270154,46.8581976 103.174298,45.9254491 103.829168,44.7323128 C104.484038,43.5386483 104.811473,42.1844201 104.811473,40.6691 C104.811473,39.1537799 104.484038,37.7995517 103.829168,36.6058872 C103.174298,35.4127509 102.270154,34.4800024 101.115681,33.8071137 C99.9612078,33.1347531 98.6514671,32.7988369 97.1869868,32.7988369 M145.550748,44.7321544 C144.895877,45.9252907 143.991205,46.8585673 142.83726,47.5309279 C141.682787,48.2032885 140.373047,48.5397328 138.908566,48.5397328 C137.444086,48.5397328 136.13012,48.2032885 134.967197,47.5309279 C133.804274,46.8585673 132.895378,45.9252907 132.240507,44.7321544 C131.585637,43.539018 131.258202,42.1842617 131.258202,40.6689416 C131.258202,39.1536215 131.585637,37.7993932 132.240507,36.6062569 C132.895378,35.4125924 133.804274,34.479844 134.967197,33.8074834 C136.13012,33.1351228 137.444086,32.7986784 138.908566,32.7986784 C140.373047,32.7986784 141.682787,33.1351228 142.83726,33.8074834 C143.991205,34.479844 144.895877,35.4125924 145.550748,36.6062569 C146.205618,37.7993932 146.533053,39.1536215 146.533053,40.6689416 C146.533053,42.1842617 146.205618,43.539018 145.550748,44.7321544 M157.380136,40.6689416 C157.380136,37.2115399 156.587426,34.1212165 155.003062,31.3984994 C153.41817,28.6757824 151.229107,26.5472568 148.434818,25.0129226 C145.641056,23.4785883 142.471801,22.7111571 138.927051,22.7111571 C135.382301,22.7111571 132.202483,23.4785883 129.387596,25.0129226 C126.57271,26.5472568 124.373085,28.6757824 122.788193,31.3984994 C121.203829,34.1212165 120.411647,37.2115399 120.411647,40.6689416 C120.411647,44.1268714 121.203829,47.2166667 122.788193,49.9399118 C124.373085,52.6626289 126.57271,54.7911545 129.387596,56.3254887 C132.202483,57.8598229 135.382301,58.626726 138.927051,58.626726 C141.790524,58.626726 144.404196,58.11757 146.778101,57.1161594 L146.778101,58.3626409 L146.776517,58.5290145 C146.687793,62.6820162 143.294085,66.0211078 139.120343,66.0211078 C136.125367,66.0211078 133.532292,64.301914 132.273779,61.7962749 L121.59992,61.7962749 C123.778949,69.4193544 130.798208,75 139.120343,75 C149.183166,75 157.340527,66.8418842 157.340527,56.7781305 L157.340527,41.9761626 C157.366404,41.5462321 157.380136,41.11102 157.380136,40.6689416 M309.006918,23.2394857 L309.006918,43.0458656 C309.006918,45.7691108 311.323786,47.9858408 314.212081,48.0613691 L314.36418,48.0634818 C317.323244,48.0634818 319.721442,45.8171743 319.721442,43.0458656 L319.721442,23.2394857 L331,23.2394857 L331,40.5217405 L330.960391,55.1937786 C330.960391,65.2575322 322.80303,73.4156481 312.740207,73.4156481 C304.418073,73.4156481 297.398813,67.8350025 295.219785,60.211923 L305.893643,60.211923 C307.152156,62.7175621 309.745232,64.4367559 312.740207,64.4367559 C316.696364,64.4367559 319.952231,61.4362213 320.355716,57.5863893 C318.496729,58.2582217 316.476665,58.6268844 314.36418,58.6268844 C305.176983,58.6268844 297.728361,51.6508133 297.728361,43.0458656 L297.728361,23.2394857 L309.006918,23.2394857 Z M220.490626,22.1831455 C229.67811,22.1831455 237.126446,29.1592165 237.126446,37.7641643 L237.126446,57.5705442 L225.847924,57.5705442 L225.847924,37.7641643 C225.847924,35.0409191 223.531316,32.8241891 220.642886,32.7486607 L220.490626,32.7465481 C217.531706,32.7465481 215.133328,34.9928556 215.133328,37.7641643 L215.133328,57.5705442 L203.854807,57.5705442 L203.854807,37.7641643 C203.854807,29.1592165 211.303142,22.1831455 220.490626,22.1831455 M279.121368,0 L289.716289,0 L289.716289,57.5705442 L279.121368,57.5705442 L279.121368,0 Z M59.9417631,22.1831455 C68.5459146,22.1831455 75.5213402,29.1592165 75.5213402,37.7641643 L75.5213402,38.5564195 L64.958915,38.5564195 L64.958915,37.7641643 C64.958915,35.0409191 62.7893929,32.8241891 60.0843558,32.7486607 L59.9417631,32.7465481 C57.2187698,32.7465481 55.0022449,34.9162709 54.9267236,37.6215584 L54.9246111,37.7641643 L54.9246111,57.5705442 L44.3621859,57.5705442 L44.3621859,37.7641643 C44.3621859,29.1592165 51.3376115,22.1831455 59.9417631,22.1831455" id="Combined-Shape"></path>
        </g>
    </g>
</svg>