<?xml version="1.0" encoding="UTF-8"?>
<svg width="21px" height="21px" viewBox="0 0 21 21" version="1.1" xmlns="http://www.w3.org/2000/svg" xmlns:xlink="http://www.w3.org/1999/xlink">
    <title>exit icon</title>
    <g id="Page-1" stroke="none" stroke-width="1" fill="none" fill-rule="evenodd">
        <path d="M20.5748,0.4402 C21.1378,1.0032 21.1378,1.9162 20.5748,2.4792 L12.5468,10.5072 L20.5748,18.5362 C21.1378,19.0992 21.1378,20.0122 20.5748,20.5752 C20.0118,21.1382 19.0988,21.1382 18.5358,20.5752 L10.5078,12.5462 L2.4608,20.5932 C1.8978,21.1562 0.9848,21.1562 0.4218,20.5932 C-0.1412,20.0302 -0.1412,19.1172 0.4218,18.5542 L8.4688,10.5072 L0.4218,2.4612 C-0.1412,1.8982 -0.1412,0.9852 0.4218,0.4222 C0.9848,-0.1408 1.8978,-0.1408 2.4608,0.4222 L10.5078,8.4682 L18.5358,0.4402 C19.0988,-0.1228 20.0118,-0.1228 20.5748,0.4402" id="exit-icon" fill="#3A45F3"></path>
    </g>
</svg>